<svg width="12" height="14" viewBox="0 0 12 14" fill="none" xmlns="http://www.w3.org/2000/svg">
<path d="M11.8666 4.16324L8.84785 7.63587L9.28843 9.24559C9.33621 9.42076 9.29321 9.60814 9.17431 9.74562L7.39128 11.7967C7.28352 11.9204 7.13277 11.9836 6.98096 11.9836C6.85409 11.9836 6.72722 11.9395 6.62425 11.8503L4.16316 9.71088L0.954018 13.403C0.846262 13.5267 0.695508 13.5898 0.543694 13.5898C0.416828 13.5898 0.289961 13.5458 0.186982 13.4566C-0.0396783 13.2597 -0.0635653 12.9162 0.133369 12.6896L3.34248 8.99749L0.881296 6.85795C0.654635 6.66102 0.630748 6.31758 0.827683 6.09092L2.61071 4.03956C2.72961 3.90261 2.91062 3.83174 3.09004 3.85722L4.74567 4.06955L7.76392 0.596923C7.96191 0.370262 8.30482 0.346906 8.53095 0.54331L11.813 3.39621C12.0397 3.59314 12.0636 3.93658 11.8666 4.16324Z" fill="black"/>
</svg>
