<svg width="13" height="13" viewBox="0 0 13 13" fill="none" xmlns="http://www.w3.org/2000/svg">
<path fill-rule="evenodd" clip-rule="evenodd" d="M0.219855 1.58122C-0.0732851 1.28807 -0.0732851 0.8128 0.219855 0.51966C0.512996 0.22652 0.98827 0.22652 1.28141 0.51966L6.19 5.42825L11.0986 0.51966C11.3917 0.22652 11.867 0.22652 12.1601 0.51966C12.4533 0.8128 12.4533 1.28807 12.1601 1.58122L7.25156 6.48981L12.1601 11.3984C12.4533 11.6915 12.4533 12.1668 12.1601 12.46C11.867 12.7531 11.3917 12.7531 11.0986 12.46L6.19 7.55136L1.28141 12.46C0.988271 12.7531 0.512996 12.7531 0.219856 12.46C-0.0732844 12.1668 -0.0732844 11.6915 0.219856 11.3984L5.12845 6.48981L0.219855 1.58122Z" fill="black" fill-opacity="0.8"/>
</svg>
