<svg width="374" height="26" viewBox="0 0 374 26" fill="none" xmlns="http://www.w3.org/2000/svg">
<path d="M1.1123 19V6.98047H3.27051V12.5088H3.43652L8.13477 6.98047H10.7744L6.12598 12.376L10.8242 19H8.21777L4.61523 13.8369L3.27051 15.4141V19H1.1123ZM15.3232 19.1826C12.6919 19.1826 11.0068 17.3149 11.0068 14.5342C11.0068 11.7285 12.6919 9.86914 15.3232 9.86914C17.9629 9.86914 19.6479 11.7285 19.6396 14.5342C19.6479 17.3149 17.9629 19.1826 15.3232 19.1826ZM13.1484 14.5176C13.1484 16.1694 13.8706 17.4893 15.3398 17.4893C16.7842 17.4893 17.5063 16.1694 17.498 14.5176C17.5063 12.8657 16.7842 11.5376 15.3398 11.5459C13.8706 11.5376 13.1484 12.8657 13.1484 14.5176ZM21.2832 19V9.98535H23.3418V11.4795H23.4414C23.7651 10.4419 24.6284 9.85254 25.666 9.85254C25.8984 9.85254 26.2305 9.87744 26.4297 9.90234V11.8613C26.2388 11.7949 25.7988 11.7368 25.4502 11.7285C24.2715 11.7368 23.4082 12.5503 23.4082 13.6875V19H21.2832ZM31.3936 19.1826C28.6792 19.1826 27.0107 17.373 27.0107 14.5508C27.0107 11.7617 28.7041 9.86914 31.2773 9.86914C33.4854 9.86914 35.3945 11.2554 35.3945 14.418V15.082H29.1025C29.1357 16.6177 30.0405 17.5308 31.4102 17.5225C32.3398 17.5308 32.9624 17.1323 33.2363 16.5928H35.3115C34.9297 18.1533 33.4854 19.1826 31.3936 19.1826ZM29.1108 13.6377H33.3691C33.3608 12.4092 32.5308 11.5127 31.3105 11.5127C30.0405 11.5127 29.1855 12.4922 29.1108 13.6377ZM36.623 16.46C36.623 14.4346 38.3081 13.8452 39.9766 13.7373C40.6074 13.6875 41.894 13.6294 42.2925 13.6128L42.2842 12.8906C42.2842 11.9941 41.7114 11.4795 40.6572 11.4795C39.7109 11.4795 39.1299 11.9111 38.9639 12.5586H36.9219C37.0713 11.0229 38.4492 9.86914 40.707 9.86914C42.417 9.86914 44.3926 10.5747 44.3926 12.9736V19H42.3672V17.7549H42.3008C41.9023 18.5186 41.064 19.1826 39.6445 19.1826C37.9263 19.1826 36.623 18.2446 36.623 16.46ZM38.665 16.4434C38.665 17.2236 39.3042 17.6221 40.1924 17.6221C41.479 17.6221 42.3008 16.7754 42.3008 15.7627L42.2925 15.0239C41.9106 15.0405 40.7319 15.1152 40.3086 15.1484C39.3042 15.2314 38.665 15.6548 38.665 16.4434ZM60.3965 6.98047V19H58.4707L52.7764 10.7822H52.6768V19H50.5186V6.98047H52.4775L58.1387 15.1982H58.2549V6.98047H60.3965ZM62.1064 16.46C62.1064 14.4346 63.7915 13.8452 65.46 13.7373C66.0908 13.6875 67.3774 13.6294 67.7759 13.6128L67.7676 12.8906C67.7676 11.9941 67.1948 11.4795 66.1406 11.4795C65.1943 11.4795 64.6133 11.9111 64.4473 12.5586H62.4053C62.5547 11.0229 63.9326 9.86914 66.1904 9.86914C67.9004 9.86914 69.876 10.5747 69.876 12.9736V19H67.8506V17.7549H67.7842C67.3857 18.5186 66.5474 19.1826 65.1279 19.1826C63.4097 19.1826 62.1064 18.2446 62.1064 16.46ZM64.1484 16.4434C64.1484 17.2236 64.7876 17.6221 65.6758 17.6221C66.9624 17.6221 67.7842 16.7754 67.7842 15.7627L67.7759 15.0239C67.394 15.0405 66.2153 15.1152 65.792 15.1484C64.7876 15.2314 64.1484 15.6548 64.1484 16.4434ZM76.3672 9.98535V11.6123H74.5908V16.2939C74.5908 17.1572 75.0225 17.3315 75.5537 17.3398C75.8027 17.3481 76.2178 17.3232 76.4834 17.3066V19.0332C76.2344 19.0747 75.8276 19.1245 75.2881 19.1162C73.6943 19.1245 72.4658 18.3359 72.4824 16.6426V11.6123H71.1875V9.98535H72.4824V7.82715H74.5908V9.98535H76.3672ZM77.9941 19V9.98535H80.1191V19H77.9941ZM77.8447 7.54492C77.8447 6.91406 78.4009 6.39941 79.0732 6.39941C79.7456 6.39941 80.3018 6.91406 80.3018 7.54492C80.3018 8.18408 79.7456 8.69873 79.0732 8.70703C78.4009 8.69873 77.8447 8.18408 77.8447 7.54492ZM86.0791 19.1826C83.4478 19.1826 81.7627 17.3149 81.7627 14.5342C81.7627 11.7285 83.4478 9.86914 86.0791 9.86914C88.7188 9.86914 90.4038 11.7285 90.3955 14.5342C90.4038 17.3149 88.7188 19.1826 86.0791 19.1826ZM83.9043 14.5176C83.9043 16.1694 84.6265 17.4893 86.0957 17.4893C87.54 17.4893 88.2622 16.1694 88.2539 14.5176C88.2622 12.8657 87.54 11.5376 86.0957 11.5459C84.6265 11.5376 83.9043 12.8657 83.9043 14.5176ZM94.1641 13.7207V19H92.0391V9.98535H94.0645V11.5127H94.1807C94.5874 10.5083 95.5088 9.86914 96.8535 9.86914C98.7212 9.86914 99.9497 11.0977 99.9414 13.2559V19H97.833V13.5879C97.833 12.376 97.1772 11.6538 96.0732 11.6621C94.9526 11.6538 94.1641 12.4092 94.1641 13.7207ZM101.552 16.46C101.552 14.4346 103.237 13.8452 104.905 13.7373C105.536 13.6875 106.823 13.6294 107.221 13.6128L107.213 12.8906C107.213 11.9941 106.64 11.4795 105.586 11.4795C104.64 11.4795 104.059 11.9111 103.893 12.5586H101.851C102 11.0229 103.378 9.86914 105.636 9.86914C107.346 9.86914 109.321 10.5747 109.321 12.9736V19H107.296V17.7549H107.229C106.831 18.5186 105.993 19.1826 104.573 19.1826C102.855 19.1826 101.552 18.2446 101.552 16.46ZM103.594 16.4434C103.594 17.2236 104.233 17.6221 105.121 17.6221C106.408 17.6221 107.229 16.7754 107.229 15.7627L107.221 15.0239C106.839 15.0405 105.661 15.1152 105.237 15.1484C104.233 15.2314 103.594 15.6548 103.594 16.4434ZM113.438 6.98047V19H111.313V6.98047H113.438ZM127.185 6.98047H129.359V14.833C129.351 17.4146 127.409 19.1826 124.479 19.1826C121.532 19.1826 119.606 17.4146 119.598 14.833V6.98047H121.756V14.6504C121.764 16.1694 122.818 17.2485 124.479 17.2568C126.139 17.2485 127.185 16.1694 127.185 14.6504V6.98047ZM133.609 13.7207V19H131.484V9.98535H133.51V11.5127H133.626C134.033 10.5083 134.954 9.86914 136.299 9.86914C138.167 9.86914 139.395 11.0977 139.387 13.2559V19H137.278V13.5879C137.278 12.376 136.623 11.6538 135.519 11.6621C134.398 11.6538 133.609 12.4092 133.609 13.7207ZM141.412 19V9.98535H143.537V19H141.412ZM141.263 7.54492C141.263 6.91406 141.819 6.39941 142.491 6.39941C143.164 6.39941 143.72 6.91406 143.72 7.54492C143.72 8.18408 143.164 8.69873 142.491 8.70703C141.819 8.69873 141.263 8.18408 141.263 7.54492ZM153.614 9.98535L150.394 19H148.069L144.849 9.98535H147.106L149.182 16.6924H149.281L151.373 9.98535H153.614ZM158.628 19.1826C155.914 19.1826 154.245 17.373 154.245 14.5508C154.245 11.7617 155.938 9.86914 158.512 9.86914C160.72 9.86914 162.629 11.2554 162.629 14.418V15.082H156.337C156.37 16.6177 157.275 17.5308 158.645 17.5225C159.574 17.5308 160.197 17.1323 160.471 16.5928H162.546C162.164 18.1533 160.72 19.1826 158.628 19.1826ZM156.345 13.6377H160.604C160.595 12.4092 159.765 11.5127 158.545 11.5127C157.275 11.5127 156.42 12.4922 156.345 13.6377ZM164.272 19V9.98535H166.331V11.4795H166.431C166.754 10.4419 167.618 9.85254 168.655 9.85254C168.888 9.85254 169.22 9.87744 169.419 9.90234V11.8613C169.228 11.7949 168.788 11.7368 168.439 11.7285C167.261 11.7368 166.397 12.5503 166.397 13.6875V19H164.272ZM175.794 12.5586C175.661 11.8779 175.097 11.438 174.2 11.4463C173.295 11.438 172.631 11.8945 172.64 12.5088C172.631 12.9736 173.005 13.3223 173.918 13.5381L175.445 13.8535C177.147 14.2271 177.977 15.0156 177.985 16.3105C177.977 18.0039 176.491 19.1826 174.134 19.1826C171.843 19.1826 170.49 18.1533 170.266 16.4268H172.424C172.548 17.1987 173.146 17.5806 174.134 17.5723C175.155 17.5806 175.819 17.1655 175.827 16.4932C175.819 15.9702 175.412 15.6382 174.516 15.4473L173.071 15.1318C171.395 14.7915 170.523 13.9116 170.531 12.625C170.523 10.9565 171.967 9.86914 174.167 9.86914C176.317 9.86914 177.645 10.9233 177.803 12.5586H175.794ZM179.596 19V9.98535H181.721V19H179.596ZM179.446 7.54492C179.446 6.91406 180.002 6.39941 180.675 6.39941C181.347 6.39941 181.903 6.91406 181.903 7.54492C181.903 8.18408 181.347 8.69873 180.675 8.70703C180.002 8.69873 179.446 8.18408 179.446 7.54492ZM188.245 9.98535V11.6123H186.469V16.2939C186.469 17.1572 186.9 17.3315 187.432 17.3398C187.681 17.3481 188.096 17.3232 188.361 17.3066V19.0332C188.112 19.0747 187.706 19.1245 187.166 19.1162C185.572 19.1245 184.344 18.3359 184.36 16.6426V11.6123H183.065V9.98535H184.36V7.82715H186.469V9.98535H188.245ZM191.15 22.3867C190.727 22.3784 190.329 22.3701 190.055 22.3369V20.6436C190.312 20.6685 190.669 20.6685 190.951 20.6768C191.466 20.6685 191.897 20.6353 192.263 19.6641L192.445 19.1826L189.158 9.98535H191.399L193.491 16.792H193.591L195.683 9.98535H197.924L194.305 20.0957C193.79 21.5317 192.844 22.3784 191.15 22.3867ZM207.221 19.1826C204.589 19.1826 202.904 17.3149 202.904 14.5342C202.904 11.7285 204.589 9.86914 207.221 9.86914C209.86 9.86914 211.545 11.7285 211.537 14.5342C211.545 17.3149 209.86 19.1826 207.221 19.1826ZM205.046 14.5176C205.046 16.1694 205.768 17.4893 207.237 17.4893C208.682 17.4893 209.404 16.1694 209.396 14.5176C209.404 12.8657 208.682 11.5376 207.237 11.5459C205.768 11.5376 205.046 12.8657 205.046 14.5176ZM217.746 9.98535V11.6123H215.887V19H213.762V11.6123H212.417V9.98535H213.762V9.12207C213.762 7.37061 214.849 6.41602 216.584 6.41602C217.074 6.41602 217.53 6.46582 217.929 6.54883V8.22559C217.58 8.17578 217.323 8.16748 217.165 8.15918C216.31 8.16748 215.878 8.49951 215.887 9.32129V9.98535H217.746ZM224.918 19H222.61L226.844 6.98047H229.5L233.75 19H231.442L230.438 16.0283H225.914L224.918 19ZM226.495 14.2852H229.857L228.222 9.4375H228.122L226.495 14.2852ZM235.078 19V9.98535H237.137V11.4795H237.236C237.56 10.4419 238.423 9.85254 239.461 9.85254C239.693 9.85254 240.025 9.87744 240.225 9.90234V11.8613C240.034 11.7949 239.594 11.7368 239.245 11.7285C238.066 11.7368 237.203 12.5503 237.203 13.6875V19H235.078ZM246.483 9.98535V11.6123H244.707V16.2939C244.707 17.1572 245.139 17.3315 245.67 17.3398C245.919 17.3481 246.334 17.3232 246.6 17.3066V19.0332C246.351 19.0747 245.944 19.1245 245.404 19.1162C243.811 19.1245 242.582 18.3359 242.599 16.6426V11.6123H241.304V9.98535H242.599V7.82715H244.707V9.98535H246.483ZM253.091 12.5586C252.958 11.8779 252.394 11.438 251.497 11.4463C250.592 11.438 249.928 11.8945 249.937 12.5088C249.928 12.9736 250.302 13.3223 251.215 13.5381L252.742 13.8535C254.444 14.2271 255.274 15.0156 255.282 16.3105C255.274 18.0039 253.788 19.1826 251.431 19.1826C249.14 19.1826 247.787 18.1533 247.562 16.4268H249.721C249.845 17.1987 250.443 17.5806 251.431 17.5723C252.452 17.5806 253.116 17.1655 253.124 16.4932C253.116 15.9702 252.709 15.6382 251.812 15.4473L250.368 15.1318C248.691 14.7915 247.82 13.9116 247.828 12.625C247.82 10.9565 249.264 9.86914 251.464 9.86914C253.614 9.86914 254.942 10.9233 255.1 12.5586H253.091Z" fill="black"/>
<path d="M277.196 19H273.112V6.98047H277.263C280.849 6.98047 283.015 9.22998 283.023 12.9736C283.015 16.7339 280.849 19 277.196 19ZM275.271 17.124H277.08C279.595 17.1323 280.865 15.7461 280.865 12.9736C280.865 10.2178 279.595 8.84814 277.146 8.85645H275.271V17.124ZM288.834 19.1826C286.12 19.1826 284.451 17.373 284.451 14.5508C284.451 11.7617 286.145 9.86914 288.718 9.86914C290.926 9.86914 292.835 11.2554 292.835 14.418V15.082H286.543C286.576 16.6177 287.481 17.5308 288.851 17.5225C289.78 17.5308 290.403 17.1323 290.677 16.5928H292.752C292.37 18.1533 290.926 19.1826 288.834 19.1826ZM286.551 13.6377H290.81C290.801 12.4092 289.971 11.5127 288.751 11.5127C287.481 11.5127 286.626 12.4922 286.551 13.6377ZM299.592 12.5586C299.459 11.8779 298.895 11.438 297.998 11.4463C297.093 11.438 296.429 11.8945 296.438 12.5088C296.429 12.9736 296.803 13.3223 297.716 13.5381L299.243 13.8535C300.945 14.2271 301.775 15.0156 301.783 16.3105C301.775 18.0039 300.289 19.1826 297.932 19.1826C295.641 19.1826 294.288 18.1533 294.063 16.4268H296.222C296.346 17.1987 296.944 17.5806 297.932 17.5723C298.953 17.5806 299.617 17.1655 299.625 16.4932C299.617 15.9702 299.21 15.6382 298.313 15.4473L296.869 15.1318C295.192 14.7915 294.321 13.9116 294.329 12.625C294.321 10.9565 295.765 9.86914 297.965 9.86914C300.115 9.86914 301.443 10.9233 301.601 12.5586H299.592ZM303.394 19V9.98535H305.519V19H303.394ZM303.244 7.54492C303.244 6.91406 303.8 6.39941 304.473 6.39941C305.145 6.39941 305.701 6.91406 305.701 7.54492C305.701 8.18408 305.145 8.69873 304.473 8.70703C303.8 8.69873 303.244 8.18408 303.244 7.54492ZM311.479 22.5693C309.088 22.5693 307.569 21.5068 307.428 19.8135H309.536C309.686 20.6021 310.424 20.9673 311.512 20.9756C312.782 20.9673 313.604 20.4194 313.604 19.0996V17.373H313.504C313.172 18.0371 312.45 18.8672 310.897 18.8672C308.814 18.8672 307.179 17.3564 307.179 14.418C307.179 11.4546 308.822 9.86914 310.914 9.86914C312.5 9.86914 313.172 10.8237 313.504 11.4629H313.604V9.98535H315.695V19.1494C315.695 21.457 313.911 22.5693 311.479 22.5693ZM309.337 14.4512C309.337 16.1113 310.084 17.207 311.479 17.207C312.848 17.207 313.62 16.1777 313.62 14.4512C313.62 12.7329 312.856 11.604 311.479 11.5957C310.067 11.604 309.337 12.8076 309.337 14.4512ZM319.846 13.7207V19H317.721V9.98535H319.746V11.5127H319.862C320.269 10.5083 321.19 9.86914 322.535 9.86914C324.403 9.86914 325.631 11.0977 325.623 13.2559V19H323.515V13.5879C323.515 12.376 322.859 11.6538 321.755 11.6621C320.634 11.6538 319.846 12.4092 319.846 13.7207ZM335.866 19H331.782V6.98047H335.933C339.519 6.98047 341.685 9.22998 341.693 12.9736C341.685 16.7339 339.519 19 335.866 19ZM333.94 17.124H335.75C338.265 17.1323 339.535 15.7461 339.535 12.9736C339.535 10.2178 338.265 8.84814 335.816 8.85645H333.94V17.124ZM347.504 19.1826C344.79 19.1826 343.121 17.373 343.121 14.5508C343.121 11.7617 344.814 9.86914 347.388 9.86914C349.596 9.86914 351.505 11.2554 351.505 14.418V15.082H345.213C345.246 16.6177 346.151 17.5308 347.521 17.5225C348.45 17.5308 349.073 17.1323 349.347 16.5928H351.422C351.04 18.1533 349.596 19.1826 347.504 19.1826ZM345.221 13.6377H349.479C349.471 12.4092 348.641 11.5127 347.421 11.5127C346.151 11.5127 345.296 12.4922 345.221 13.6377ZM353.148 22.3867V9.98535H355.224V11.4629H355.356C355.68 10.8237 356.344 9.86914 357.946 9.86914C360.021 9.86914 361.657 11.4961 361.665 14.501C361.657 17.4644 360.071 19.1577 357.946 19.166C356.394 19.1577 355.688 18.2363 355.356 17.5723H355.273V22.3867H353.148ZM355.224 14.4844C355.232 16.2441 355.996 17.4229 357.365 17.4229C358.768 17.4229 359.507 16.186 359.507 14.4844C359.507 12.8076 358.785 11.604 357.365 11.5957C355.979 11.604 355.232 12.7329 355.224 14.4844ZM367.824 9.98535V11.6123H366.048V16.2939C366.048 17.1572 366.479 17.3315 367.011 17.3398C367.26 17.3481 367.675 17.3232 367.94 17.3066V19.0332C367.691 19.0747 367.285 19.1245 366.745 19.1162C365.151 19.1245 363.923 18.3359 363.939 16.6426V11.6123H362.645V9.98535H363.939V7.82715H366.048V9.98535H367.824ZM370.763 19.1328C370.049 19.1328 369.459 18.5518 369.468 17.8379C369.459 17.1406 370.049 16.5679 370.763 16.5596C371.452 16.5679 372.041 17.1406 372.041 17.8379C372.041 18.5518 371.452 19.1328 370.763 19.1328Z" fill="black" fill-opacity="0.4"/>
</svg>
