<svg width="314" height="27" viewBox="0 0 314 27" fill="none" xmlns="http://www.w3.org/2000/svg">
<path d="M0 7.28125H2.05V13.5672L8.18 7.28125H10.91L4.17 14.0354L11.44 21.5666H8.44L2.05 14.5634V21.5666H0V7.28125Z" fill="black"/>
<path d="M14.7697 16.3468C14.7697 14.3644 15.9797 12.4417 18.0597 12.4417C20.1397 12.4417 21.3297 14.3644 21.3297 16.3468C21.3297 18.2097 20.3197 20.2518 18.0597 20.2518C15.7997 20.2518 14.7697 18.2097 14.7697 16.3468ZM12.7197 16.3468C12.7197 19.3354 14.8997 21.8159 18.0597 21.8159C21.2197 21.8159 23.3797 19.3354 23.3797 16.3468C23.3797 13.1789 21.2497 10.8877 18.0597 10.8877C14.8697 10.8877 12.7197 13.1789 12.7197 16.3468Z" fill="black"/>
<path d="M25.9697 11.1367H27.7797V12.7506H27.8197C28.3297 11.6647 29.4397 10.8877 30.5497 10.8877C31.1297 10.8877 31.4097 10.9475 31.8197 11.0272V12.7406C31.4697 12.6011 31.0797 12.5513 30.7497 12.5513C29.0297 12.5513 27.8997 14.1851 27.8997 16.805V21.5569H25.9697V11.1367Z" fill="black"/>
<path d="M35.3098 15.3506C35.4498 13.9958 36.2398 12.4417 38.1198 12.4417C39.7898 12.4417 40.7298 13.7567 40.7298 15.3506H35.3098ZM41.9898 19.2158C41.5198 19.6043 40.0398 20.2618 38.7598 20.2618C36.9298 20.2618 35.3098 18.8472 35.3098 16.7851H42.7898C42.7898 13.428 41.6598 10.8877 38.1698 10.8877C35.2098 10.8877 33.2598 13.0793 33.2598 16.1675C33.2598 19.5645 34.9698 21.8159 38.6798 21.8159C40.4098 21.8159 41.2498 21.4074 41.9898 21.1385V19.2158Z" fill="black"/>
<path d="M51.5997 17.5229C51.5997 19.0769 50.5997 20.2624 48.6797 20.2624C47.7997 20.2624 46.7297 19.6647 46.7297 18.5589C46.7297 16.716 49.3197 16.5566 50.3597 16.5566C50.7697 16.5566 51.1797 16.5964 51.5897 16.5964V17.5229H51.5997ZM45.9697 13.5082C46.7497 12.8508 47.9197 12.4423 49.0097 12.4423C50.9397 12.4423 51.5997 13.3688 51.5997 15.1619C50.8397 15.1221 50.3097 15.1221 49.5497 15.1221C47.5597 15.1221 44.6797 15.9389 44.6797 18.5589C44.6797 20.8302 46.2597 21.8164 48.5197 21.8164C50.2897 21.8164 51.3097 20.8501 51.7697 20.2225H51.8097V21.5774H53.6197C53.5797 21.2685 53.5397 20.7206 53.5397 19.5352V15.2217C53.5397 12.3726 52.3297 10.9082 49.3297 10.9082C47.9997 10.9082 46.8497 11.3166 45.8797 11.8944L45.9797 13.5282L45.9697 13.5082Z" fill="black"/>
<path d="M62.7795 7.28125H65.5695L71.8995 18.7772H71.9395V7.28125H73.9895V21.5666H71.3595L64.8695 9.82152H64.8295V21.5666H62.7695V7.28125H62.7795Z" fill="black"/>
<path d="M83.67 17.5229C83.67 19.0769 82.67 20.2624 80.75 20.2624C79.87 20.2624 78.8 19.6647 78.8 18.5589C78.8 16.716 81.39 16.5566 82.44 16.5566C82.85 16.5566 83.26 16.5964 83.67 16.5964V17.5229ZM78.04 13.5082C78.82 12.8508 79.99 12.4423 81.08 12.4423C83.01 12.4423 83.67 13.3688 83.67 15.1619C82.91 15.1221 82.38 15.1221 81.62 15.1221C79.63 15.1221 76.75 15.9389 76.75 18.5589C76.75 20.8302 78.33 21.8164 80.59 21.8164C82.36 21.8164 83.38 20.8501 83.84 20.2225H83.88V21.5774H85.69C85.65 21.2685 85.61 20.7206 85.61 19.5352V15.2217C85.61 12.3726 84.4 10.9082 81.4 10.9082C80.06 10.9082 78.91 11.3166 77.95 11.8944L78.05 13.5282L78.04 13.5082Z" fill="black"/>
<path d="M94.4301 12.6909H91.6601V18.399C91.6601 19.6044 92.4001 20.2619 93.2801 20.2619C93.8801 20.2619 94.3101 20.0726 94.5901 19.8933V21.527C94.1601 21.6466 93.5601 21.8159 92.9501 21.8159C90.9601 21.8159 89.7301 20.8695 89.7301 18.7875V12.6909H87.3701V11.1368H89.7301V8.72603L91.6601 8.1084V11.1368H94.4301V12.6909Z" fill="black"/>
<path d="M97.0997 11.1375H99.0297V21.5776H97.0997V11.1375ZM99.1497 8.80645H96.9697V6.63477H99.1497V8.80645Z" fill="black"/>
<path d="M103.92 16.3468C103.92 14.3644 105.13 12.4417 107.21 12.4417C109.29 12.4417 110.48 14.3644 110.48 16.3468C110.48 18.2097 109.47 20.2518 107.21 20.2518C104.95 20.2518 103.92 18.2097 103.92 16.3468ZM101.87 16.3468C101.87 19.3354 104.05 21.8159 107.21 21.8159C110.37 21.8159 112.53 19.3354 112.53 16.3468C112.53 13.1789 110.39 10.8877 107.21 10.8877C104.03 10.8877 101.87 13.1789 101.87 16.3468Z" fill="black"/>
<path d="M115.12 11.1367H116.99V12.7904H117.03C117.61 11.6049 119 10.8877 120.46 10.8877C123.17 10.8877 124.38 12.5613 124.38 15.3705V21.5668H122.45V16.1675C122.45 13.7268 121.92 12.5414 120.23 12.4417C118.03 12.4417 117.05 14.205 117.05 16.7353V21.5668H115.12V11.1367Z" fill="black"/>
<path d="M133.89 17.5229C133.89 19.0769 132.88 20.2624 130.97 20.2624C130.09 20.2624 129.02 19.6647 129.02 18.5589C129.02 16.716 131.61 16.5566 132.66 16.5566C133.07 16.5566 133.48 16.5964 133.89 16.5964V17.5229ZM128.26 13.5082C129.04 12.8508 130.21 12.4423 131.3 12.4423C133.23 12.4423 133.89 13.3688 133.89 15.1619C133.13 15.1221 132.6 15.1221 131.84 15.1221C129.85 15.1221 126.97 15.9389 126.97 18.5589C126.97 20.8302 128.55 21.8164 130.81 21.8164C132.58 21.8164 133.6 20.8501 134.06 20.2225H134.1V21.5774H135.91C135.87 21.2685 135.83 20.7206 135.83 19.5352V15.2217C135.83 12.3726 134.62 10.9082 131.62 10.9082C130.29 10.9082 129.13 11.3166 128.17 11.8944L128.27 13.5282L128.26 13.5082Z" fill="black"/>
<path d="M139.34 6.22656H141.27V21.5778H139.34V6.22656Z" fill="black"/>
<path d="M161.85 15.6592C161.85 19.6738 159.82 21.8156 156.28 21.8156C152.74 21.8156 150.71 19.6638 150.71 15.6592V7.28125H152.76V15.3802C152.76 18.1198 153.62 20.0025 156.27 20.0025C158.92 20.0025 159.78 18.1198 159.78 15.3802V7.28125H161.83V15.6492L161.85 15.6592Z" fill="black"/>
<path d="M165.34 11.1367H167.21V12.7904H167.25C167.82 11.6049 169.22 10.8877 170.68 10.8877C173.39 10.8877 174.6 12.5613 174.6 15.3705V21.5668H172.67V16.1675C172.67 13.7268 172.14 12.5414 170.45 12.4417C168.25 12.4417 167.27 14.205 167.27 16.7353V21.5668H165.34V11.1367Z" fill="black"/>
<path d="M178.14 11.1375H180.07V21.5776H178.14V11.1375ZM180.19 8.80645H178.01V6.63477H180.19V8.80645Z" fill="black"/>
<path d="M188.25 21.567H185.95L182.19 11.127H184.31L187.15 19.6443H187.19L190.09 11.127H192.02L188.26 21.567H188.25Z" fill="black"/>
<path d="M195.23 15.3506C195.37 13.9958 196.15 12.4417 198.04 12.4417C199.7 12.4417 200.65 13.7567 200.65 15.3506H195.23ZM201.91 19.2158C201.44 19.6043 199.96 20.2618 198.69 20.2618C196.86 20.2618 195.24 18.8472 195.24 16.7851H202.72C202.72 13.428 201.59 10.8877 198.1 10.8877C195.14 10.8877 193.19 13.0793 193.19 16.1675C193.19 19.5645 194.9 21.8159 198.61 21.8159C200.34 21.8159 201.18 21.4074 201.92 21.1385V19.2158H201.91Z" fill="black"/>
<path d="M205.3 11.1367H207.11V12.7506H207.15C207.66 11.6647 208.77 10.8877 209.88 10.8877C210.45 10.8877 210.74 10.9475 211.15 11.0272V12.7406C210.8 12.6011 210.41 12.5513 210.08 12.5513C208.36 12.5513 207.22 14.1851 207.22 16.805V21.5569H205.29V11.1367H205.3Z" fill="black"/>
<path d="M212.51 19.5246C213.27 20.0128 214.36 20.2618 214.91 20.2618C215.79 20.2618 216.88 19.8932 216.88 18.7675C216.88 16.8648 212.34 17.0342 212.34 14.1054C212.34 11.9337 213.96 10.8877 216.04 10.8877C216.94 10.8877 217.68 11.077 218.44 11.2961L218.27 12.9697C217.84 12.7008 216.69 12.4318 216.24 12.4318C215.26 12.4318 214.39 12.8402 214.39 13.7069C214.39 15.8288 218.93 15.2211 218.93 18.5583C218.93 20.7898 217.14 21.8159 215.27 21.8159C214.29 21.8159 213.28 21.7162 212.4 21.2381L212.5 19.5147L212.51 19.5246Z" fill="black"/>
<path d="M221.52 11.1375H223.45V21.5776H221.52V11.1375ZM223.57 8.80645H221.39V6.63477H223.57V8.80645Z" fill="black"/>
<path d="M232.56 12.6909H229.79V18.399C229.79 19.6044 230.53 20.2619 231.41 20.2619C232.01 20.2619 232.44 20.0726 232.72 19.8933V21.527C232.29 21.6466 231.69 21.8159 231.08 21.8159C229.09 21.8159 227.85 20.8695 227.85 18.7875V12.6909H225.49V11.1368H227.85V8.72603L229.78 8.1084V11.1368H232.55V12.6909H232.56Z" fill="black"/>
<path d="M234.2 24.3962C234.45 24.4758 234.78 24.5555 235.1 24.5555C236.83 24.5555 237.4 22.1846 237.4 21.9754C237.4 21.7463 237.15 21.2183 237.03 20.8697L233.48 11.127H235.6L238.42 19.7639H238.46L241.34 11.127H243.29L239.43 21.7861C238.71 23.7885 237.95 26.0996 235.4 26.0996C234.78 26.0996 234.43 26.0199 234.08 25.9602L234.2 24.3862V24.3962Z" fill="black"/>
<path d="M252.32 16.3468C252.32 14.3644 253.53 12.4417 255.61 12.4417C257.69 12.4417 258.88 14.3644 258.88 16.3468C258.88 18.2097 257.87 20.2518 255.61 20.2518C253.35 20.2518 252.32 18.2097 252.32 16.3468ZM250.27 16.3468C250.27 19.3354 252.45 21.8159 255.61 21.8159C258.77 21.8159 260.93 19.3354 260.93 16.3468C260.93 13.1789 258.79 10.8877 255.61 10.8877C252.43 10.8877 250.27 13.1789 250.27 16.3468Z" fill="black"/>
<path d="M264.76 12.6916H262.3V11.1376H264.76V10.1812C264.76 7.64097 265.42 5.9873 268.27 5.9873C268.76 5.9873 269.17 6.04708 269.56 6.10685L269.48 7.6609C269.26 7.5812 268.88 7.54136 268.56 7.54136C266.9 7.54136 266.69 8.60727 266.69 10.0219V11.1475H269.46V12.7016H266.69V21.5776H264.76V12.6916Z" fill="black"/>
<path d="M285.8 16.2868H280.09L282.95 9.20389L285.81 16.2868H285.8ZM275.82 21.5666H277.98L279.44 17.9604H286.47L287.93 21.5666H290.17L284.11 7.28125H281.95L275.83 21.5666H275.82Z" fill="black"/>
<path d="M292.04 11.1367H293.85V12.7506H293.89C294.4 11.6647 295.51 10.8877 296.62 10.8877C297.19 10.8877 297.48 10.9475 297.89 11.0272V12.7406C297.54 12.6011 297.15 12.5513 296.82 12.5513C295.1 12.5513 293.96 14.1851 293.96 16.805V21.5569H292.03V11.1367H292.04Z" fill="black"/>
<path d="M305.6 12.6909H302.83V18.399C302.83 19.6044 303.57 20.2619 304.45 20.2619C305.05 20.2619 305.48 20.0726 305.76 19.8933V21.527C305.33 21.6466 304.73 21.8159 304.12 21.8159C302.13 21.8159 300.9 20.8695 300.9 18.7875V12.6909H298.54V11.1368H300.9V8.72603L302.83 8.1084V11.1368H305.6V12.6909Z" fill="black"/>
<path d="M307.25 19.5246C308.01 20.0128 309.1 20.2618 309.65 20.2618C310.53 20.2618 311.62 19.8932 311.62 18.7675C311.62 16.8648 307.08 17.0342 307.08 14.1054C307.08 11.9337 308.7 10.8877 310.78 10.8877C311.68 10.8877 312.42 11.077 313.18 11.2961L313.02 12.9697C312.59 12.7008 311.44 12.4318 310.98 12.4318C309.99 12.4318 309.13 12.8402 309.13 13.7069C309.13 15.8288 313.67 15.2211 313.67 18.5583C313.67 20.7898 311.88 21.8159 310.01 21.8159C309.02 21.8159 308.02 21.7162 307.14 21.2381L307.24 19.5147L307.25 19.5246Z" fill="black"/>
</svg>
