<svg width="211" height="42" viewBox="0 0 211 42" fill="none" xmlns="http://www.w3.org/2000/svg">
<path d="M0.922852 5.10156H2.7002V9.66113H2.83008L6.69238 5.10156H8.87988L5.03809 9.54492L8.91406 15H6.76074L3.80078 10.748L2.7002 12.0537V15H0.922852V5.10156ZM12.6123 15.1436C11.8968 15.1436 11.2702 14.984 10.7324 14.665C10.1947 14.346 9.77995 13.8994 9.48828 13.3252C9.19661 12.7464 9.05078 12.0765 9.05078 11.3154C9.05078 10.5544 9.19661 9.88444 9.48828 9.30566C9.77995 8.72689 10.1947 8.27799 10.7324 7.95898C11.2702 7.63997 11.8968 7.48047 12.6123 7.48047C13.3278 7.48047 13.9544 7.63997 14.4922 7.95898C15.0299 8.27799 15.4424 8.72689 15.7295 9.30566C16.0166 9.88444 16.1602 10.5544 16.1602 11.3154C16.1602 12.0765 16.0166 12.7464 15.7295 13.3252C15.4424 13.8994 15.0299 14.346 14.4922 14.665C13.9544 14.984 13.3278 15.1436 12.6123 15.1436ZM12.626 13.7559C13.0042 13.7559 13.3278 13.6488 13.5967 13.4346C13.8656 13.2204 14.0661 12.9287 14.1982 12.5596C14.3304 12.1904 14.3965 11.7734 14.3965 11.3086C14.3965 10.8438 14.3304 10.4268 14.1982 10.0576C14.0661 9.68848 13.8656 9.39681 13.5967 9.18262C13.3278 8.96387 13.0042 8.85449 12.626 8.85449C12.234 8.85449 11.9014 8.96387 11.6279 9.18262C11.3545 9.39681 11.1494 9.68848 11.0127 10.0576C10.8805 10.4268 10.8122 10.8438 10.8076 11.3086C10.8122 11.7734 10.8805 12.1904 11.0127 12.5596C11.1494 12.9287 11.3545 13.2204 11.6279 13.4346C11.9014 13.6488 12.234 13.7559 12.626 13.7559ZM17.5273 7.57617H19.209V8.81348H19.291C19.4186 8.38965 19.6465 8.05924 19.9746 7.82227C20.3073 7.58529 20.6878 7.4668 21.1162 7.4668C21.4307 7.47135 21.6426 7.4873 21.752 7.51465V9.12109C21.6562 9.08919 21.5309 9.06413 21.376 9.0459C21.2256 9.02767 21.0798 9.01855 20.9385 9.01855C20.6195 9.01855 20.3324 9.08691 20.0771 9.22363C19.8265 9.36035 19.6283 9.55176 19.4824 9.79785C19.3366 10.0439 19.2637 10.3219 19.2637 10.6318V15H17.5273V7.57617ZM25.8398 15.1436C25.1016 15.1436 24.4613 14.9886 23.9189 14.6787C23.3766 14.3688 22.9596 13.9268 22.668 13.3525C22.3763 12.7783 22.2305 12.1061 22.2305 11.3359C22.2305 10.5749 22.3763 9.90267 22.668 9.31934C22.9642 8.73145 23.3766 8.27799 23.9053 7.95898C24.4339 7.63997 25.0492 7.48047 25.751 7.48047C26.3799 7.48047 26.9495 7.61491 27.46 7.88379C27.9704 8.15267 28.376 8.56738 28.6768 9.12793C28.9821 9.68848 29.1348 10.3857 29.1348 11.2197V11.7666H23.0576V10.584H27.4668C27.4622 10.2513 27.3893 9.9528 27.248 9.68848C27.1113 9.4196 26.9131 9.20996 26.6533 9.05957C26.3981 8.90918 26.1042 8.83398 25.7715 8.83398C25.416 8.83398 25.1016 8.91829 24.8281 9.08691C24.5547 9.25553 24.3405 9.4834 24.1855 9.77051C24.0352 10.0531 23.9577 10.363 23.9531 10.7002V11.7119C23.9531 12.1449 24.0329 12.5163 24.1924 12.8262C24.3519 13.1361 24.5729 13.3753 24.8555 13.5439C25.1426 13.708 25.4775 13.79 25.8604 13.79C26.1064 13.79 26.3275 13.7559 26.5234 13.6875C26.724 13.6191 26.8926 13.528 27.0293 13.4141C27.1706 13.3001 27.2799 13.168 27.3574 13.0176H29.0664C28.9616 13.446 28.7633 13.8219 28.4717 14.1455C28.1846 14.4645 27.8154 14.7106 27.3643 14.8838C26.9176 15.057 26.4095 15.1436 25.8398 15.1436ZM34.918 11.7119C34.7448 11.7256 34.6104 11.737 34.5146 11.7461C34.4235 11.7507 34.2868 11.7598 34.1045 11.7734C33.7673 11.7871 33.4596 11.8053 33.1816 11.8281C32.7533 11.8646 32.4206 11.9717 32.1836 12.1494C31.9466 12.3271 31.8281 12.5755 31.8281 12.8945C31.8281 13.1042 31.8828 13.2819 31.9922 13.4277C32.1016 13.5736 32.2497 13.6852 32.4365 13.7627C32.6234 13.8356 32.8398 13.8698 33.0859 13.8652C33.4277 13.8652 33.7308 13.7969 33.9951 13.6602C34.2594 13.5234 34.4622 13.3389 34.6035 13.1064C34.7493 12.8695 34.8223 12.612 34.8223 12.334L34.8086 9.96191C34.8086 9.72038 34.7585 9.51302 34.6582 9.33984C34.5579 9.16211 34.4053 9.02995 34.2002 8.94336C33.9997 8.85677 33.7536 8.81348 33.4619 8.81348C33.0837 8.81348 32.776 8.89323 32.5391 9.05273C32.3021 9.20768 32.1494 9.4196 32.0811 9.68848H30.3857C30.4313 9.26465 30.5863 8.88639 30.8506 8.55371C31.1149 8.21647 31.4727 7.95443 31.9238 7.76758C32.3796 7.57617 32.9082 7.48047 33.5098 7.48047C34.0384 7.48047 34.5306 7.56022 34.9863 7.71973C35.4421 7.87923 35.8135 8.15039 36.1006 8.5332C36.3923 8.91602 36.5404 9.41504 36.5449 10.0303V15H34.877V13.9746H34.8223C34.6445 14.321 34.3711 14.6035 34.002 14.8223C33.6374 15.041 33.1816 15.1504 32.6348 15.1504C32.1562 15.1504 31.7301 15.0661 31.3564 14.8975C30.9827 14.7243 30.6865 14.4691 30.4678 14.1318C30.2536 13.7946 30.1465 13.389 30.1465 12.915C30.1465 12.1494 30.404 11.5957 30.9189 11.2539C31.4339 10.9121 32.0993 10.7139 32.915 10.6592C33.1338 10.6455 33.3753 10.6318 33.6396 10.6182C33.9085 10.5999 34.1683 10.5863 34.4189 10.5771C34.5785 10.5726 34.7402 10.568 34.9043 10.5635L34.918 11.7119ZM49.7383 15H48.1592L43.4766 8.23926H43.3877V15H41.6104V5.10156H43.21L47.8789 11.8691H47.9678V5.10156H49.7383V15ZM55.918 11.7119C55.7448 11.7256 55.6104 11.737 55.5146 11.7461C55.4235 11.7507 55.2868 11.7598 55.1045 11.7734C54.7673 11.7871 54.4596 11.8053 54.1816 11.8281C53.7533 11.8646 53.4206 11.9717 53.1836 12.1494C52.9466 12.3271 52.8281 12.5755 52.8281 12.8945C52.8281 13.1042 52.8828 13.2819 52.9922 13.4277C53.1016 13.5736 53.2497 13.6852 53.4365 13.7627C53.6234 13.8356 53.8398 13.8698 54.0859 13.8652C54.4277 13.8652 54.7308 13.7969 54.9951 13.6602C55.2594 13.5234 55.4622 13.3389 55.6035 13.1064C55.7493 12.8695 55.8223 12.612 55.8223 12.334L55.8086 9.96191C55.8086 9.72038 55.7585 9.51302 55.6582 9.33984C55.5579 9.16211 55.4053 9.02995 55.2002 8.94336C54.9997 8.85677 54.7536 8.81348 54.4619 8.81348C54.0837 8.81348 53.776 8.89323 53.5391 9.05273C53.3021 9.20768 53.1494 9.4196 53.0811 9.68848H51.3857C51.4313 9.26465 51.5863 8.88639 51.8506 8.55371C52.1149 8.21647 52.4727 7.95443 52.9238 7.76758C53.3796 7.57617 53.9082 7.48047 54.5098 7.48047C55.0384 7.48047 55.5306 7.56022 55.9863 7.71973C56.4421 7.87923 56.8135 8.15039 57.1006 8.5332C57.3923 8.91602 57.5404 9.41504 57.5449 10.0303V15H55.877V13.9746H55.8223C55.6445 14.321 55.3711 14.6035 55.002 14.8223C54.6374 15.041 54.1816 15.1504 53.6348 15.1504C53.1562 15.1504 52.7301 15.0661 52.3564 14.8975C51.9827 14.7243 51.6865 14.4691 51.4678 14.1318C51.2536 13.7946 51.1465 13.389 51.1465 12.915C51.1465 12.1494 51.404 11.5957 51.9189 11.2539C52.4339 10.9121 53.0993 10.7139 53.915 10.6592C54.1338 10.6455 54.3753 10.6318 54.6396 10.6182C54.9085 10.5999 55.1683 10.5863 55.4189 10.5771C55.5785 10.5726 55.7402 10.568 55.9043 10.5635L55.918 11.7119ZM62.8838 8.91602H58.6318V7.57617H62.8838V8.91602ZM61.4277 5.79883V12.7715C61.4277 12.9948 61.4619 13.1702 61.5303 13.2979C61.5986 13.4209 61.6898 13.5075 61.8037 13.5576C61.9222 13.6077 62.0635 13.6328 62.2275 13.6328C62.2959 13.6374 62.3779 13.6374 62.4736 13.6328C62.5739 13.6283 62.6719 13.6237 62.7676 13.6191L62.9863 13.5986V15.0273C62.6947 15.0775 62.3665 15.1025 62.002 15.1025C61.5553 15.1025 61.1566 15.0273 60.8057 14.877C60.4548 14.722 60.179 14.4941 59.9785 14.1934C59.7826 13.888 59.6846 13.5075 59.6846 13.0518V5.79883H61.4277ZM64.2441 7.57617H65.9805V15H64.2441V7.57617ZM65.1123 6.5166C64.9255 6.5166 64.7546 6.47331 64.5996 6.38672C64.4492 6.30013 64.3285 6.1862 64.2373 6.04492C64.1462 5.90365 64.1006 5.74642 64.1006 5.57324C64.1006 5.40007 64.1462 5.24056 64.2373 5.09473C64.3285 4.94889 64.4492 4.83496 64.5996 4.75293C64.7546 4.6709 64.9232 4.62988 65.1055 4.62988C65.2878 4.62988 65.4564 4.6709 65.6113 4.75293C65.7663 4.83496 65.8893 4.94889 65.9805 5.09473C66.0762 5.24056 66.124 5.40007 66.124 5.57324C66.124 5.74642 66.0762 5.90365 65.9805 6.04492C65.8893 6.1862 65.7663 6.30013 65.6113 6.38672C65.4564 6.47331 65.29 6.5166 65.1123 6.5166ZM70.8955 15.1436C70.18 15.1436 69.5534 14.984 69.0156 14.665C68.4779 14.346 68.0632 13.8994 67.7715 13.3252C67.4798 12.7464 67.334 12.0765 67.334 11.3154C67.334 10.5544 67.4798 9.88444 67.7715 9.30566C68.0632 8.72689 68.4779 8.27799 69.0156 7.95898C69.5534 7.63997 70.18 7.48047 70.8955 7.48047C71.611 7.48047 72.2376 7.63997 72.7754 7.95898C73.3132 8.27799 73.7256 8.72689 74.0127 9.30566C74.2998 9.88444 74.4434 10.5544 74.4434 11.3154C74.4434 12.0765 74.2998 12.7464 74.0127 13.3252C73.7256 13.8994 73.3132 14.346 72.7754 14.665C72.2376 14.984 71.611 15.1436 70.8955 15.1436ZM70.9092 13.7559C71.2874 13.7559 71.611 13.6488 71.8799 13.4346C72.1488 13.2204 72.3493 12.9287 72.4814 12.5596C72.6136 12.1904 72.6797 11.7734 72.6797 11.3086C72.6797 10.8438 72.6136 10.4268 72.4814 10.0576C72.3493 9.68848 72.1488 9.39681 71.8799 9.18262C71.611 8.96387 71.2874 8.85449 70.9092 8.85449C70.5173 8.85449 70.1846 8.96387 69.9111 9.18262C69.6377 9.39681 69.4326 9.68848 69.2959 10.0576C69.1637 10.4268 69.0954 10.8438 69.0908 11.3086C69.0954 11.7734 69.1637 12.1904 69.2959 12.5596C69.4326 12.9287 69.6377 13.2204 69.9111 13.4346C70.1846 13.6488 70.5173 13.7559 70.9092 13.7559ZM77.5469 15H75.8105V7.57617H77.4717V8.83398H77.5537C77.7314 8.41016 78.0094 8.07975 78.3877 7.84277C78.766 7.60124 79.2262 7.48047 79.7686 7.48047C80.2835 7.48047 80.7301 7.58984 81.1084 7.80859C81.4912 8.02279 81.7852 8.3418 81.9902 8.76562C82.1999 9.1849 82.3047 9.6862 82.3047 10.2695V15H80.5684V10.5361C80.5684 10.208 80.5114 9.92546 80.3975 9.68848C80.2835 9.4515 80.1172 9.26921 79.8984 9.1416C79.6842 9.014 79.4245 8.9502 79.1191 8.9502C78.8092 8.9502 78.5358 9.01628 78.2988 9.14844C78.0618 9.2806 77.8773 9.47656 77.7451 9.73633C77.613 9.99154 77.5469 10.2946 77.5469 10.6455V15ZM88.4023 11.7119C88.2292 11.7256 88.0947 11.737 87.999 11.7461C87.9079 11.7507 87.7712 11.7598 87.5889 11.7734C87.2516 11.7871 86.944 11.8053 86.666 11.8281C86.2376 11.8646 85.9049 11.9717 85.668 12.1494C85.431 12.3271 85.3125 12.5755 85.3125 12.8945C85.3125 13.1042 85.3672 13.2819 85.4766 13.4277C85.5859 13.5736 85.734 13.6852 85.9209 13.7627C86.1077 13.8356 86.3242 13.8698 86.5703 13.8652C86.9121 13.8652 87.2152 13.7969 87.4795 13.6602C87.7438 13.5234 87.9466 13.3389 88.0879 13.1064C88.2337 12.8695 88.3066 12.612 88.3066 12.334L88.293 9.96191C88.293 9.72038 88.2428 9.51302 88.1426 9.33984C88.0423 9.16211 87.8896 9.02995 87.6846 8.94336C87.484 8.85677 87.238 8.81348 86.9463 8.81348C86.568 8.81348 86.2604 8.89323 86.0234 9.05273C85.7865 9.20768 85.6338 9.4196 85.5654 9.68848H83.8701C83.9157 9.26465 84.0706 8.88639 84.335 8.55371C84.5993 8.21647 84.957 7.95443 85.4082 7.76758C85.8639 7.57617 86.3926 7.48047 86.9941 7.48047C87.5228 7.48047 88.015 7.56022 88.4707 7.71973C88.9264 7.87923 89.2979 8.15039 89.585 8.5332C89.8766 8.91602 90.0247 9.41504 90.0293 10.0303V15H88.3613V13.9746H88.3066C88.1289 14.321 87.8555 14.6035 87.4863 14.8223C87.1217 15.041 86.666 15.1504 86.1191 15.1504C85.6406 15.1504 85.2145 15.0661 84.8408 14.8975C84.4671 14.7243 84.1709 14.4691 83.9521 14.1318C83.738 13.7946 83.6309 13.389 83.6309 12.915C83.6309 12.1494 83.8883 11.5957 84.4033 11.2539C84.9183 10.9121 85.5837 10.7139 86.3994 10.6592C86.6182 10.6455 86.8597 10.6318 87.124 10.6182C87.3929 10.5999 87.6527 10.5863 87.9033 10.5771C88.0628 10.5726 88.2246 10.568 88.3887 10.5635L88.4023 11.7119ZM93.4199 15H91.6836V5.10156H93.4199V15ZM106.538 5.10156V11.5752C106.538 12.2725 106.372 12.8923 106.039 13.4346C105.706 13.9769 105.235 14.3984 104.624 14.6992C104.018 15 103.318 15.1504 102.525 15.1504C101.728 15.1504 101.026 15 100.42 14.6992C99.8138 14.3984 99.3444 13.9769 99.0117 13.4346C98.679 12.8923 98.5127 12.2725 98.5127 11.5752V5.10156H100.29V11.4248C100.29 11.8395 100.381 12.2087 100.563 12.5322C100.746 12.8512 101.006 13.1042 101.343 13.291C101.685 13.4733 102.079 13.5645 102.525 13.5645C102.972 13.5645 103.364 13.4733 103.701 13.291C104.043 13.1042 104.303 12.8512 104.48 12.5322C104.663 12.2087 104.754 11.8395 104.754 11.4248V5.10156H106.538ZM110.045 15H108.309V7.57617H109.97V8.83398H110.052C110.229 8.41016 110.507 8.07975 110.886 7.84277C111.264 7.60124 111.724 7.48047 112.267 7.48047C112.782 7.48047 113.228 7.58984 113.606 7.80859C113.989 8.02279 114.283 8.3418 114.488 8.76562C114.698 9.1849 114.803 9.6862 114.803 10.2695V15H113.066V10.5361C113.066 10.208 113.009 9.92546 112.896 9.68848C112.782 9.4515 112.615 9.26921 112.396 9.1416C112.182 9.014 111.923 8.9502 111.617 8.9502C111.307 8.9502 111.034 9.01628 110.797 9.14844C110.56 9.2806 110.375 9.47656 110.243 9.73633C110.111 9.99154 110.045 10.2946 110.045 10.6455V15ZM116.484 7.57617H118.221V15H116.484V7.57617ZM117.353 6.5166C117.166 6.5166 116.995 6.47331 116.84 6.38672C116.689 6.30013 116.569 6.1862 116.478 6.04492C116.386 5.90365 116.341 5.74642 116.341 5.57324C116.341 5.40007 116.386 5.24056 116.478 5.09473C116.569 4.94889 116.689 4.83496 116.84 4.75293C116.995 4.6709 117.163 4.62988 117.346 4.62988C117.528 4.62988 117.697 4.6709 117.852 4.75293C118.007 4.83496 118.13 4.94889 118.221 5.09473C118.316 5.24056 118.364 5.40007 118.364 5.57324C118.364 5.74642 118.316 5.90365 118.221 6.04492C118.13 6.1862 118.007 6.30013 117.852 6.38672C117.697 6.47331 117.53 6.5166 117.353 6.5166ZM123.874 15H121.946L119.308 7.57617H121.167L122.876 13.0996H122.958L124.667 7.57617H126.526L123.874 15ZM130.648 15.1436C129.91 15.1436 129.27 14.9886 128.728 14.6787C128.185 14.3688 127.768 13.9268 127.477 13.3525C127.185 12.7783 127.039 12.1061 127.039 11.3359C127.039 10.5749 127.185 9.90267 127.477 9.31934C127.773 8.73145 128.185 8.27799 128.714 7.95898C129.243 7.63997 129.858 7.48047 130.56 7.48047C131.188 7.48047 131.758 7.61491 132.269 7.88379C132.779 8.15267 133.185 8.56738 133.485 9.12793C133.791 9.68848 133.943 10.3857 133.943 11.2197V11.7666H127.866V10.584H132.275C132.271 10.2513 132.198 9.9528 132.057 9.68848C131.92 9.4196 131.722 9.20996 131.462 9.05957C131.207 8.90918 130.913 8.83398 130.58 8.83398C130.225 8.83398 129.91 8.91829 129.637 9.08691C129.363 9.25553 129.149 9.4834 128.994 9.77051C128.844 10.0531 128.766 10.363 128.762 10.7002V11.7119C128.762 12.1449 128.841 12.5163 129.001 12.8262C129.16 13.1361 129.382 13.3753 129.664 13.5439C129.951 13.708 130.286 13.79 130.669 13.79C130.915 13.79 131.136 13.7559 131.332 13.6875C131.533 13.6191 131.701 13.528 131.838 13.4141C131.979 13.3001 132.089 13.168 132.166 13.0176H133.875C133.77 13.446 133.572 13.8219 133.28 14.1455C132.993 14.4645 132.624 14.7106 132.173 14.8838C131.726 15.057 131.218 15.1436 130.648 15.1436ZM135.311 7.57617H136.992V8.81348H137.074C137.202 8.38965 137.43 8.05924 137.758 7.82227C138.09 7.58529 138.471 7.4668 138.899 7.4668C139.214 7.47135 139.426 7.4873 139.535 7.51465V9.12109C139.439 9.08919 139.314 9.06413 139.159 9.0459C139.009 9.02767 138.863 9.01855 138.722 9.01855C138.403 9.01855 138.116 9.08691 137.86 9.22363C137.61 9.36035 137.411 9.55176 137.266 9.79785C137.12 10.0439 137.047 10.3219 137.047 10.6318V15H135.311V7.57617ZM144.785 9.68848C144.726 9.40592 144.582 9.1849 144.354 9.02539C144.131 8.86133 143.837 8.77702 143.473 8.77246C143.227 8.77246 143.006 8.8112 142.81 8.88867C142.614 8.96159 142.459 9.06641 142.345 9.20312C142.235 9.33529 142.181 9.48568 142.181 9.6543C142.181 9.85026 142.265 10.0189 142.434 10.1602C142.602 10.3014 142.871 10.4131 143.24 10.4951L144.505 10.7686C145.202 10.9189 145.722 11.1605 146.063 11.4932C146.41 11.8258 146.585 12.2542 146.59 12.7783C146.585 13.2432 146.453 13.6533 146.193 14.0088C145.938 14.3643 145.571 14.6423 145.093 14.8428C144.614 15.0433 144.058 15.1436 143.425 15.1436C142.8 15.1436 142.26 15.0547 141.805 14.877C141.349 14.6992 140.987 14.4417 140.718 14.1045C140.453 13.7673 140.292 13.3617 140.232 12.8877H142.003C142.058 13.2021 142.203 13.4391 142.44 13.5986C142.682 13.7536 143.008 13.8288 143.418 13.8242C143.696 13.8288 143.94 13.7946 144.149 13.7217C144.364 13.6488 144.525 13.5462 144.635 13.4141C144.749 13.2819 144.806 13.1224 144.806 12.9355C144.806 12.7214 144.719 12.5436 144.546 12.4023C144.373 12.2611 144.102 12.1494 143.732 12.0674L142.536 11.8213C141.853 11.68 141.333 11.4339 140.978 11.083C140.622 10.7275 140.444 10.2855 140.444 9.75684C140.444 9.30111 140.567 8.90234 140.813 8.56055C141.064 8.21419 141.415 7.94759 141.866 7.76074C142.322 7.57389 142.851 7.48047 143.452 7.48047C144.031 7.48047 144.537 7.57161 144.97 7.75391C145.407 7.93164 145.749 8.18685 145.995 8.51953C146.246 8.85221 146.392 9.24186 146.433 9.68848H144.785ZM147.93 7.57617H149.666V15H147.93V7.57617ZM148.798 6.5166C148.611 6.5166 148.44 6.47331 148.285 6.38672C148.135 6.30013 148.014 6.1862 147.923 6.04492C147.832 5.90365 147.786 5.74642 147.786 5.57324C147.786 5.40007 147.832 5.24056 147.923 5.09473C148.014 4.94889 148.135 4.83496 148.285 4.75293C148.44 4.6709 148.609 4.62988 148.791 4.62988C148.973 4.62988 149.142 4.6709 149.297 4.75293C149.452 4.83496 149.575 4.94889 149.666 5.09473C149.762 5.24056 149.81 5.40007 149.81 5.57324C149.81 5.74642 149.762 5.90365 149.666 6.04492C149.575 6.1862 149.452 6.30013 149.297 6.38672C149.142 6.47331 148.976 6.5166 148.798 6.5166ZM155.032 8.91602H150.78V7.57617H155.032V8.91602ZM153.576 5.79883V12.7715C153.576 12.9948 153.61 13.1702 153.679 13.2979C153.747 13.4209 153.838 13.5075 153.952 13.5576C154.071 13.6077 154.212 13.6328 154.376 13.6328C154.444 13.6374 154.526 13.6374 154.622 13.6328C154.722 13.6283 154.82 13.6237 154.916 13.6191L155.135 13.5986V15.0273C154.843 15.0775 154.515 15.1025 154.15 15.1025C153.704 15.1025 153.305 15.0273 152.954 14.877C152.603 14.722 152.327 14.4941 152.127 14.1934C151.931 13.888 151.833 13.5075 151.833 13.0518V5.79883H153.576ZM157.432 17.7891C156.98 17.7799 156.68 17.7686 156.529 17.7549V16.3535C156.657 16.3626 156.903 16.3717 157.268 16.3809C157.441 16.3763 157.587 16.3581 157.705 16.3262C157.824 16.2988 157.935 16.2259 158.04 16.1074C158.145 15.9889 158.243 15.8044 158.334 15.5537L158.491 15.1572L155.798 7.57617H157.644L159.359 13.1816H159.441L161.157 7.57617H163.017L160.036 15.8955C159.817 16.5153 159.496 16.9847 159.072 17.3037C158.653 17.6227 158.106 17.7845 157.432 17.7891ZM170.687 15.1436C169.971 15.1436 169.344 14.984 168.807 14.665C168.269 14.346 167.854 13.8994 167.562 13.3252C167.271 12.7464 167.125 12.0765 167.125 11.3154C167.125 10.5544 167.271 9.88444 167.562 9.30566C167.854 8.72689 168.269 8.27799 168.807 7.95898C169.344 7.63997 169.971 7.48047 170.687 7.48047C171.402 7.48047 172.029 7.63997 172.566 7.95898C173.104 8.27799 173.517 8.72689 173.804 9.30566C174.091 9.88444 174.234 10.5544 174.234 11.3154C174.234 12.0765 174.091 12.7464 173.804 13.3252C173.517 13.8994 173.104 14.346 172.566 14.665C172.029 14.984 171.402 15.1436 170.687 15.1436ZM170.7 13.7559C171.078 13.7559 171.402 13.6488 171.671 13.4346C171.94 13.2204 172.14 12.9287 172.272 12.5596C172.405 12.1904 172.471 11.7734 172.471 11.3086C172.471 10.8438 172.405 10.4268 172.272 10.0576C172.14 9.68848 171.94 9.39681 171.671 9.18262C171.402 8.96387 171.078 8.85449 170.7 8.85449C170.308 8.85449 169.976 8.96387 169.702 9.18262C169.429 9.39681 169.224 9.68848 169.087 10.0576C168.955 10.4268 168.886 10.8438 168.882 11.3086C168.886 11.7734 168.955 12.1904 169.087 12.5596C169.224 12.9287 169.429 13.2204 169.702 13.4346C169.976 13.6488 170.308 13.7559 170.7 13.7559ZM179.348 8.91602H174.966V7.57617H179.348V8.91602ZM176.066 6.86523C176.066 6.39128 176.16 5.98796 176.347 5.65527C176.538 5.32259 176.807 5.06966 177.153 4.89648C177.504 4.72331 177.917 4.63672 178.391 4.63672C178.591 4.63672 178.783 4.64811 178.965 4.6709C179.152 4.68913 179.327 4.71419 179.491 4.74609V6.12012C179.341 6.10645 179.179 6.09049 179.006 6.07227C178.979 6.07227 178.953 6.07227 178.931 6.07227C178.912 6.07227 178.892 6.07227 178.869 6.07227C178.509 6.07227 178.243 6.14974 178.069 6.30469C177.896 6.45508 177.81 6.69434 177.81 7.02246V15H176.066V6.86523ZM183.367 15L186.854 5.10156H189.048L192.534 15H190.634L187.988 7.125H187.906L185.261 15H183.367ZM190.552 11.1172V12.5459H185.336V11.1172H190.552ZM193.648 7.57617H195.33V8.81348H195.412C195.54 8.38965 195.768 8.05924 196.096 7.82227C196.428 7.58529 196.809 7.4668 197.237 7.4668C197.552 7.47135 197.764 7.4873 197.873 7.51465V9.12109C197.777 9.08919 197.652 9.06413 197.497 9.0459C197.347 9.02767 197.201 9.01855 197.06 9.01855C196.741 9.01855 196.453 9.08691 196.198 9.22363C195.948 9.36035 195.749 9.55176 195.604 9.79785C195.458 10.0439 195.385 10.3219 195.385 10.6318V15H193.648V7.57617ZM203.021 8.91602H198.769V7.57617H203.021V8.91602ZM201.564 5.79883V12.7715C201.564 12.9948 201.599 13.1702 201.667 13.2979C201.735 13.4209 201.826 13.5075 201.94 13.5576C202.059 13.6077 202.2 13.6328 202.364 13.6328C202.433 13.6374 202.515 13.6374 202.61 13.6328C202.711 13.6283 202.809 13.6237 202.904 13.6191L203.123 13.5986V15.0273C202.831 15.0775 202.503 15.1025 202.139 15.1025C201.692 15.1025 201.293 15.0273 200.942 14.877C200.591 14.722 200.316 14.4941 200.115 14.1934C199.919 13.888 199.821 13.5075 199.821 13.0518V5.79883H201.564ZM208.469 9.68848C208.41 9.40592 208.266 9.1849 208.038 9.02539C207.815 8.86133 207.521 8.77702 207.156 8.77246C206.91 8.77246 206.689 8.8112 206.493 8.88867C206.297 8.96159 206.142 9.06641 206.028 9.20312C205.919 9.33529 205.864 9.48568 205.864 9.6543C205.864 9.85026 205.949 10.0189 206.117 10.1602C206.286 10.3014 206.555 10.4131 206.924 10.4951L208.188 10.7686C208.886 10.9189 209.405 11.1605 209.747 11.4932C210.093 11.8258 210.269 12.2542 210.273 12.7783C210.269 13.2432 210.137 13.6533 209.877 14.0088C209.622 14.3643 209.255 14.6423 208.776 14.8428C208.298 15.0433 207.742 15.1436 207.108 15.1436C206.484 15.1436 205.944 15.0547 205.488 14.877C205.033 14.6992 204.67 14.4417 204.401 14.1045C204.137 13.7673 203.975 13.3617 203.916 12.8877H205.687C205.741 13.2021 205.887 13.4391 206.124 13.5986C206.366 13.7536 206.691 13.8288 207.102 13.8242C207.38 13.8288 207.623 13.7946 207.833 13.7217C208.047 13.6488 208.209 13.5462 208.318 13.4141C208.432 13.2819 208.489 13.1224 208.489 12.9355C208.489 12.7214 208.403 12.5436 208.229 12.4023C208.056 12.2611 207.785 12.1494 207.416 12.0674L206.22 11.8213C205.536 11.68 205.017 11.4339 204.661 11.083C204.306 10.7275 204.128 10.2855 204.128 9.75684C204.128 9.30111 204.251 8.90234 204.497 8.56055C204.748 8.21419 205.099 7.94759 205.55 7.76074C206.006 7.57389 206.534 7.48047 207.136 7.48047C207.715 7.48047 208.22 7.57161 208.653 7.75391C209.091 7.93164 209.433 8.18685 209.679 8.51953C209.929 8.85221 210.075 9.24186 210.116 9.68848H208.469Z" fill="black"/>
<path d="M1.76367 36V34.4551H4.18359C4.8763 34.4551 5.4528 34.3275 5.91309 34.0723C6.37337 33.8171 6.71973 33.4388 6.95215 32.9375C7.18457 32.4316 7.30078 31.8005 7.30078 31.0439C7.30078 30.2874 7.18457 29.6585 6.95215 29.1572C6.72428 28.6514 6.38249 28.2731 5.92676 28.0225C5.47559 27.7673 4.91276 27.6419 4.23828 27.6465H1.70898V26.1016H4.33398C5.3138 26.1016 6.15918 26.2975 6.87012 26.6895C7.58105 27.0814 8.12565 27.651 8.50391 28.3984C8.88216 29.1413 9.07129 30.0231 9.07129 31.0439C9.07129 32.0693 8.87988 32.9535 8.49707 33.6963C8.11882 34.4391 7.56966 35.0088 6.84961 35.4053C6.12956 35.8018 5.27051 36 4.27246 36H1.76367ZM2.7002 36H0.922852V26.1016H2.7002V36ZM13.877 36.1436C13.1387 36.1436 12.4984 35.9886 11.9561 35.6787C11.4137 35.3688 10.9967 34.9268 10.7051 34.3525C10.4134 33.7783 10.2676 33.1061 10.2676 32.3359C10.2676 31.5749 10.4134 30.9027 10.7051 30.3193C11.0013 29.7314 11.4137 29.278 11.9424 28.959C12.471 28.64 13.0863 28.4805 13.7881 28.4805C14.417 28.4805 14.9867 28.6149 15.4971 28.8838C16.0075 29.1527 16.4131 29.5674 16.7139 30.1279C17.0192 30.6885 17.1719 31.3857 17.1719 32.2197V32.7666H11.0947V31.584H15.5039C15.4993 31.2513 15.4264 30.9528 15.2852 30.6885C15.1484 30.4196 14.9502 30.21 14.6904 30.0596C14.4352 29.9092 14.1413 29.834 13.8086 29.834C13.4531 29.834 13.1387 29.9183 12.8652 30.0869C12.5918 30.2555 12.3776 30.4834 12.2227 30.7705C12.0723 31.0531 11.9948 31.363 11.9902 31.7002V32.7119C11.9902 33.1449 12.07 33.5163 12.2295 33.8262C12.389 34.1361 12.61 34.3753 12.8926 34.5439C13.1797 34.708 13.5146 34.79 13.8975 34.79C14.1436 34.79 14.3646 34.7559 14.5605 34.6875C14.7611 34.6191 14.9297 34.528 15.0664 34.4141C15.2077 34.3001 15.3171 34.168 15.3945 34.0176H17.1035C16.9987 34.446 16.8005 34.8219 16.5088 35.1455C16.2217 35.4645 15.8525 35.7106 15.4014 35.8838C14.9548 36.057 14.4466 36.1436 13.877 36.1436ZM22.7363 30.6885C22.6771 30.4059 22.5335 30.1849 22.3057 30.0254C22.0824 29.8613 21.7884 29.777 21.4238 29.7725C21.1777 29.7725 20.9567 29.8112 20.7607 29.8887C20.5648 29.9616 20.4098 30.0664 20.2959 30.2031C20.1865 30.3353 20.1318 30.4857 20.1318 30.6543C20.1318 30.8503 20.2161 31.0189 20.3848 31.1602C20.5534 31.3014 20.8223 31.4131 21.1914 31.4951L22.4561 31.7686C23.1533 31.9189 23.6729 32.1605 24.0146 32.4932C24.361 32.8258 24.5365 33.2542 24.541 33.7783C24.5365 34.2432 24.4043 34.6533 24.1445 35.0088C23.8893 35.3643 23.5225 35.6423 23.0439 35.8428C22.5654 36.0433 22.0094 36.1436 21.376 36.1436C20.7516 36.1436 20.2116 36.0547 19.7559 35.877C19.3001 35.6992 18.9378 35.4417 18.6689 35.1045C18.4046 34.7673 18.2428 34.3617 18.1836 33.8877H19.9541C20.0088 34.2021 20.1546 34.4391 20.3916 34.5986C20.6331 34.7536 20.959 34.8288 21.3691 34.8242C21.6471 34.8288 21.891 34.7946 22.1006 34.7217C22.3148 34.6488 22.4766 34.5462 22.5859 34.4141C22.6999 34.2819 22.7568 34.1224 22.7568 33.9355C22.7568 33.7214 22.6702 33.5436 22.4971 33.4023C22.3239 33.2611 22.0527 33.1494 21.6836 33.0674L20.4873 32.8213C19.8037 32.68 19.2842 32.4339 18.9287 32.083C18.5732 31.7275 18.3955 31.2855 18.3955 30.7568C18.3955 30.3011 18.5186 29.9023 18.7646 29.5605C19.0153 29.2142 19.3662 28.9476 19.8174 28.7607C20.2731 28.5739 20.8018 28.4805 21.4033 28.4805C21.9821 28.4805 22.488 28.5716 22.9209 28.7539C23.3584 28.9316 23.7002 29.1868 23.9463 29.5195C24.1969 29.8522 24.3428 30.2419 24.3838 30.6885H22.7363ZM25.8809 28.5762H27.6172V36H25.8809V28.5762ZM26.749 27.5166C26.5622 27.5166 26.3913 27.4733 26.2363 27.3867C26.0859 27.3001 25.9652 27.1862 25.874 27.0449C25.7829 26.9036 25.7373 26.7464 25.7373 26.5732C25.7373 26.4001 25.7829 26.2406 25.874 26.0947C25.9652 25.9489 26.0859 25.835 26.2363 25.7529C26.3913 25.6709 26.5599 25.6299 26.7422 25.6299C26.9245 25.6299 27.0931 25.6709 27.248 25.7529C27.403 25.835 27.526 25.9489 27.6172 26.0947C27.7129 26.2406 27.7607 26.4001 27.7607 26.5732C27.7607 26.7464 27.7129 26.9036 27.6172 27.0449C27.526 27.1862 27.403 27.3001 27.248 27.3867C27.0931 27.4733 26.9268 27.5166 26.749 27.5166ZM32.5186 38.9395C31.8714 38.9395 31.304 38.846 30.8164 38.6592C30.3288 38.4769 29.9437 38.2148 29.6611 37.873C29.3831 37.5312 29.2236 37.1279 29.1826 36.6631H30.9189C30.9827 36.9821 31.1559 37.2214 31.4385 37.3809C31.721 37.5404 32.0902 37.6201 32.5459 37.6201C33.0928 37.6201 33.5166 37.4948 33.8174 37.2441C34.1227 36.9935 34.2754 36.6061 34.2754 36.082V34.667H34.1865L34.1592 34.7217C34.0407 34.9404 33.8971 35.1318 33.7285 35.2959C33.5645 35.46 33.3411 35.6012 33.0586 35.7197C32.776 35.8382 32.4411 35.8975 32.0537 35.8975C31.4658 35.8929 30.9395 35.7516 30.4746 35.4736C30.0143 35.1956 29.6497 34.7809 29.3809 34.2295C29.1165 33.6781 28.9844 33.0081 28.9844 32.2197C28.9844 31.4359 29.1188 30.7614 29.3877 30.1963C29.6566 29.6312 30.0234 29.2051 30.4883 28.918C30.9531 28.6263 31.4749 28.4805 32.0537 28.4805C32.4365 28.4805 32.7646 28.5397 33.0381 28.6582C33.3115 28.7767 33.528 28.9225 33.6875 29.0957C33.8516 29.2643 33.9997 29.4626 34.1318 29.6904C34.1546 29.7223 34.1751 29.7588 34.1934 29.7998H34.2822V28.5762H35.998V36.123C35.998 36.7383 35.8499 37.2555 35.5537 37.6748C35.262 38.0986 34.8542 38.4154 34.3301 38.625C33.806 38.8346 33.2021 38.9395 32.5186 38.9395ZM32.5254 34.5234C32.8991 34.5234 33.2181 34.4323 33.4824 34.25C33.7467 34.0677 33.9473 33.8079 34.084 33.4707C34.2253 33.1289 34.2959 32.721 34.2959 32.2471C34.2913 31.7731 34.2207 31.3607 34.084 31.0098C33.9473 30.6589 33.7467 30.3877 33.4824 30.1963C33.2181 30.0049 32.8991 29.9092 32.5254 29.9092C32.1471 29.9092 31.8258 30.0072 31.5615 30.2031C31.2972 30.3991 31.0967 30.6748 30.96 31.0303C30.8278 31.3857 30.7617 31.7913 30.7617 32.2471C30.7617 32.7119 30.8301 33.1152 30.9668 33.457C31.1035 33.7943 31.3018 34.0563 31.5615 34.2432C31.8258 34.43 32.1471 34.5234 32.5254 34.5234ZM39.416 36H37.6797V28.5762H39.3408V29.834H39.4229C39.6006 29.4102 39.8786 29.0798 40.2568 28.8428C40.6351 28.6012 41.0954 28.4805 41.6377 28.4805C42.1527 28.4805 42.5993 28.5898 42.9775 28.8086C43.3604 29.0228 43.6543 29.3418 43.8594 29.7656C44.069 30.1849 44.1738 30.6862 44.1738 31.2695V36H42.4375V31.5361C42.4375 31.208 42.3805 30.9255 42.2666 30.6885C42.1527 30.4515 41.9863 30.2692 41.7676 30.1416C41.5534 30.014 41.2936 29.9502 40.9883 29.9502C40.6784 29.9502 40.4049 30.0163 40.168 30.1484C39.931 30.2806 39.7464 30.4766 39.6143 30.7363C39.4821 30.9915 39.416 31.2946 39.416 31.6455V36ZM50.1074 36V34.4551H52.5273C53.2201 34.4551 53.7965 34.3275 54.2568 34.0723C54.7171 33.8171 55.0635 33.4388 55.2959 32.9375C55.5283 32.4316 55.6445 31.8005 55.6445 31.0439C55.6445 30.2874 55.5283 29.6585 55.2959 29.1572C55.068 28.6514 54.7262 28.2731 54.2705 28.0225C53.8193 27.7673 53.2565 27.6419 52.582 27.6465H50.0527V26.1016H52.6777C53.6576 26.1016 54.5029 26.2975 55.2139 26.6895C55.9248 27.0814 56.4694 27.651 56.8477 28.3984C57.2259 29.1413 57.415 30.0231 57.415 31.0439C57.415 32.0693 57.2236 32.9535 56.8408 33.6963C56.4626 34.4391 55.9134 35.0088 55.1934 35.4053C54.4733 35.8018 53.6143 36 52.6162 36H50.1074ZM51.0439 36H49.2666V26.1016H51.0439V36ZM62.2207 36.1436C61.4824 36.1436 60.8421 35.9886 60.2998 35.6787C59.7575 35.3688 59.3405 34.9268 59.0488 34.3525C58.7572 33.7783 58.6113 33.1061 58.6113 32.3359C58.6113 31.5749 58.7572 30.9027 59.0488 30.3193C59.3451 29.7314 59.7575 29.278 60.2861 28.959C60.8148 28.64 61.43 28.4805 62.1318 28.4805C62.7607 28.4805 63.3304 28.6149 63.8408 28.8838C64.3512 29.1527 64.7568 29.5674 65.0576 30.1279C65.363 30.6885 65.5156 31.3857 65.5156 32.2197V32.7666H59.4385V31.584H63.8477C63.8431 31.2513 63.7702 30.9528 63.6289 30.6885C63.4922 30.4196 63.2939 30.21 63.0342 30.0596C62.779 29.9092 62.485 29.834 62.1523 29.834C61.7969 29.834 61.4824 29.9183 61.209 30.0869C60.9355 30.2555 60.7214 30.4834 60.5664 30.7705C60.416 31.0531 60.3385 31.363 60.334 31.7002V32.7119C60.334 33.1449 60.4137 33.5163 60.5732 33.8262C60.7327 34.1361 60.9538 34.3753 61.2363 34.5439C61.5234 34.708 61.8584 34.79 62.2412 34.79C62.4873 34.79 62.7083 34.7559 62.9043 34.6875C63.1048 34.6191 63.2734 34.528 63.4102 34.4141C63.5514 34.3001 63.6608 34.168 63.7383 34.0176H65.4473C65.3424 34.446 65.1442 34.8219 64.8525 35.1455C64.5654 35.4645 64.1963 35.7106 63.7451 35.8838C63.2985 36.057 62.7904 36.1436 62.2207 36.1436ZM66.8828 28.5762H68.585V29.7998H68.6943C68.7126 29.7588 68.7308 29.7246 68.749 29.6973C68.8721 29.474 69.0133 29.2757 69.1729 29.1025C69.3369 28.9294 69.5557 28.7835 69.8291 28.665C70.1025 28.542 70.4307 28.4805 70.8135 28.4805C71.3968 28.4805 71.9209 28.6286 72.3857 28.9248C72.8506 29.2165 73.2152 29.6517 73.4795 30.2305C73.7438 30.8092 73.876 31.4974 73.876 32.2949C73.876 33.0924 73.7438 33.7806 73.4795 34.3594C73.2197 34.9336 72.8574 35.3734 72.3926 35.6787C71.9323 35.9795 71.4082 36.1299 70.8203 36.1299C70.4375 36.1299 70.1048 36.0684 69.8223 35.9453C69.5443 35.8177 69.321 35.6673 69.1523 35.4941C68.9883 35.3164 68.8447 35.1136 68.7217 34.8857L68.6943 34.8311H68.6191V38.7891H66.8828V28.5762ZM68.5781 32.2812C68.5781 32.7643 68.6488 33.1882 68.79 33.5527C68.9313 33.9128 69.1318 34.1953 69.3916 34.4004C69.6559 34.6009 69.9727 34.7012 70.3418 34.7012C70.7201 34.7012 71.0413 34.5986 71.3057 34.3936C71.5745 34.1839 71.7751 33.8991 71.9072 33.5391C72.0439 33.1745 72.1123 32.7552 72.1123 32.2812C72.1123 31.8164 72.0439 31.404 71.9072 31.0439C71.7751 30.6839 71.5745 30.4059 71.3057 30.21C71.0413 30.0094 70.7201 29.9092 70.3418 29.9092C69.9681 29.9092 69.6491 30.0049 69.3848 30.1963C69.1204 30.3877 68.9199 30.6634 68.7832 31.0234C68.6465 31.3789 68.5781 31.7982 68.5781 32.2812ZM78.9482 29.916H74.6963V28.5762H78.9482V29.916ZM77.4922 26.7988V33.7715C77.4922 33.9948 77.5264 34.1702 77.5947 34.2979C77.6631 34.4209 77.7542 34.5075 77.8682 34.5576C77.9867 34.6077 78.1279 34.6328 78.292 34.6328C78.3604 34.6374 78.4424 34.6374 78.5381 34.6328C78.6383 34.6283 78.7363 34.6237 78.832 34.6191L79.0508 34.5986V36.0273C78.7591 36.0775 78.431 36.1025 78.0664 36.1025C77.6198 36.1025 77.221 36.0273 76.8701 35.877C76.5192 35.722 76.2435 35.4941 76.043 35.1934C75.847 34.888 75.749 34.5075 75.749 34.0518V26.7988H77.4922ZM81.375 36.1094C81.179 36.1094 80.999 36.0615 80.835 35.9658C80.6755 35.8701 80.5479 35.7402 80.4521 35.5762C80.3564 35.4121 80.3109 35.2344 80.3154 35.043C80.3109 34.8561 80.3564 34.6829 80.4521 34.5234C80.5479 34.3594 80.6755 34.2318 80.835 34.1406C80.999 34.0449 81.179 33.9971 81.375 33.9971C81.5618 33.9971 81.735 34.0449 81.8945 34.1406C82.0586 34.2318 82.1885 34.3594 82.2842 34.5234C82.3799 34.6829 82.4277 34.8561 82.4277 35.043C82.4277 35.2344 82.3799 35.4121 82.2842 35.5762C82.1885 35.7402 82.0586 35.8701 81.8945 35.9658C81.735 36.0615 81.5618 36.1094 81.375 36.1094Z" fill="black" fill-opacity="0.4"/>
</svg>
