<svg width="35" height="36" viewBox="0 0 35 36" fill="none" xmlns="http://www.w3.org/2000/svg">
<path d="M17.6928 9.3291C22.5503 9.3291 26.5597 13.3385 26.5597 18.1961C26.5597 23.1307 22.5503 27.063 17.6928 27.063C12.7581 27.063 8.82583 23.1307 8.82583 18.1961C8.82583 13.3385 12.7581 9.3291 17.6928 9.3291ZM17.6928 23.9788C20.854 23.9788 23.3985 21.4344 23.3985 18.1961C23.3985 15.0348 20.854 12.4904 17.6928 12.4904C14.4544 12.4904 11.91 15.0348 11.91 18.1961C11.91 21.4344 14.5315 23.9788 17.6928 23.9788ZM28.9499 9.02069C28.9499 10.1772 28.0247 11.1025 26.8681 11.1025C25.7116 11.1025 24.7863 10.1772 24.7863 9.02069C24.7863 7.86413 25.7116 6.93888 26.8681 6.93888C28.0247 6.93888 28.9499 7.86413 28.9499 9.02069ZM34.8098 11.1025C34.9641 13.9553 34.9641 22.5139 34.8098 25.3667C34.6556 28.1425 34.0388 30.5327 32.0341 32.6145C30.0294 34.6192 27.5621 35.236 24.7863 35.3902C21.9335 35.5444 13.375 35.5444 10.5221 35.3902C7.74637 35.236 5.35615 34.6192 3.27435 32.6145C1.26964 30.5327 0.652813 28.1425 0.498605 25.3667C0.344397 22.5139 0.344397 13.9553 0.498605 11.1025C0.652813 8.32675 1.26964 5.85943 3.27435 3.85472C5.35615 1.85002 7.74637 1.23319 10.5221 1.07898C13.375 0.924775 21.9335 0.924775 24.7863 1.07898C27.5621 1.23319 30.0294 1.85002 32.0341 3.85472C34.0388 5.85943 34.6556 8.32675 34.8098 11.1025ZM31.1089 28.3738C32.0341 26.1378 31.8028 20.7405 31.8028 18.1961C31.8028 15.7287 32.0341 10.3315 31.1089 8.01833C30.492 6.55336 29.3355 5.3197 27.8705 4.77997C25.5574 3.85472 20.1601 4.08604 17.6928 4.08604C15.1483 4.08604 9.75107 3.85472 7.51506 4.77997C5.97298 5.3968 4.81642 6.55336 4.19959 8.01833C3.27435 10.3315 3.50566 15.7287 3.50566 18.1961C3.50566 20.7405 3.27435 26.1378 4.19959 28.3738C4.81642 29.9158 5.97298 31.0724 7.51506 31.6892C9.75107 32.6145 15.1483 32.3832 17.6928 32.3832C20.1601 32.3832 25.5574 32.6145 27.8705 31.6892C29.3355 31.0724 30.5691 29.9158 31.1089 28.3738Z" fill="black"/>
</svg>
