<svg width="current" height="current" viewBox="0 0 134 14" fill="none" xmlns="http://www.w3.org/2000/svg">
<path d="M6.732 7.96V6.484H11.898V13H10.908L10.584 11.83H10.35C9.468 12.604 8.388 13.09 6.93 13.09C3.546 13.09 1.08 10.39 1.08 6.7C1.08 3.01 3.564 0.309999 6.894 0.309999C10.152 0.309999 11.718 2.92 11.898 4H10.134C9.792 3.118 8.676 1.822 6.768 1.822C4.32 1.822 2.79 3.928 2.79 6.7C2.79 9.454 4.284 11.578 6.84 11.578C8.262 11.578 9.612 10.912 10.314 9.904V7.96H6.732ZM20.4552 13.09C17.1432 13.09 14.2812 10.39 14.2812 6.7C14.2812 3.01 17.1432 0.309999 20.4372 0.309999C23.7312 0.309999 26.5932 3.01 26.5932 6.7C26.5932 10.39 23.7492 13.09 20.4552 13.09ZM20.4552 11.506C23.0832 11.506 24.9012 9.472 24.9012 6.7C24.9012 3.928 23.0652 1.894 20.4372 1.894C17.8272 1.894 15.9912 3.928 15.9912 6.7C15.9912 9.472 17.8272 11.506 20.4552 11.506ZM41.0282 0.399999V1.966H37.6262V13H35.9342V1.966H32.5322V0.399999H41.0282ZM48.1407 13.09C44.8287 13.09 41.9667 10.39 41.9667 6.7C41.9667 3.01 44.8287 0.309999 48.1227 0.309999C51.4167 0.309999 54.2787 3.01 54.2787 6.7C54.2787 10.39 51.4347 13.09 48.1407 13.09ZM48.1407 11.506C50.7687 11.506 52.5867 9.472 52.5867 6.7C52.5867 3.928 50.7507 1.894 48.1227 1.894C45.5127 1.894 43.6767 3.928 43.6767 6.7C43.6767 9.472 45.5127 11.506 48.1407 11.506ZM70.5773 13H68.5973L64.1333 7.294H63.0713V13H61.4693V0.399999H63.0713V5.746H64.1333L68.0753 0.399999H70.0373L65.5733 6.52L70.5773 13ZM80.5167 13L79.4547 9.706H74.3067L73.2447 13H71.4987L75.7467 0.399999H78.0147L82.2627 13H80.5167ZM76.7727 2.092L74.8107 8.176H78.9507L76.9887 2.092H76.7727ZM93.2317 13H91.4137L88.0837 7.96H85.8157V13H84.2857V0.399999H88.6417C90.7117 0.399999 92.6377 1.696 92.6377 4.09C92.6377 6.016 91.3957 7.348 89.8297 7.798L93.2317 13ZM85.8157 1.876V6.484H88.4617C89.7217 6.484 91.0537 5.764 91.0537 4.09C91.0537 2.416 89.7037 1.876 88.4617 1.876H85.8157ZM102.552 0.399999V1.966H99.1496V13H97.4576V1.966H94.0556V0.399999H102.552ZM113.032 9.724C113.032 11.884 111.07 13.09 108.856 13.09C106.066 13.09 104.158 11.2 104.158 9.202H105.778C105.886 10.624 107.344 11.542 108.874 11.542C109.972 11.542 111.358 11.056 111.358 9.742C111.358 8.59 110.278 8.086 108.586 7.402C106.786 6.682 104.5 5.8 104.5 3.604C104.5 1.624 106.372 0.291999 108.568 0.291999C111.142 0.291999 112.672 2.128 112.672 3.73H111.052C110.944 2.758 110.08 1.84 108.514 1.84C107.11 1.84 106.174 2.578 106.174 3.496C106.174 4.72 107.866 5.332 108.91 5.764C110.782 6.538 113.032 7.42 113.032 9.724Z" fill="black"/>
<path d="M123.132 11.2539C122.858 11.7334 123.024 12.3442 123.504 12.6182C123.983 12.8923 124.594 12.7257 124.868 12.2461L123.132 11.2539ZM130.965 0.986883C130.819 0.454058 130.27 0.13992 129.737 0.285236L121.054 2.65329C120.521 2.79861 120.207 3.34835 120.352 3.88117C120.498 4.414 121.047 4.72814 121.58 4.58282L129.298 2.47788L131.403 10.196C131.549 10.7288 132.098 11.043 132.631 10.8976C133.164 10.7523 133.478 10.2026 133.333 9.66976L130.965 0.986883ZM124.868 12.2461L130.868 1.74614L129.132 0.753861L123.132 11.2539L124.868 12.2461Z" fill="black"/>
</svg>
