<svg width="136" height="15" viewBox="0 0 136 15" fill="none" xmlns="http://www.w3.org/2000/svg">
<path d="M6.732 8.96V7.484H11.898V14H10.908L10.584 12.83H10.35C9.468 13.604 8.388 14.09 6.93 14.09C3.546 14.09 1.08 11.39 1.08 7.7C1.08 4.01 3.564 1.31 6.894 1.31C10.152 1.31 11.718 3.92 11.898 5H10.134C9.792 4.118 8.676 2.822 6.768 2.822C4.32 2.822 2.79 4.928 2.79 7.7C2.79 10.454 4.284 12.578 6.84 12.578C8.262 12.578 9.612 11.912 10.314 10.904V8.96H6.732ZM20.4552 14.09C17.1432 14.09 14.2812 11.39 14.2812 7.7C14.2812 4.01 17.1432 1.31 20.4372 1.31C23.7312 1.31 26.5932 4.01 26.5932 7.7C26.5932 11.39 23.7492 14.09 20.4552 14.09ZM20.4552 12.506C23.0832 12.506 24.9012 10.472 24.9012 7.7C24.9012 4.928 23.0652 2.894 20.4372 2.894C17.8272 2.894 15.9912 4.928 15.9912 7.7C15.9912 10.472 17.8272 12.506 20.4552 12.506ZM41.0282 1.4V2.966H37.6262V14H35.9342V2.966H32.5322V1.4H41.0282ZM48.1407 14.09C44.8287 14.09 41.9667 11.39 41.9667 7.7C41.9667 4.01 44.8287 1.31 48.1227 1.31C51.4167 1.31 54.2787 4.01 54.2787 7.7C54.2787 11.39 51.4347 14.09 48.1407 14.09ZM48.1407 12.506C50.7687 12.506 52.5867 10.472 52.5867 7.7C52.5867 4.928 50.7507 2.894 48.1227 2.894C45.5127 2.894 43.6767 4.928 43.6767 7.7C43.6767 10.472 45.5127 12.506 48.1407 12.506ZM70.5773 14H68.5973L64.1333 8.294H63.0713V14H61.4693V1.4H63.0713V6.746H64.1333L68.0753 1.4H70.0373L65.5733 7.52L70.5773 14ZM80.5167 14L79.4547 10.706H74.3067L73.2447 14H71.4987L75.7467 1.4H78.0147L82.2627 14H80.5167ZM76.7727 3.092L74.8107 9.176H78.9507L76.9887 3.092H76.7727ZM93.2317 14H91.4137L88.0837 8.96H85.8157V14H84.2857V1.4H88.6417C90.7117 1.4 92.6377 2.696 92.6377 5.09C92.6377 7.016 91.3957 8.348 89.8297 8.798L93.2317 14ZM85.8157 2.876V7.484H88.4617C89.7217 7.484 91.0537 6.764 91.0537 5.09C91.0537 3.416 89.7037 2.876 88.4617 2.876H85.8157ZM102.552 1.4V2.966H99.1496V14H97.4576V2.966H94.0556V1.4H102.552ZM113.032 10.724C113.032 12.884 111.07 14.09 108.856 14.09C106.066 14.09 104.158 12.2 104.158 10.202H105.778C105.886 11.624 107.344 12.542 108.874 12.542C109.972 12.542 111.358 12.056 111.358 10.742C111.358 9.59 110.278 9.086 108.586 8.402C106.786 7.682 104.5 6.8 104.5 4.604C104.5 2.624 106.372 1.292 108.568 1.292C111.142 1.292 112.672 3.128 112.672 4.73H111.052C110.944 3.758 110.08 2.84 108.514 2.84C107.11 2.84 106.174 3.578 106.174 4.496C106.174 5.72 107.866 6.332 108.91 6.764C110.782 7.538 113.032 8.42 113.032 10.724Z" fill="black"/>
<path d="M122 1H135V14" stroke="black" stroke-width="1.75" stroke-miterlimit="10"/>
<path d="M122 14L135 1" stroke="black" stroke-width="1.75" stroke-miterlimit="10"/>
</svg>
