<svg width="415" height="16" viewBox="0 0 415 16" fill="none" xmlns="http://www.w3.org/2000/svg">
<path d="M5.536 12.192C4.61867 12.192 3.81333 12.016 3.12 11.664C2.43733 11.3013 1.904 10.7573 1.52 10.032C1.14667 9.30667 0.96 8.38933 0.96 7.28V5.52C0.96 4.41067 1.14667 3.49333 1.52 2.768C1.904 2.04267 2.43733 1.504 3.12 1.152C3.81333 0.789333 4.61867 0.608 5.536 0.608H5.744C6.672 0.608 7.47733 0.789333 8.16 1.152C8.84267 1.504 9.37067 2.04267 9.744 2.768C10.1173 3.49333 10.304 4.41067 10.304 5.52V7.28C10.304 8.38933 10.1173 9.30667 9.744 10.032C9.37067 10.7573 8.84267 11.3013 8.16 11.664C7.47733 12.016 6.672 12.192 5.744 12.192H5.536ZM5.568 11.152H5.728C6.816 11.152 7.664 10.8427 8.272 10.224C8.89067 9.59467 9.2 8.61333 9.2 7.28V5.52C9.2 4.18667 8.89067 3.21067 8.272 2.592C7.664 1.96267 6.816 1.648 5.728 1.648H5.568C4.46933 1.648 3.61067 1.96267 2.992 2.592C2.384 3.21067 2.08 4.18667 2.08 5.52V7.28C2.08 8.61333 2.384 9.59467 2.992 10.224C3.61067 10.8427 4.46933 11.152 5.568 11.152ZM5.728 9.872C5.00267 9.872 4.42667 9.65867 4 9.232C3.584 8.80533 3.376 8.176 3.376 7.344V5.488C3.376 4.63467 3.58933 3.98933 4.016 3.552C4.45333 3.11467 5.01333 2.896 5.696 2.896C6.432 2.896 6.992 3.11467 7.376 3.552C7.76 3.97867 7.952 4.53333 7.952 5.216V5.52H6.848V5.12C6.848 4.77867 6.76267 4.49067 6.592 4.256C6.42133 4.02133 6.128 3.904 5.712 3.904C5.36 3.904 5.06667 4.02133 4.832 4.256C4.59733 4.48 4.48 4.81067 4.48 5.248V7.584C4.48 8 4.60267 8.31467 4.848 8.528C5.09333 8.74133 5.38133 8.848 5.712 8.848C6.07467 8.848 6.352 8.74667 6.544 8.544C6.74667 8.34133 6.848 8.02667 6.848 7.6V7.264H7.952V7.568C7.952 8.25067 7.76533 8.80533 7.392 9.232C7.01867 9.65867 6.464 9.872 5.728 9.872ZM16.655 12V0.799999H17.999V5.68H18.223L22.959 0.799999H24.751L19.295 6.336L24.943 12H23.103L18.223 7.024H17.999V12H16.655ZM29.7565 12.224C28.9672 12.224 28.2685 12.0587 27.6605 11.728C27.0632 11.3973 26.5938 10.9333 26.2525 10.336C25.9218 9.728 25.7565 9.01333 25.7565 8.192V7.984C25.7565 7.17333 25.9218 6.464 26.2525 5.856C26.5938 5.248 27.0632 4.77867 27.6605 4.448C28.2685 4.11733 28.9672 3.952 29.7565 3.952C30.5458 3.952 31.2392 4.11733 31.8365 4.448C32.4445 4.77867 32.9138 5.248 33.2445 5.856C33.5858 6.464 33.7565 7.17333 33.7565 7.984V8.192C33.7565 9.01333 33.5858 9.728 33.2445 10.336C32.9138 10.9333 32.4445 11.3973 31.8365 11.728C31.2392 12.0587 30.5458 12.224 29.7565 12.224ZM29.7565 11.088C30.5885 11.088 31.2498 10.8267 31.7405 10.304C32.2418 9.77067 32.4925 9.056 32.4925 8.16V8.016C32.4925 7.12 32.2418 6.41067 31.7405 5.888C31.2498 5.35467 30.5885 5.088 29.7565 5.088C28.9352 5.088 28.2738 5.35467 27.7725 5.888C27.2712 6.41067 27.0205 7.12 27.0205 8.016V8.16C27.0205 9.056 27.2712 9.77067 27.7725 10.304C28.2738 10.8267 28.9352 11.088 29.7565 11.088ZM36.0311 12V4.176H37.2631V5.136H37.4871C37.6258 4.79467 37.8391 4.544 38.1271 4.384C38.4151 4.224 38.7938 4.144 39.2631 4.144H40.1911V5.296H39.1831C38.6178 5.296 38.1591 5.456 37.8071 5.776C37.4658 6.08533 37.2951 6.57067 37.2951 7.232V12H36.0311ZM45.3651 12.224C44.5758 12.224 43.8825 12.0587 43.2851 11.728C42.6878 11.3867 42.2238 10.912 41.8931 10.304C41.5625 9.696 41.3971 8.992 41.3971 8.192V8C41.3971 7.18933 41.5625 6.48 41.8931 5.872C42.2238 5.264 42.6825 4.79467 43.2691 4.464C43.8558 4.12267 44.5278 3.952 45.2851 3.952C46.0211 3.952 46.6718 4.112 47.2371 4.432C47.8025 4.74133 48.2451 5.18933 48.5651 5.776C48.8851 6.36267 49.0451 7.05067 49.0451 7.84V8.416H42.6611C42.6931 9.25867 42.9651 9.92 43.4771 10.4C43.9891 10.8693 44.6291 11.104 45.3971 11.104C46.0691 11.104 46.5865 10.9493 46.9491 10.64C47.3118 10.3307 47.5891 9.96267 47.7811 9.536L48.8691 10.064C48.7091 10.3947 48.4851 10.7253 48.1971 11.056C47.9198 11.3867 47.5518 11.664 47.0931 11.888C46.6451 12.112 46.0691 12.224 45.3651 12.224ZM42.6771 7.376H47.7651C47.7225 6.65067 47.4718 6.08533 47.0131 5.68C46.5651 5.27467 45.9891 5.072 45.2851 5.072C44.5705 5.072 43.9838 5.27467 43.5251 5.68C43.0665 6.08533 42.7838 6.65067 42.6771 7.376ZM53.6499 12.224C53.1059 12.224 52.6099 12.128 52.1619 11.936C51.7139 11.744 51.3619 11.4667 51.1059 11.104C50.8499 10.7413 50.7219 10.2987 50.7219 9.776C50.7219 9.24267 50.8499 8.80533 51.1059 8.464C51.3619 8.112 51.7139 7.85067 52.1619 7.68C52.6099 7.49867 53.1112 7.408 53.6659 7.408H56.3059V6.832C56.3059 6.27733 56.1405 5.84 55.8099 5.52C55.4899 5.2 55.0099 5.04 54.3699 5.04C53.7405 5.04 53.2499 5.19467 52.8979 5.504C52.5459 5.80267 52.3059 6.208 52.1779 6.72L50.9939 6.336C51.1219 5.89867 51.3245 5.504 51.6019 5.152C51.8792 4.78933 52.2472 4.50133 52.7059 4.288C53.1752 4.064 53.7352 3.952 54.3859 3.952C55.3885 3.952 56.1672 4.21333 56.7219 4.736C57.2765 5.248 57.5539 5.97333 57.5539 6.912V10.448C57.5539 10.768 57.7032 10.928 58.0019 10.928H58.7219V12H57.6179C57.2659 12 56.9832 11.904 56.7699 11.712C56.5565 11.5093 56.4499 11.2427 56.4499 10.912V10.832H56.2579C56.1405 11.0347 55.9805 11.248 55.7779 11.472C55.5859 11.6853 55.3192 11.8613 54.9779 12C54.6365 12.1493 54.1939 12.224 53.6499 12.224ZM53.7939 11.136C54.5405 11.136 55.1432 10.9173 55.6019 10.48C56.0712 10.032 56.3059 9.408 56.3059 8.608V8.432H53.7139C53.2125 8.432 52.7965 8.544 52.4659 8.768C52.1459 8.98133 51.9859 9.30667 51.9859 9.744C51.9859 10.1813 52.1512 10.5227 52.4819 10.768C52.8232 11.0133 53.2605 11.136 53.7939 11.136ZM64.5144 12V0.799999H67.1224L71.0264 11.152H71.2344V0.799999H72.5624V12H69.9544L66.0664 1.632H65.8424V12H64.5144ZM77.5874 12.224C77.0434 12.224 76.5474 12.128 76.0994 11.936C75.6514 11.744 75.2994 11.4667 75.0434 11.104C74.7874 10.7413 74.6594 10.2987 74.6594 9.776C74.6594 9.24267 74.7874 8.80533 75.0434 8.464C75.2994 8.112 75.6514 7.85067 76.0994 7.68C76.5474 7.49867 77.0487 7.408 77.6034 7.408H80.2434V6.832C80.2434 6.27733 80.078 5.84 79.7474 5.52C79.4274 5.2 78.9474 5.04 78.3074 5.04C77.678 5.04 77.1874 5.19467 76.8354 5.504C76.4834 5.80267 76.2434 6.208 76.1154 6.72L74.9314 6.336C75.0594 5.89867 75.262 5.504 75.5394 5.152C75.8167 4.78933 76.1847 4.50133 76.6434 4.288C77.1127 4.064 77.6727 3.952 78.3234 3.952C79.326 3.952 80.1047 4.21333 80.6594 4.736C81.214 5.248 81.4914 5.97333 81.4914 6.912V10.448C81.4914 10.768 81.6407 10.928 81.9394 10.928H82.6594V12H81.5554C81.2034 12 80.9207 11.904 80.7074 11.712C80.494 11.5093 80.3874 11.2427 80.3874 10.912V10.832H80.1954C80.078 11.0347 79.918 11.248 79.7154 11.472C79.5234 11.6853 79.2567 11.8613 78.9154 12C78.574 12.1493 78.1314 12.224 77.5874 12.224ZM77.7314 11.136C78.478 11.136 79.0807 10.9173 79.5394 10.48C80.0087 10.032 80.2434 9.408 80.2434 8.608V8.432H77.6514C77.15 8.432 76.734 8.544 76.4034 8.768C76.0834 8.98133 75.9234 9.30667 75.9234 9.744C75.9234 10.1813 76.0887 10.5227 76.4194 10.768C76.7607 11.0133 77.198 11.136 77.7314 11.136ZM86.7549 12C86.3069 12 85.9602 11.8773 85.7149 11.632C85.4802 11.3867 85.3629 11.0507 85.3629 10.624V5.28H83.0109V4.176H85.3629V1.392H86.6269V4.176H89.1869V5.28H86.6269V10.432C86.6269 10.752 86.7815 10.912 87.0909 10.912H88.8349V12H86.7549ZM91.2343 12V4.176H92.4983V12H91.2343ZM91.8743 2.96C91.5969 2.96 91.3623 2.86933 91.1703 2.688C90.9889 2.50667 90.8983 2.27733 90.8983 2C90.8983 1.712 90.9889 1.47733 91.1703 1.296C91.3623 1.11467 91.5969 1.024 91.8743 1.024C92.1516 1.024 92.3809 1.11467 92.5623 1.296C92.7436 1.47733 92.8343 1.712 92.8343 2C92.8343 2.27733 92.7436 2.50667 92.5623 2.688C92.3809 2.86933 92.1516 2.96 91.8743 2.96ZM98.7721 12.224C97.9828 12.224 97.2841 12.0587 96.6761 11.728C96.0788 11.3973 95.6095 10.9333 95.2681 10.336C94.9375 9.728 94.7721 9.01333 94.7721 8.192V7.984C94.7721 7.17333 94.9375 6.464 95.2681 5.856C95.6095 5.248 96.0788 4.77867 96.6761 4.448C97.2841 4.11733 97.9828 3.952 98.7721 3.952C99.5615 3.952 100.255 4.11733 100.852 4.448C101.46 4.77867 101.929 5.248 102.26 5.856C102.601 6.464 102.772 7.17333 102.772 7.984V8.192C102.772 9.01333 102.601 9.728 102.26 10.336C101.929 10.9333 101.46 11.3973 100.852 11.728C100.255 12.0587 99.5615 12.224 98.7721 12.224ZM98.7721 11.088C99.6041 11.088 100.265 10.8267 100.756 10.304C101.257 9.77067 101.508 9.056 101.508 8.16V8.016C101.508 7.12 101.257 6.41067 100.756 5.888C100.265 5.35467 99.6041 5.088 98.7721 5.088C97.9508 5.088 97.2895 5.35467 96.7881 5.888C96.2868 6.41067 96.0361 7.12 96.0361 8.016V8.16C96.0361 9.056 96.2868 9.77067 96.7881 10.304C97.2895 10.8267 97.9508 11.088 98.7721 11.088ZM105.047 12V4.176H106.279V5.504H106.503C106.673 5.13067 106.961 4.79467 107.367 4.496C107.783 4.18667 108.391 4.032 109.191 4.032C109.777 4.032 110.3 4.15467 110.759 4.4C111.228 4.64533 111.601 5.008 111.879 5.488C112.156 5.968 112.295 6.56 112.295 7.264V12H111.031V7.36C111.031 6.58133 110.833 6.016 110.439 5.664C110.055 5.312 109.532 5.136 108.871 5.136C108.113 5.136 107.495 5.38133 107.015 5.872C106.545 6.36267 106.311 7.09333 106.311 8.064V12H105.047ZM117.259 12.224C116.715 12.224 116.219 12.128 115.771 11.936C115.323 11.744 114.971 11.4667 114.715 11.104C114.459 10.7413 114.331 10.2987 114.331 9.776C114.331 9.24267 114.459 8.80533 114.715 8.464C114.971 8.112 115.323 7.85067 115.771 7.68C116.219 7.49867 116.721 7.408 117.275 7.408H119.915V6.832C119.915 6.27733 119.75 5.84 119.419 5.52C119.099 5.2 118.619 5.04 117.979 5.04C117.35 5.04 116.859 5.19467 116.507 5.504C116.155 5.80267 115.915 6.208 115.787 6.72L114.603 6.336C114.731 5.89867 114.934 5.504 115.211 5.152C115.489 4.78933 115.857 4.50133 116.315 4.288C116.785 4.064 117.345 3.952 117.995 3.952C118.998 3.952 119.777 4.21333 120.331 4.736C120.886 5.248 121.163 5.97333 121.163 6.912V10.448C121.163 10.768 121.313 10.928 121.611 10.928H122.331V12H121.227C120.875 12 120.593 11.904 120.379 11.712C120.166 11.5093 120.059 11.2427 120.059 10.912V10.832H119.867C119.75 11.0347 119.59 11.248 119.387 11.472C119.195 11.6853 118.929 11.8613 118.587 12C118.246 12.1493 117.803 12.224 117.259 12.224ZM117.403 11.136C118.15 11.136 118.753 10.9173 119.211 10.48C119.681 10.032 119.915 9.408 119.915 8.608V8.432H117.323C116.822 8.432 116.406 8.544 116.075 8.768C115.755 8.98133 115.595 9.30667 115.595 9.744C115.595 10.1813 115.761 10.5227 116.091 10.768C116.433 11.0133 116.87 11.136 117.403 11.136ZM124.062 12V0.799999H125.326V12H124.062ZM136.094 12.224C135.262 12.224 134.536 12.0747 133.918 11.776C133.299 11.4773 132.819 11.0347 132.478 10.448C132.136 9.85067 131.966 9.12 131.966 8.256V0.799999H133.294V8.272C133.294 9.18933 133.539 9.87733 134.03 10.336C134.52 10.7947 135.208 11.024 136.094 11.024C136.979 11.024 137.667 10.7947 138.158 10.336C138.648 9.87733 138.894 9.18933 138.894 8.272V0.799999H140.238V8.256C140.238 9.12 140.067 9.85067 139.726 10.448C139.384 11.0347 138.899 11.4773 138.27 11.776C137.651 12.0747 136.926 12.224 136.094 12.224ZM142.75 12V4.176H143.982V5.504H144.206C144.377 5.13067 144.665 4.79467 145.07 4.496C145.486 4.18667 146.094 4.032 146.894 4.032C147.481 4.032 148.003 4.15467 148.462 4.4C148.931 4.64533 149.305 5.008 149.582 5.488C149.859 5.968 149.998 6.56 149.998 7.264V12H148.734V7.36C148.734 6.58133 148.537 6.016 148.142 5.664C147.758 5.312 147.235 5.136 146.574 5.136C145.817 5.136 145.198 5.38133 144.718 5.872C144.249 6.36267 144.014 7.09333 144.014 8.064V12H142.75ZM152.562 12V4.176H153.826V12H152.562ZM153.202 2.96C152.925 2.96 152.69 2.86933 152.498 2.688C152.317 2.50667 152.226 2.27733 152.226 2C152.226 1.712 152.317 1.47733 152.498 1.296C152.69 1.11467 152.925 1.024 153.202 1.024C153.48 1.024 153.709 1.11467 153.89 1.296C154.072 1.47733 154.162 1.712 154.162 2C154.162 2.27733 154.072 2.50667 153.89 2.688C153.709 2.86933 153.48 2.96 153.202 2.96ZM158.468 12L155.668 4.176H157.012L159.364 11.056H159.588L161.94 4.176H163.284L160.484 12H158.468ZM168.365 12.224C167.576 12.224 166.882 12.0587 166.285 11.728C165.688 11.3867 165.224 10.912 164.893 10.304C164.562 9.696 164.397 8.992 164.397 8.192V8C164.397 7.18933 164.562 6.48 164.893 5.872C165.224 5.264 165.682 4.79467 166.269 4.464C166.856 4.12267 167.528 3.952 168.285 3.952C169.021 3.952 169.672 4.112 170.237 4.432C170.802 4.74133 171.245 5.18933 171.565 5.776C171.885 6.36267 172.045 7.05067 172.045 7.84V8.416H165.661C165.693 9.25867 165.965 9.92 166.477 10.4C166.989 10.8693 167.629 11.104 168.397 11.104C169.069 11.104 169.586 10.9493 169.949 10.64C170.312 10.3307 170.589 9.96267 170.781 9.536L171.869 10.064C171.709 10.3947 171.485 10.7253 171.197 11.056C170.92 11.3867 170.552 11.664 170.093 11.888C169.645 12.112 169.069 12.224 168.365 12.224ZM165.677 7.376H170.765C170.722 6.65067 170.472 6.08533 170.013 5.68C169.565 5.27467 168.989 5.072 168.285 5.072C167.57 5.072 166.984 5.27467 166.525 5.68C166.066 6.08533 165.784 6.65067 165.677 7.376ZM174.25 12V4.176H175.482V5.136H175.706C175.845 4.79467 176.058 4.544 176.346 4.384C176.634 4.224 177.013 4.144 177.482 4.144H178.41V5.296H177.402C176.837 5.296 176.378 5.456 176.026 5.776C175.685 6.08533 175.514 6.57067 175.514 7.232V12H174.25ZM183.277 12.224C182.306 12.224 181.485 12 180.813 11.552C180.152 11.104 179.752 10.3947 179.613 9.424L180.813 9.152C180.898 9.664 181.058 10.0693 181.293 10.368C181.528 10.656 181.816 10.864 182.157 10.992C182.509 11.1093 182.882 11.168 183.277 11.168C183.864 11.168 184.328 11.0507 184.669 10.816C185.01 10.5813 185.181 10.2667 185.181 9.872C185.181 9.46667 185.016 9.184 184.685 9.024C184.365 8.85333 183.922 8.71467 183.357 8.608L182.701 8.496C182.2 8.41067 181.741 8.27733 181.325 8.096C180.909 7.91467 180.578 7.66933 180.333 7.36C180.088 7.05067 179.965 6.66133 179.965 6.192C179.965 5.488 180.237 4.93867 180.781 4.544C181.325 4.14933 182.045 3.952 182.941 3.952C183.826 3.952 184.541 4.15467 185.085 4.56C185.64 4.95467 185.997 5.51467 186.157 6.24L184.973 6.544C184.877 5.97867 184.648 5.584 184.285 5.36C183.922 5.12533 183.474 5.008 182.941 5.008C182.408 5.008 181.986 5.10933 181.677 5.312C181.368 5.504 181.213 5.792 181.213 6.176C181.213 6.54933 181.357 6.82667 181.645 7.008C181.944 7.17867 182.338 7.30667 182.829 7.392L183.485 7.504C184.04 7.6 184.536 7.73333 184.973 7.904C185.421 8.064 185.773 8.29867 186.029 8.608C186.296 8.91733 186.429 9.32267 186.429 9.824C186.429 10.592 186.141 11.184 185.565 11.6C185 12.016 184.237 12.224 183.277 12.224ZM188.562 12V4.176H189.826V12H188.562ZM189.202 2.96C188.925 2.96 188.69 2.86933 188.498 2.688C188.317 2.50667 188.226 2.27733 188.226 2C188.226 1.712 188.317 1.47733 188.498 1.296C188.69 1.11467 188.925 1.024 189.202 1.024C189.48 1.024 189.709 1.11467 189.89 1.296C190.072 1.47733 190.162 1.712 190.162 2C190.162 2.27733 190.072 2.50667 189.89 2.688C189.709 2.86933 189.48 2.96 189.202 2.96ZM195.364 12C194.916 12 194.57 11.8773 194.324 11.632C194.09 11.3867 193.972 11.0507 193.972 10.624V5.28H191.62V4.176H193.972V1.392H195.236V4.176H197.796V5.28H195.236V10.432C195.236 10.752 195.391 10.912 195.7 10.912H197.444V12H195.364ZM200.788 15.2V14.08H205.268C205.577 14.08 205.732 13.92 205.732 13.6V10.752H205.508C205.401 10.976 205.236 11.2 205.012 11.424C204.798 11.6373 204.516 11.8133 204.164 11.952C203.812 12.08 203.369 12.144 202.836 12.144C202.27 12.144 201.748 12.0213 201.268 11.776C200.798 11.5307 200.425 11.168 200.148 10.688C199.881 10.208 199.748 9.62133 199.748 8.928V4.176H201.012V8.832C201.012 9.6 201.204 10.16 201.588 10.512C201.982 10.864 202.51 11.04 203.172 11.04C203.918 11.04 204.532 10.7947 205.012 10.304C205.492 9.81333 205.732 9.08267 205.732 8.112V4.176H206.996V13.824C206.996 14.2507 206.873 14.5867 206.628 14.832C206.393 15.0773 206.046 15.2 205.588 15.2H200.788ZM217.366 12.224C216.577 12.224 215.878 12.0587 215.27 11.728C214.673 11.3973 214.203 10.9333 213.862 10.336C213.531 9.728 213.366 9.01333 213.366 8.192V7.984C213.366 7.17333 213.531 6.464 213.862 5.856C214.203 5.248 214.673 4.77867 215.27 4.448C215.878 4.11733 216.577 3.952 217.366 3.952C218.155 3.952 218.849 4.11733 219.446 4.448C220.054 4.77867 220.523 5.248 220.854 5.856C221.195 6.464 221.366 7.17333 221.366 7.984V8.192C221.366 9.01333 221.195 9.728 220.854 10.336C220.523 10.9333 220.054 11.3973 219.446 11.728C218.849 12.0587 218.155 12.224 217.366 12.224ZM217.366 11.088C218.198 11.088 218.859 10.8267 219.35 10.304C219.851 9.77067 220.102 9.056 220.102 8.16V8.016C220.102 7.12 219.851 6.41067 219.35 5.888C218.859 5.35467 218.198 5.088 217.366 5.088C216.545 5.088 215.883 5.35467 215.382 5.888C214.881 6.41067 214.63 7.12 214.63 8.016V8.16C214.63 9.056 214.881 9.77067 215.382 10.304C215.883 10.8267 216.545 11.088 217.366 11.088ZM224.848 12V5.28H222.448V4.176H224.848V2.176C224.848 1.74933 224.966 1.41333 225.2 1.168C225.446 0.922666 225.792 0.799999 226.24 0.799999H228.208V1.888H226.592C226.272 1.888 226.112 2.048 226.112 2.368V4.176H228.576V5.28H226.112V12H224.848ZM233.369 12L236.825 0.799999H239.193L242.649 12H241.257L240.393 9.168H235.625L234.761 12H233.369ZM235.961 7.952H240.041L238.121 1.616H237.897L235.961 7.952ZM244.375 12V4.176H245.607V5.136H245.831C245.97 4.79467 246.183 4.544 246.471 4.384C246.759 4.224 247.138 4.144 247.607 4.144H248.535V5.296H247.527C246.962 5.296 246.503 5.456 246.151 5.776C245.81 6.08533 245.639 6.57067 245.639 7.232V12H244.375ZM253.286 12C252.838 12 252.491 11.8773 252.246 11.632C252.011 11.3867 251.894 11.0507 251.894 10.624V5.28H249.542V4.176H251.894V1.392H253.158V4.176H255.718V5.28H253.158V10.432C253.158 10.752 253.313 10.912 253.622 10.912H255.366V12H253.286ZM260.918 12.224C259.947 12.224 259.126 12 258.454 11.552C257.792 11.104 257.392 10.3947 257.254 9.424L258.454 9.152C258.539 9.664 258.699 10.0693 258.934 10.368C259.168 10.656 259.456 10.864 259.798 10.992C260.15 11.1093 260.523 11.168 260.918 11.168C261.504 11.168 261.968 11.0507 262.31 10.816C262.651 10.5813 262.822 10.2667 262.822 9.872C262.822 9.46667 262.656 9.184 262.326 9.024C262.006 8.85333 261.563 8.71467 260.998 8.608L260.342 8.496C259.84 8.41067 259.382 8.27733 258.966 8.096C258.55 7.91467 258.219 7.66933 257.974 7.36C257.728 7.05067 257.606 6.66133 257.606 6.192C257.606 5.488 257.878 4.93867 258.422 4.544C258.966 4.14933 259.686 3.952 260.582 3.952C261.467 3.952 262.182 4.15467 262.726 4.56C263.28 4.95467 263.638 5.51467 263.798 6.24L262.614 6.544C262.518 5.97867 262.288 5.584 261.926 5.36C261.563 5.12533 261.115 5.008 260.582 5.008C260.048 5.008 259.627 5.10933 259.318 5.312C259.008 5.504 258.854 5.792 258.854 6.176C258.854 6.54933 258.998 6.82667 259.286 7.008C259.584 7.17867 259.979 7.30667 260.47 7.392L261.126 7.504C261.68 7.6 262.176 7.73333 262.614 7.904C263.062 8.064 263.414 8.29867 263.67 8.608C263.936 8.91733 264.07 9.32267 264.07 9.824C264.07 10.592 263.782 11.184 263.206 11.6C262.64 12.016 261.878 12.224 260.918 12.224ZM266.891 12.224C266.582 12.224 266.32 12.1227 266.107 11.92C265.904 11.7173 265.803 11.456 265.803 11.136C265.803 10.816 265.904 10.5547 266.107 10.352C266.32 10.1493 266.582 10.048 266.891 10.048C267.211 10.048 267.472 10.1493 267.675 10.352C267.878 10.5547 267.979 10.816 267.979 11.136C267.979 11.456 267.878 11.7173 267.675 11.92C267.472 12.1227 267.211 12.224 266.891 12.224ZM272.697 12L276.153 0.799999H278.521L281.977 12H280.585L279.721 9.168H274.953L274.089 12H272.697ZM275.289 7.952H279.369L277.449 1.616H277.225L275.289 7.952ZM283.703 12V0.799999H284.967V12H283.703ZM287.625 12V0.799999H288.889V12H287.625ZM295.656 12V4.176H296.888V5.136H297.112C297.251 4.79467 297.464 4.544 297.752 4.384C298.04 4.224 298.419 4.144 298.888 4.144H299.816V5.296H298.808C298.243 5.296 297.784 5.456 297.432 5.776C297.091 6.08533 296.92 6.57067 296.92 7.232V12H295.656ZM301.687 12V4.176H302.951V12H301.687ZM302.327 2.96C302.05 2.96 301.815 2.86933 301.623 2.688C301.442 2.50667 301.351 2.27733 301.351 2C301.351 1.712 301.442 1.47733 301.623 1.296C301.815 1.11467 302.05 1.024 302.327 1.024C302.605 1.024 302.834 1.11467 303.015 1.296C303.197 1.47733 303.287 1.712 303.287 2C303.287 2.27733 303.197 2.50667 303.015 2.688C302.834 2.86933 302.605 2.96 302.327 2.96ZM305.225 8.128V7.904C305.225 7.08267 305.391 6.37867 305.721 5.792C306.052 5.20533 306.5 4.752 307.065 4.432C307.631 4.112 308.249 3.952 308.921 3.952C309.743 3.952 310.372 4.112 310.809 4.432C311.257 4.74133 311.588 5.088 311.801 5.472H312.025V4.176H313.225V13.824C313.225 14.2507 313.108 14.5867 312.873 14.832C312.639 15.0773 312.297 15.2 311.849 15.2H306.537V14.08H311.513C311.833 14.08 311.993 13.92 311.993 13.6V10.624H311.769C311.641 10.8587 311.46 11.088 311.225 11.312C310.991 11.536 310.687 11.7227 310.313 11.872C309.94 12.0107 309.476 12.08 308.921 12.08C308.249 12.08 307.631 11.92 307.065 11.6C306.5 11.28 306.052 10.8267 305.721 10.24C305.391 9.64267 305.225 8.93867 305.225 8.128ZM309.257 10.96C310.068 10.96 310.724 10.704 311.225 10.192C311.737 9.68 311.993 8.976 311.993 8.08V7.952C311.993 7.04533 311.737 6.34133 311.225 5.84C310.724 5.328 310.068 5.072 309.257 5.072C308.457 5.072 307.796 5.328 307.273 5.84C306.761 6.34133 306.505 7.04533 306.505 7.952V8.08C306.505 8.976 306.761 9.68 307.273 10.192C307.796 10.704 308.457 10.96 309.257 10.96ZM315.875 12V0.799999H317.139V5.424H317.363C317.47 5.18933 317.63 4.97067 317.843 4.768C318.067 4.55467 318.35 4.37867 318.691 4.24C319.043 4.10133 319.486 4.032 320.019 4.032C320.606 4.032 321.128 4.16 321.587 4.416C322.056 4.66133 322.43 5.024 322.707 5.504C322.984 5.97333 323.123 6.56 323.123 7.264V12H321.859V7.36C321.859 6.58133 321.662 6.016 321.267 5.664C320.883 5.312 320.36 5.136 319.699 5.136C318.942 5.136 318.323 5.38133 317.843 5.872C317.374 6.36267 317.139 7.09333 317.139 8.064V12H315.875ZM328.349 12C327.901 12 327.554 11.8773 327.309 11.632C327.074 11.3867 326.957 11.0507 326.957 10.624V5.28H324.605V4.176H326.957V1.392H328.221V4.176H330.781V5.28H328.221V10.432C328.221 10.752 328.375 10.912 328.685 10.912H330.429V12H328.349ZM335.98 12.224C335.009 12.224 334.188 12 333.516 11.552C332.855 11.104 332.455 10.3947 332.316 9.424L333.516 9.152C333.601 9.664 333.761 10.0693 333.996 10.368C334.231 10.656 334.519 10.864 334.86 10.992C335.212 11.1093 335.585 11.168 335.98 11.168C336.567 11.168 337.031 11.0507 337.372 10.816C337.713 10.5813 337.884 10.2667 337.884 9.872C337.884 9.46667 337.719 9.184 337.388 9.024C337.068 8.85333 336.625 8.71467 336.06 8.608L335.404 8.496C334.903 8.41067 334.444 8.27733 334.028 8.096C333.612 7.91467 333.281 7.66933 333.036 7.36C332.791 7.05067 332.668 6.66133 332.668 6.192C332.668 5.488 332.94 4.93867 333.484 4.544C334.028 4.14933 334.748 3.952 335.644 3.952C336.529 3.952 337.244 4.15467 337.788 4.56C338.343 4.95467 338.7 5.51467 338.86 6.24L337.676 6.544C337.58 5.97867 337.351 5.584 336.988 5.36C336.625 5.12533 336.177 5.008 335.644 5.008C335.111 5.008 334.689 5.10933 334.38 5.312C334.071 5.504 333.916 5.792 333.916 6.176C333.916 6.54933 334.06 6.82667 334.348 7.008C334.647 7.17867 335.041 7.30667 335.532 7.392L336.188 7.504C336.743 7.6 337.239 7.73333 337.676 7.904C338.124 8.064 338.476 8.29867 338.732 8.608C338.999 8.91733 339.132 9.32267 339.132 9.824C339.132 10.592 338.844 11.184 338.268 11.6C337.703 12.016 336.94 12.224 335.98 12.224ZM345.375 12V4.176H346.607V5.136H346.831C346.97 4.79467 347.183 4.544 347.471 4.384C347.759 4.224 348.138 4.144 348.607 4.144H349.535V5.296H348.527C347.962 5.296 347.503 5.456 347.151 5.776C346.81 6.08533 346.639 6.57067 346.639 7.232V12H345.375ZM354.709 12.224C353.92 12.224 353.226 12.0587 352.629 11.728C352.032 11.3867 351.568 10.912 351.237 10.304C350.906 9.696 350.741 8.992 350.741 8.192V8C350.741 7.18933 350.906 6.48 351.237 5.872C351.568 5.264 352.026 4.79467 352.613 4.464C353.2 4.12267 353.872 3.952 354.629 3.952C355.365 3.952 356.016 4.112 356.581 4.432C357.146 4.74133 357.589 5.18933 357.909 5.776C358.229 6.36267 358.389 7.05067 358.389 7.84V8.416H352.005C352.037 9.25867 352.309 9.92 352.821 10.4C353.333 10.8693 353.973 11.104 354.741 11.104C355.413 11.104 355.93 10.9493 356.293 10.64C356.656 10.3307 356.933 9.96267 357.125 9.536L358.213 10.064C358.053 10.3947 357.829 10.7253 357.541 11.056C357.264 11.3867 356.896 11.664 356.437 11.888C355.989 12.112 355.413 12.224 354.709 12.224ZM352.021 7.376H357.109C357.066 6.65067 356.816 6.08533 356.357 5.68C355.909 5.27467 355.333 5.072 354.629 5.072C353.914 5.072 353.328 5.27467 352.869 5.68C352.41 6.08533 352.128 6.65067 352.021 7.376ZM363.746 12.224C362.775 12.224 361.954 12 361.282 11.552C360.62 11.104 360.22 10.3947 360.082 9.424L361.282 9.152C361.367 9.664 361.527 10.0693 361.762 10.368C361.996 10.656 362.284 10.864 362.626 10.992C362.978 11.1093 363.351 11.168 363.746 11.168C364.332 11.168 364.796 11.0507 365.138 10.816C365.479 10.5813 365.65 10.2667 365.65 9.872C365.65 9.46667 365.484 9.184 365.154 9.024C364.834 8.85333 364.391 8.71467 363.826 8.608L363.17 8.496C362.668 8.41067 362.21 8.27733 361.794 8.096C361.378 7.91467 361.047 7.66933 360.802 7.36C360.556 7.05067 360.434 6.66133 360.434 6.192C360.434 5.488 360.706 4.93867 361.25 4.544C361.794 4.14933 362.514 3.952 363.41 3.952C364.295 3.952 365.01 4.15467 365.554 4.56C366.108 4.95467 366.466 5.51467 366.626 6.24L365.442 6.544C365.346 5.97867 365.116 5.584 364.754 5.36C364.391 5.12533 363.943 5.008 363.41 5.008C362.876 5.008 362.455 5.10933 362.146 5.312C361.836 5.504 361.682 5.792 361.682 6.176C361.682 6.54933 361.826 6.82667 362.114 7.008C362.412 7.17867 362.807 7.30667 363.298 7.392L363.954 7.504C364.508 7.6 365.004 7.73333 365.442 7.904C365.89 8.064 366.242 8.29867 366.498 8.608C366.764 8.91733 366.898 9.32267 366.898 9.824C366.898 10.592 366.61 11.184 366.034 11.6C365.468 12.016 364.706 12.224 363.746 12.224ZM372.615 12.224C371.826 12.224 371.132 12.0587 370.535 11.728C369.938 11.3867 369.474 10.912 369.143 10.304C368.812 9.696 368.647 8.992 368.647 8.192V8C368.647 7.18933 368.812 6.48 369.143 5.872C369.474 5.264 369.932 4.79467 370.519 4.464C371.106 4.12267 371.778 3.952 372.535 3.952C373.271 3.952 373.922 4.112 374.487 4.432C375.052 4.74133 375.495 5.18933 375.815 5.776C376.135 6.36267 376.295 7.05067 376.295 7.84V8.416H369.911C369.943 9.25867 370.215 9.92 370.727 10.4C371.239 10.8693 371.879 11.104 372.647 11.104C373.319 11.104 373.836 10.9493 374.199 10.64C374.562 10.3307 374.839 9.96267 375.031 9.536L376.119 10.064C375.959 10.3947 375.735 10.7253 375.447 11.056C375.17 11.3867 374.802 11.664 374.343 11.888C373.895 12.112 373.319 12.224 372.615 12.224ZM369.927 7.376H375.015C374.972 6.65067 374.722 6.08533 374.263 5.68C373.815 5.27467 373.239 5.072 372.535 5.072C371.82 5.072 371.234 5.27467 370.775 5.68C370.316 6.08533 370.034 6.65067 369.927 7.376ZM378.5 12V4.176H379.732V5.136H379.956C380.095 4.79467 380.308 4.544 380.596 4.384C380.884 4.224 381.263 4.144 381.732 4.144H382.66V5.296H381.652C381.087 5.296 380.628 5.456 380.276 5.776C379.935 6.08533 379.764 6.57067 379.764 7.232V12H378.5ZM386.515 12L383.715 4.176H385.059L387.411 11.056H387.635L389.987 4.176H391.331L388.531 12H386.515ZM396.412 12.224C395.623 12.224 394.929 12.0587 394.332 11.728C393.735 11.3867 393.271 10.912 392.94 10.304C392.609 9.696 392.444 8.992 392.444 8.192V8C392.444 7.18933 392.609 6.48 392.94 5.872C393.271 5.264 393.729 4.79467 394.316 4.464C394.903 4.12267 395.575 3.952 396.332 3.952C397.068 3.952 397.719 4.112 398.284 4.432C398.849 4.74133 399.292 5.18933 399.612 5.776C399.932 6.36267 400.092 7.05067 400.092 7.84V8.416H393.708C393.74 9.25867 394.012 9.92 394.524 10.4C395.036 10.8693 395.676 11.104 396.444 11.104C397.116 11.104 397.633 10.9493 397.996 10.64C398.359 10.3307 398.636 9.96267 398.828 9.536L399.916 10.064C399.756 10.3947 399.532 10.7253 399.244 11.056C398.967 11.3867 398.599 11.664 398.14 11.888C397.692 12.112 397.116 12.224 396.412 12.224ZM393.724 7.376H398.812C398.769 6.65067 398.519 6.08533 398.06 5.68C397.612 5.27467 397.036 5.072 396.332 5.072C395.617 5.072 395.031 5.27467 394.572 5.68C394.113 6.08533 393.831 6.65067 393.724 7.376ZM405.609 12.224C404.937 12.224 404.318 12.064 403.753 11.744C403.187 11.424 402.739 10.96 402.409 10.352C402.078 9.744 401.913 9.024 401.913 8.192V7.984C401.913 7.152 402.078 6.43733 402.409 5.84C402.739 5.232 403.182 4.768 403.737 4.448C404.302 4.11733 404.926 3.952 405.609 3.952C406.153 3.952 406.611 4.02667 406.985 4.176C407.369 4.31467 407.678 4.496 407.913 4.72C408.147 4.93333 408.329 5.16267 408.457 5.408H408.681V0.799999H409.945V12H408.713V10.704H408.489C408.275 11.0987 407.945 11.4507 407.497 11.76C407.049 12.0693 406.419 12.224 405.609 12.224ZM405.945 11.104C406.755 11.104 407.411 10.848 407.913 10.336C408.425 9.81333 408.681 9.088 408.681 8.16V8.016C408.681 7.088 408.425 6.368 407.913 5.856C407.411 5.33333 406.755 5.072 405.945 5.072C405.145 5.072 404.483 5.33333 403.961 5.856C403.449 6.368 403.193 7.088 403.193 8.016V8.16C403.193 9.088 403.449 9.81333 403.961 10.336C404.483 10.848 405.145 11.104 405.945 11.104ZM413.282 12.224C412.972 12.224 412.711 12.1227 412.498 11.92C412.295 11.7173 412.194 11.456 412.194 11.136C412.194 10.816 412.295 10.5547 412.498 10.352C412.711 10.1493 412.972 10.048 413.282 10.048C413.602 10.048 413.863 10.1493 414.066 10.352C414.268 10.5547 414.37 10.816 414.37 11.136C414.37 11.456 414.268 11.7173 414.066 11.92C413.863 12.1227 413.602 12.224 413.282 12.224Z" fill="#9FA0A0"/>
</svg>
