<svg width="126" height="9" viewBox="0 0 126 9" fill="none" xmlns="http://www.w3.org/2000/svg">
<path d="M3.1908 7.11066C2.66207 7.11066 2.1979 7.00922 1.79828 6.80634C1.40481 6.59731 1.09741 6.28376 0.876086 5.8657C0.660907 5.44764 0.553317 4.91891 0.553317 4.27952V3.26511C0.553317 2.62572 0.660907 2.09699 0.876086 1.67893C1.09741 1.26087 1.40481 0.950397 1.79828 0.747514C2.1979 0.538483 2.66207 0.433968 3.1908 0.433968H3.31068C3.84556 0.433968 4.30973 0.538483 4.7032 0.747514C5.09667 0.950397 5.40099 1.26087 5.61617 1.67893C5.83135 2.09699 5.93894 2.62572 5.93894 3.26511V4.27952C5.93894 4.91891 5.83135 5.44764 5.61617 5.8657C5.40099 6.28376 5.09667 6.59731 4.7032 6.80634C4.30973 7.00922 3.84556 7.11066 3.31068 7.11066H3.1908ZM3.20924 6.51124H3.30146C3.92855 6.51124 4.41732 6.33295 4.76775 5.97636C5.12433 5.61363 5.30262 5.04802 5.30262 4.27952V3.26511C5.30262 2.49661 5.12433 1.93407 4.76775 1.57749C4.41732 1.21476 3.92855 1.03339 3.30146 1.03339H3.20924C2.576 1.03339 2.08109 1.21476 1.72451 1.57749C1.37407 1.93407 1.19885 2.49661 1.19885 3.26511V4.27952C1.19885 5.04802 1.37407 5.61363 1.72451 5.97636C2.08109 6.33295 2.576 6.51124 3.20924 6.51124ZM3.30146 5.77348C2.8834 5.77348 2.55141 5.65052 2.30549 5.4046C2.06572 5.15868 1.94583 4.79595 1.94583 4.31641V3.24666C1.94583 2.75483 2.06879 2.38287 2.31471 2.13081C2.56678 1.87874 2.88955 1.75271 3.28302 1.75271C3.70723 1.75271 4.02999 1.87874 4.25132 2.13081C4.47265 2.37673 4.58331 2.69642 4.58331 3.08989V3.26511H3.947V3.03456C3.947 2.83782 3.89781 2.67183 3.79945 2.53657C3.70108 2.40132 3.53201 2.33369 3.29224 2.33369C3.08936 2.33369 2.92029 2.40132 2.78503 2.53657C2.64978 2.66568 2.58215 2.85627 2.58215 3.10833V4.45474C2.58215 4.69451 2.65285 4.87588 2.79425 4.99884C2.93566 5.1218 3.10165 5.18327 3.29224 5.18327C3.50127 5.18327 3.66112 5.12487 3.77178 5.00806C3.88859 4.89125 3.947 4.70988 3.947 4.46396V4.2703H4.58331V4.44552C4.58331 4.83899 4.47572 5.15868 4.26054 5.4046C4.04536 5.65052 3.72567 5.77348 3.30146 5.77348ZM9.59948 7V0.544631H10.3741V3.35733H10.5032L13.2329 0.544631H14.2658L11.1211 3.73543L14.3765 7H13.3159L10.5032 4.13197H10.3741V7H9.59948ZM14.8136 4.96195V4.28875H17.5433V4.96195H14.8136ZM18.3953 7L20.3872 0.544631H21.7521L23.744 7H22.9417L22.4437 5.36771H19.6956L19.1976 7H18.3953ZM19.8892 4.66685H22.2408L21.1342 1.01495H21.0051L19.8892 4.66685ZM24.7112 7V0.544631H27.3211C27.7207 0.544631 28.0711 0.615333 28.3724 0.756736C28.6798 0.891991 28.9195 1.08873 29.0917 1.34694C29.2638 1.59901 29.3499 1.90333 29.3499 2.25991V2.36136C29.3499 2.78557 29.2484 3.12063 29.0456 3.36655C28.8427 3.61247 28.6029 3.77846 28.3262 3.86454V3.99364C28.5476 3.99979 28.7289 4.07357 28.8703 4.21497C29.0179 4.35022 29.0917 4.55618 29.0917 4.83284V7H28.3262V4.92506C28.3262 4.74062 28.274 4.59922 28.1695 4.50085C28.0711 4.40248 27.9205 4.3533 27.7176 4.3533H25.4859V7H24.7112ZM25.4859 3.65243H27.2473C27.6715 3.65243 27.9973 3.55099 28.2248 3.34811C28.4584 3.13907 28.5752 2.85012 28.5752 2.48124V2.41669C28.5752 2.04781 28.4615 1.76193 28.234 1.55905C28.0066 1.35002 27.6776 1.2455 27.2473 1.2455H25.4859V3.65243ZM32.0161 7V1.2455H29.9412V0.544631H34.8657V1.2455H32.7908V7H32.0161ZM37.829 7.12911C37.3618 7.12911 36.9437 7.04611 36.5749 6.88011C36.206 6.71412 35.9139 6.46513 35.6988 6.13314C35.4897 5.795 35.3852 5.37386 35.3852 4.86973V4.67607H36.1506V4.86973C36.1506 5.4046 36.3074 5.80422 36.621 6.06858C36.9345 6.3268 37.3372 6.4559 37.829 6.4559C38.3332 6.4559 38.7174 6.34217 38.9818 6.11469C39.2461 5.88722 39.3783 5.60134 39.3783 5.25705C39.3783 5.01728 39.3168 4.82669 39.1939 4.68529C39.0771 4.54389 38.9111 4.43015 38.6959 4.34408C38.4807 4.25186 38.2287 4.17193 37.9397 4.10431L37.4602 3.98442C37.0851 3.88605 36.7531 3.76617 36.4642 3.62476C36.1752 3.48336 35.9478 3.29892 35.7818 3.07145C35.6219 2.83782 35.542 2.53965 35.542 2.17692C35.542 1.81419 35.6311 1.50064 35.8094 1.23628C35.9939 0.971915 36.249 0.769032 36.5749 0.627628C36.9068 0.486225 37.288 0.415523 37.7184 0.415523C38.1549 0.415523 38.5453 0.492373 38.8896 0.646073C39.24 0.793624 39.5136 1.01495 39.7103 1.31005C39.9132 1.59901 40.0146 1.96481 40.0146 2.40747V2.79479H39.2492V2.40747C39.2492 2.09392 39.1816 1.84185 39.0463 1.65127C38.9172 1.46068 38.7359 1.31928 38.5022 1.22706C38.2748 1.13484 38.0135 1.08873 37.7184 1.08873C37.2942 1.08873 36.953 1.18402 36.6947 1.37461C36.4365 1.55905 36.3074 1.82341 36.3074 2.16769C36.3074 2.39517 36.3627 2.57961 36.4734 2.72101C36.5841 2.86242 36.7408 2.97923 36.9437 3.07145C37.1466 3.15752 37.3895 3.23437 37.6723 3.302L38.1518 3.42188C38.5268 3.5018 38.8619 3.61247 39.157 3.75387C39.4583 3.88913 39.698 4.07664 39.8763 4.31641C40.0546 4.55003 40.1437 4.85743 40.1437 5.23861C40.1437 5.61978 40.0485 5.95177 39.8579 6.23458C39.6673 6.51738 39.3968 6.73871 39.0463 6.89856C38.702 7.05226 38.2963 7.12911 37.829 7.12911ZM43.0802 7L45.0722 0.544631H46.437L48.429 7H47.6266L47.1287 5.36771H44.3805L43.8825 7H43.0802ZM44.5742 4.66685H46.9258L45.8191 1.01495H45.69L44.5742 4.66685ZM49.4238 7V0.544631H50.1524V7H49.4238ZM51.6843 7V0.544631H52.4128V7H51.6843ZM56.3133 7V2.49046H57.0234V3.04378H57.1525C57.2324 2.84705 57.3554 2.70257 57.5214 2.61035C57.6874 2.51813 57.9056 2.47202 58.1761 2.47202H58.711V3.136H58.13C57.8042 3.136 57.5398 3.22822 57.3369 3.41266C57.1402 3.59095 57.0418 3.87068 57.0418 4.25186V7H56.3133ZM59.7895 7V2.49046H60.5181V7H59.7895ZM60.1584 1.7896C59.9986 1.7896 59.8633 1.73734 59.7527 1.63282C59.6481 1.52831 59.5959 1.39612 59.5959 1.23628C59.5959 1.07028 59.6481 0.935027 59.7527 0.830512C59.8633 0.725996 59.9986 0.673738 60.1584 0.673738C60.3183 0.673738 60.4504 0.725996 60.555 0.830512C60.6595 0.935027 60.7117 1.07028 60.7117 1.23628C60.7117 1.39612 60.6595 1.52831 60.555 1.63282C60.4504 1.73734 60.3183 1.7896 60.1584 1.7896ZM61.8287 4.76829V4.63918C61.8287 4.16579 61.924 3.76002 62.1146 3.42188C62.3051 3.08374 62.5634 2.82245 62.8892 2.63801C63.215 2.45358 63.5716 2.36136 63.9589 2.36136C64.4323 2.36136 64.7951 2.45358 65.0471 2.63801C65.3053 2.81631 65.4959 3.01612 65.6189 3.23744H65.748V2.49046H66.4396V8.0513C66.4396 8.29722 66.372 8.49088 66.2368 8.63229C66.1015 8.77369 65.9048 8.84439 65.6466 8.84439H62.5849V8.19885H65.4529C65.6373 8.19885 65.7296 8.10663 65.7296 7.9222V6.20691H65.6005C65.5267 6.34217 65.4222 6.47435 65.2869 6.60346C65.1516 6.73256 64.9764 6.84015 64.7613 6.92622C64.5461 7.00615 64.2786 7.04611 63.9589 7.04611C63.5716 7.04611 63.215 6.95389 62.8892 6.76945C62.5634 6.58501 62.3051 6.32372 62.1146 5.98558C61.924 5.6413 61.8287 5.23553 61.8287 4.76829ZM64.1526 6.40057C64.6199 6.40057 64.998 6.25302 65.2869 5.95792C65.582 5.66282 65.7296 5.25705 65.7296 4.74062V4.66685C65.7296 4.14427 65.582 3.7385 65.2869 3.44955C64.998 3.15444 64.6199 3.00689 64.1526 3.00689C63.6915 3.00689 63.3103 3.15444 63.0091 3.44955C62.714 3.7385 62.5664 4.14427 62.5664 4.66685V4.74062C62.5664 5.25705 62.714 5.66282 63.0091 5.95792C63.3103 6.25302 63.6915 6.40057 64.1526 6.40057ZM67.9668 7V0.544631H68.6953V3.20978H68.8245C68.8859 3.07452 68.9782 2.94849 69.1011 2.83168C69.2302 2.70872 69.3931 2.60728 69.5899 2.52735C69.7928 2.44743 70.0479 2.40747 70.3553 2.40747C70.6934 2.40747 70.9947 2.48124 71.2591 2.62879C71.5296 2.7702 71.7447 2.97923 71.9046 3.25589C72.0644 3.5264 72.1444 3.86454 72.1444 4.2703V7H71.4158V4.32563C71.4158 3.87683 71.3021 3.55099 71.0746 3.34811C70.8533 3.14522 70.552 3.04378 70.1709 3.04378C69.7344 3.04378 69.3778 3.18518 69.1011 3.46799C68.8306 3.7508 68.6953 4.17193 68.6953 4.7314V7H67.9668ZM75.1563 7C74.8981 7 74.6983 6.9293 74.5569 6.7879C74.4217 6.64649 74.354 6.45283 74.354 6.20691V3.12678H72.9984V2.49046H74.354V0.885843H75.0826V2.49046H76.5581V3.12678H75.0826V6.09625C75.0826 6.28069 75.1717 6.37291 75.35 6.37291H76.3552V7H75.1563ZM79.5549 7.12911C78.9954 7.12911 78.522 7 78.1347 6.74179C77.7535 6.48357 77.523 6.07473 77.443 5.51527L78.1347 5.35849C78.1839 5.65359 78.2761 5.88722 78.4113 6.05936C78.5466 6.22536 78.7126 6.34524 78.9093 6.41902C79.1122 6.48664 79.3274 6.52046 79.5549 6.52046C79.893 6.52046 80.1604 6.45283 80.3572 6.31758C80.5539 6.18232 80.6523 6.00095 80.6523 5.77348C80.6523 5.53986 80.557 5.37694 80.3664 5.28472C80.182 5.18635 79.9268 5.10643 79.601 5.04495L79.2229 4.98039C78.9339 4.93121 78.6695 4.85436 78.4298 4.74984C78.19 4.64533 77.9994 4.50392 77.858 4.32563C77.7166 4.14734 77.6459 3.92294 77.6459 3.65243C77.6459 3.24666 77.8027 2.93004 78.1162 2.70257C78.4298 2.47509 78.8448 2.36136 79.3612 2.36136C79.8715 2.36136 80.2834 2.47817 80.5969 2.71179C80.9166 2.93927 81.1226 3.26203 81.2148 3.6801L80.5324 3.85531C80.4771 3.52947 80.3449 3.302 80.1358 3.17289C79.9268 3.03763 79.6686 2.97001 79.3612 2.97001C79.0538 2.97001 78.811 3.02841 78.6327 3.14522C78.4544 3.25589 78.3652 3.42188 78.3652 3.64321C78.3652 3.85839 78.4482 4.01823 78.6142 4.12275C78.7864 4.22112 79.0138 4.29489 79.2966 4.34408L79.6747 4.40863C79.9944 4.46396 80.2803 4.54081 80.5324 4.63918C80.7906 4.7314 80.9935 4.86665 81.141 5.04495C81.2947 5.22324 81.3716 5.45686 81.3716 5.74581C81.3716 6.18847 81.2056 6.52968 80.8736 6.76945C80.5478 7.00922 80.1082 7.12911 79.5549 7.12911ZM84.9698 7V2.49046H85.6799V3.04378H85.809C85.8889 2.84705 86.0119 2.70257 86.1779 2.61035C86.3439 2.51813 86.5621 2.47202 86.8326 2.47202H87.3675V3.136H86.7865C86.4607 3.136 86.1963 3.22822 85.9934 3.41266C85.7967 3.59095 85.6983 3.87068 85.6983 4.25186V7H84.9698ZM90.3497 7.12911C89.8947 7.12911 89.4951 7.03381 89.1508 6.84323C88.8065 6.64649 88.5391 6.37291 88.3485 6.02247C88.1579 5.67204 88.0626 5.26627 88.0626 4.80517V4.69451C88.0626 4.22727 88.1579 3.81843 88.3485 3.46799C88.5391 3.11756 88.8034 2.84705 89.1416 2.65646C89.4797 2.45972 89.867 2.36136 90.3035 2.36136C90.7278 2.36136 91.1028 2.45358 91.4286 2.63801C91.7545 2.81631 92.0096 3.07452 92.194 3.41266C92.3785 3.7508 92.4707 4.14734 92.4707 4.60229V4.93428H88.7911C88.8096 5.41997 88.9664 5.80115 89.2615 6.0778C89.5566 6.34832 89.9254 6.48357 90.3681 6.48357C90.7554 6.48357 91.0536 6.39442 91.2626 6.21613C91.4717 6.03784 91.6315 5.82574 91.7422 5.57982L92.3693 5.88414C92.277 6.07473 92.1479 6.26532 91.9819 6.4559C91.8221 6.64649 91.61 6.80634 91.3456 6.93545C91.0874 7.06455 90.7554 7.12911 90.3497 7.12911ZM88.8004 4.33485H91.733C91.7084 3.91679 91.5639 3.59095 91.2995 3.35733C91.0413 3.1237 90.7093 3.00689 90.3035 3.00689C89.8916 3.00689 89.5535 3.1237 89.2891 3.35733C89.0248 3.59095 88.8618 3.91679 88.8004 4.33485ZM95.5582 7.12911C94.9987 7.12911 94.5253 7 94.138 6.74179C93.7568 6.48357 93.5263 6.07473 93.4464 5.51527L94.138 5.35849C94.1872 5.65359 94.2794 5.88722 94.4147 6.05936C94.5499 6.22536 94.7159 6.34524 94.9127 6.41902C95.1155 6.48664 95.3307 6.52046 95.5582 6.52046C95.8963 6.52046 96.1638 6.45283 96.3605 6.31758C96.5572 6.18232 96.6556 6.00095 96.6556 5.77348C96.6556 5.53986 96.5603 5.37694 96.3697 5.28472C96.1853 5.18635 95.9301 5.10643 95.6043 5.04495L95.2262 4.98039C94.9372 4.93121 94.6729 4.85436 94.4331 4.74984C94.1933 4.64533 94.0028 4.50392 93.8614 4.32563C93.7199 4.14734 93.6492 3.92294 93.6492 3.65243C93.6492 3.24666 93.806 2.93004 94.1196 2.70257C94.4331 2.47509 94.8481 2.36136 95.3645 2.36136C95.8748 2.36136 96.2867 2.47817 96.6003 2.71179C96.92 2.93927 97.1259 3.26203 97.2181 3.6801L96.5357 3.85531C96.4804 3.52947 96.3482 3.302 96.1392 3.17289C95.9301 3.03763 95.6719 2.97001 95.3645 2.97001C95.0571 2.97001 94.8143 3.02841 94.636 3.14522C94.4577 3.25589 94.3686 3.42188 94.3686 3.64321C94.3686 3.85839 94.4516 4.01823 94.6176 4.12275C94.7897 4.22112 95.0172 4.29489 95.3 4.34408L95.6781 4.40863C95.9978 4.46396 96.2837 4.54081 96.5357 4.63918C96.7939 4.7314 96.9968 4.86665 97.1444 5.04495C97.2981 5.22324 97.3749 5.45686 97.3749 5.74581C97.3749 6.18847 97.2089 6.52968 96.8769 6.76945C96.5511 7.00922 96.1115 7.12911 95.5582 7.12911ZM100.67 7.12911C100.215 7.12911 99.8158 7.03381 99.4715 6.84323C99.1272 6.64649 98.8597 6.37291 98.6692 6.02247C98.4786 5.67204 98.3833 5.26627 98.3833 4.80517V4.69451C98.3833 4.22727 98.4786 3.81843 98.6692 3.46799C98.8597 3.11756 99.1241 2.84705 99.4622 2.65646C99.8004 2.45972 100.188 2.36136 100.624 2.36136C101.048 2.36136 101.423 2.45358 101.749 2.63801C102.075 2.81631 102.33 3.07452 102.515 3.41266C102.699 3.7508 102.791 4.14734 102.791 4.60229V4.93428H99.1118C99.1303 5.41997 99.287 5.80115 99.5821 6.0778C99.8772 6.34832 100.246 6.48357 100.689 6.48357C101.076 6.48357 101.374 6.39442 101.583 6.21613C101.792 6.03784 101.952 5.82574 102.063 5.57982L102.69 5.88414C102.598 6.07473 102.469 6.26532 102.303 6.4559C102.143 6.64649 101.931 6.80634 101.666 6.93545C101.408 7.06455 101.076 7.12911 100.67 7.12911ZM99.121 4.33485H102.054C102.029 3.91679 101.885 3.59095 101.62 3.35733C101.362 3.1237 101.03 3.00689 100.624 3.00689C100.212 3.00689 99.8742 3.1237 99.6098 3.35733C99.3454 3.59095 99.1825 3.91679 99.121 4.33485ZM104.062 7V2.49046H104.772V3.04378H104.901C104.981 2.84705 105.104 2.70257 105.27 2.61035C105.436 2.51813 105.654 2.47202 105.925 2.47202H106.46V3.136H105.879C105.553 3.136 105.289 3.22822 105.086 3.41266C104.889 3.59095 104.791 3.87068 104.791 4.25186V7H104.062ZM108.682 7L107.068 2.49046H107.843L109.198 6.4559H109.327L110.683 2.49046H111.458L109.844 7H108.682ZM114.386 7.12911C113.931 7.12911 113.532 7.03381 113.187 6.84323C112.843 6.64649 112.576 6.37291 112.385 6.02247C112.194 5.67204 112.099 5.26627 112.099 4.80517V4.69451C112.099 4.22727 112.194 3.81843 112.385 3.46799C112.576 3.11756 112.84 2.84705 113.178 2.65646C113.516 2.45972 113.904 2.36136 114.34 2.36136C114.764 2.36136 115.139 2.45358 115.465 2.63801C115.791 2.81631 116.046 3.07452 116.231 3.41266C116.415 3.7508 116.507 4.14734 116.507 4.60229V4.93428H112.828C112.846 5.41997 113.003 5.80115 113.298 6.0778C113.593 6.34832 113.962 6.48357 114.405 6.48357C114.792 6.48357 115.09 6.39442 115.299 6.21613C115.508 6.03784 115.668 5.82574 115.779 5.57982L116.406 5.88414C116.314 6.07473 116.184 6.26532 116.018 6.4559C115.859 6.64649 115.647 6.80634 115.382 6.93545C115.124 7.06455 114.792 7.12911 114.386 7.12911ZM112.837 4.33485H115.769C115.745 3.91679 115.6 3.59095 115.336 3.35733C115.078 3.1237 114.746 3.00689 114.34 3.00689C113.928 3.00689 113.59 3.1237 113.326 3.35733C113.061 3.59095 112.898 3.91679 112.837 4.33485ZM119.687 7.12911C119.3 7.12911 118.943 7.03689 118.617 6.85245C118.291 6.66801 118.033 6.40057 117.843 6.05014C117.652 5.6997 117.557 5.28472 117.557 4.80517V4.68529C117.557 4.20575 117.652 3.79383 117.843 3.44955C118.033 3.09911 118.288 2.83168 118.608 2.64724C118.934 2.45665 119.293 2.36136 119.687 2.36136C120 2.36136 120.265 2.40439 120.48 2.49046C120.701 2.57039 120.88 2.6749 121.015 2.80401C121.15 2.92697 121.255 3.05915 121.328 3.20055H121.458V0.544631H122.186V7H121.476V6.25302H121.347C121.224 6.4805 121.033 6.68338 120.775 6.86167C120.517 7.03996 120.154 7.12911 119.687 7.12911ZM119.881 6.48357C120.348 6.48357 120.726 6.33602 121.015 6.04092C121.31 5.73967 121.458 5.3216 121.458 4.78673V4.70373C121.458 4.16886 121.31 3.75387 121.015 3.45877C120.726 3.15752 120.348 3.00689 119.881 3.00689C119.419 3.00689 119.038 3.15752 118.737 3.45877C118.442 3.75387 118.294 4.16886 118.294 4.70373V4.78673C118.294 5.3216 118.442 5.73967 118.737 6.04092C119.038 6.33602 119.419 6.48357 119.881 6.48357ZM124.109 7.12911C123.931 7.12911 123.78 7.0707 123.657 6.95389C123.541 6.83708 123.482 6.68645 123.482 6.50201C123.482 6.31758 123.541 6.16695 123.657 6.05014C123.78 5.93333 123.931 5.87492 124.109 5.87492C124.294 5.87492 124.444 5.93333 124.561 6.05014C124.678 6.16695 124.736 6.31758 124.736 6.50201C124.736 6.68645 124.678 6.83708 124.561 6.95389C124.444 7.0707 124.294 7.12911 124.109 7.12911Z" fill="#9FA0A0"/>
</svg>
