<svg width="current" height="current" viewBox="0 0 121 9" fill="none" xmlns="http://www.w3.org/2000/svg">
<path d="M2.6449 7.11066C2.11617 7.11066 1.652 7.00922 1.25238 6.80634C0.858913 6.59731 0.551514 6.28376 0.330187 5.8657C0.115008 5.44764 0.0074189 4.91891 0.0074189 4.27952V3.26511C0.0074189 2.62572 0.115008 2.09699 0.330187 1.67893C0.551514 1.26087 0.858913 0.950397 1.25238 0.747514C1.652 0.538483 2.11617 0.433968 2.6449 0.433968H2.76478C3.29966 0.433968 3.76383 0.538483 4.1573 0.747514C4.55077 0.950397 4.85509 1.26087 5.07027 1.67893C5.28545 2.09699 5.39304 2.62572 5.39304 3.26511V4.27952C5.39304 4.91891 5.28545 5.44764 5.07027 5.8657C4.85509 6.28376 4.55077 6.59731 4.1573 6.80634C3.76383 7.00922 3.29966 7.11066 2.76478 7.11066H2.6449ZM2.66334 6.51124H2.75556C3.38265 6.51124 3.87142 6.33295 4.22185 5.97636C4.57844 5.61363 4.75673 5.04802 4.75673 4.27952V3.26511C4.75673 2.49661 4.57844 1.93407 4.22185 1.57749C3.87142 1.21476 3.38265 1.03339 2.75556 1.03339H2.66334C2.0301 1.03339 1.53519 1.21476 1.17861 1.57749C0.828173 1.93407 0.652956 2.49661 0.652956 3.26511V4.27952C0.652956 5.04802 0.828173 5.61363 1.17861 5.97636C1.53519 6.33295 2.0301 6.51124 2.66334 6.51124ZM2.75556 5.77348C2.3375 5.77348 2.00551 5.65052 1.75959 5.4046C1.51982 5.15868 1.39993 4.79595 1.39993 4.31641V3.24666C1.39993 2.75483 1.52289 2.38287 1.76881 2.13081C2.02088 1.87874 2.34365 1.75271 2.73712 1.75271C3.16133 1.75271 3.4841 1.87874 3.70542 2.13081C3.92675 2.37673 4.03741 2.69642 4.03741 3.08989V3.26511H3.4011V3.03456C3.4011 2.83782 3.35191 2.67183 3.25355 2.53657C3.15518 2.40132 2.98611 2.33369 2.74634 2.33369C2.54346 2.33369 2.37439 2.40132 2.23913 2.53657C2.10388 2.66568 2.03625 2.85627 2.03625 3.10833V4.45474C2.03625 4.69451 2.10695 4.87588 2.24835 4.99884C2.38976 5.1218 2.55575 5.18327 2.74634 5.18327C2.95537 5.18327 3.11522 5.12487 3.22588 5.00806C3.34269 4.89125 3.4011 4.70988 3.4011 4.46396V4.2703H4.03741V4.44552C4.03741 4.83899 3.92982 5.15868 3.71465 5.4046C3.49947 5.65052 3.17977 5.77348 2.75556 5.77348ZM9.05358 7V0.544631H9.82823V3.35733H9.95733L12.687 0.544631H13.7199L10.5752 3.73543L13.8306 7H12.77L9.95733 4.13197H9.82823V7H9.05358ZM14.175 7L16.167 0.544631H17.5318L19.5237 7H18.7214L18.2234 5.36771H15.4753L14.9773 7H14.175ZM15.669 4.66685H18.0206L16.9139 1.01495H16.7848L15.669 4.66685ZM20.491 7V0.544631H23.1008C23.5004 0.544631 23.8508 0.615333 24.1521 0.756736C24.4595 0.891991 24.6993 1.08873 24.8714 1.34694C25.0435 1.59901 25.1296 1.90333 25.1296 2.25991V2.36136C25.1296 2.78557 25.0282 3.12063 24.8253 3.36655C24.6224 3.61247 24.3826 3.77846 24.106 3.86454V3.99364C24.3273 3.99979 24.5087 4.07357 24.6501 4.21497C24.7976 4.35022 24.8714 4.55618 24.8714 4.83284V7H24.106V4.92506C24.106 4.74062 24.0537 4.59922 23.9492 4.50085C23.8508 4.40248 23.7002 4.3533 23.4973 4.3533H21.2656V7H20.491ZM21.2656 3.65243H23.027C23.4512 3.65243 23.7771 3.55099 24.0045 3.34811C24.2382 3.13907 24.355 2.85012 24.355 2.48124V2.41669C24.355 2.04781 24.2412 1.76193 24.0138 1.55905C23.7863 1.35002 23.4574 1.2455 23.027 1.2455H21.2656V3.65243ZM27.7958 7V1.2455H25.7209V0.544631H30.6454V1.2455H28.5705V7H27.7958ZM33.6088 7.12911C33.1415 7.12911 32.7235 7.04611 32.3546 6.88011C31.9857 6.71412 31.6937 6.46513 31.4785 6.13314C31.2695 5.795 31.1649 5.37386 31.1649 4.86973V4.67607H31.9304V4.86973C31.9304 5.4046 32.0871 5.80422 32.4007 6.06858C32.7142 6.3268 33.1169 6.4559 33.6088 6.4559C34.1129 6.4559 34.4971 6.34217 34.7615 6.11469C35.0259 5.88722 35.1581 5.60134 35.1581 5.25705C35.1581 5.01728 35.0966 4.82669 34.9736 4.68529C34.8568 4.54389 34.6908 4.43015 34.4756 4.34408C34.2605 4.25186 34.0084 4.17193 33.7194 4.10431L33.2399 3.98442C32.8649 3.88605 32.5329 3.76617 32.2439 3.62476C31.955 3.48336 31.7275 3.29892 31.5615 3.07145C31.4016 2.83782 31.3217 2.53965 31.3217 2.17692C31.3217 1.81419 31.4109 1.50064 31.5892 1.23628C31.7736 0.971915 32.0287 0.769032 32.3546 0.627628C32.6866 0.486225 33.0677 0.415523 33.4981 0.415523C33.9346 0.415523 34.325 0.492373 34.6693 0.646073C35.0197 0.793624 35.2933 1.01495 35.49 1.31005C35.6929 1.59901 35.7944 1.96481 35.7944 2.40747V2.79479H35.0289V2.40747C35.0289 2.09392 34.9613 1.84185 34.8261 1.65127C34.697 1.46068 34.5156 1.31928 34.282 1.22706C34.0545 1.13484 33.7932 1.08873 33.4981 1.08873C33.0739 1.08873 32.7327 1.18402 32.4745 1.37461C32.2163 1.55905 32.0871 1.82341 32.0871 2.16769C32.0871 2.39517 32.1425 2.57961 32.2531 2.72101C32.3638 2.86242 32.5206 2.97923 32.7235 3.07145C32.9263 3.15752 33.1692 3.23437 33.452 3.302L33.9315 3.42188C34.3066 3.5018 34.6416 3.61247 34.9367 3.75387C35.238 3.88913 35.4777 4.07664 35.656 4.31641C35.8343 4.55003 35.9235 4.85743 35.9235 5.23861C35.9235 5.61978 35.8282 5.95177 35.6376 6.23458C35.447 6.51738 35.1765 6.73871 34.8261 6.89856C34.4818 7.05226 34.076 7.12911 33.6088 7.12911ZM38.8599 7L40.8519 0.544631H42.2167L44.2087 7H43.4064L42.9084 5.36771H40.1602L39.6623 7H38.8599ZM40.3539 4.66685H42.7055L41.5989 1.01495H41.4698L40.3539 4.66685ZM45.2036 7V0.544631H45.9321V7H45.2036ZM47.464 7V0.544631H48.1926V7H47.464ZM52.093 7V2.49046H52.8031V3.04378H52.9322C53.0121 2.84705 53.1351 2.70257 53.3011 2.61035C53.4671 2.51813 53.6853 2.47202 53.9559 2.47202H54.4907V3.136H53.9097C53.5839 3.136 53.3195 3.22822 53.1167 3.41266C52.9199 3.59095 52.8216 3.87068 52.8216 4.25186V7H52.093ZM55.5693 7V2.49046H56.2978V7H55.5693ZM55.9381 1.7896C55.7783 1.7896 55.643 1.73734 55.5324 1.63282C55.4279 1.52831 55.3756 1.39612 55.3756 1.23628C55.3756 1.07028 55.4279 0.935027 55.5324 0.830512C55.643 0.725996 55.7783 0.673738 55.9381 0.673738C56.098 0.673738 56.2302 0.725996 56.3347 0.830512C56.4392 0.935027 56.4915 1.07028 56.4915 1.23628C56.4915 1.39612 56.4392 1.52831 56.3347 1.63282C56.2302 1.73734 56.098 1.7896 55.9381 1.7896ZM57.6084 4.76829V4.63918C57.6084 4.16579 57.7037 3.76002 57.8943 3.42188C58.0849 3.08374 58.3431 2.82245 58.6689 2.63801C58.9948 2.45358 59.3513 2.36136 59.7387 2.36136C60.2121 2.36136 60.5748 2.45358 60.8269 2.63801C61.0851 2.81631 61.2757 3.01612 61.3986 3.23744H61.5277V2.49046H62.2194V8.0513C62.2194 8.29722 62.1517 8.49088 62.0165 8.63229C61.8812 8.77369 61.6845 8.84439 61.4263 8.84439H58.3646V8.19885H61.2326C61.4171 8.19885 61.5093 8.10663 61.5093 7.9222V6.20691H61.3802C61.3064 6.34217 61.2019 6.47435 61.0666 6.60346C60.9314 6.73256 60.7562 6.84015 60.541 6.92622C60.3258 7.00615 60.0584 7.04611 59.7387 7.04611C59.3513 7.04611 58.9948 6.95389 58.6689 6.76945C58.3431 6.58501 58.0849 6.32372 57.8943 5.98558C57.7037 5.6413 57.6084 5.23553 57.6084 4.76829ZM59.9323 6.40057C60.3996 6.40057 60.7777 6.25302 61.0666 5.95792C61.3617 5.66282 61.5093 5.25705 61.5093 4.74062V4.66685C61.5093 4.14427 61.3617 3.7385 61.0666 3.44955C60.7777 3.15444 60.3996 3.00689 59.9323 3.00689C59.4712 3.00689 59.0901 3.15444 58.7888 3.44955C58.4937 3.7385 58.3462 4.14427 58.3462 4.66685V4.74062C58.3462 5.25705 58.4937 5.66282 58.7888 5.95792C59.0901 6.25302 59.4712 6.40057 59.9323 6.40057ZM63.7465 7V0.544631H64.4751V3.20978H64.6042C64.6657 3.07452 64.7579 2.94849 64.8808 2.83168C65.01 2.70872 65.1729 2.60728 65.3696 2.52735C65.5725 2.44743 65.8276 2.40747 66.135 2.40747C66.4732 2.40747 66.7744 2.48124 67.0388 2.62879C67.3093 2.7702 67.5245 2.97923 67.6843 3.25589C67.8442 3.5264 67.9241 3.86454 67.9241 4.2703V7H67.1956V4.32563C67.1956 3.87683 67.0818 3.55099 66.8543 3.34811C66.633 3.14522 66.3318 3.04378 65.9506 3.04378C65.5141 3.04378 65.1575 3.18518 64.8808 3.46799C64.6103 3.7508 64.4751 4.17193 64.4751 4.7314V7H63.7465ZM70.9361 7C70.6779 7 70.478 6.9293 70.3366 6.7879C70.2014 6.64649 70.1338 6.45283 70.1338 6.20691V3.12678H68.7781V2.49046H70.1338V0.885843H70.8623V2.49046H72.3378V3.12678H70.8623V6.09625C70.8623 6.28069 70.9514 6.37291 71.1297 6.37291H72.1349V7H70.9361ZM75.3346 7.12911C74.7751 7.12911 74.3017 7 73.9144 6.74179C73.5332 6.48357 73.3027 6.07473 73.2228 5.51527L73.9144 5.35849C73.9636 5.65359 74.0558 5.88722 74.1911 6.05936C74.3263 6.22536 74.4923 6.34524 74.689 6.41902C74.8919 6.48664 75.1071 6.52046 75.3346 6.52046C75.6727 6.52046 75.9402 6.45283 76.1369 6.31758C76.3336 6.18232 76.432 6.00095 76.432 5.77348C76.432 5.53986 76.3367 5.37694 76.1461 5.28472C75.9617 5.18635 75.7065 5.10643 75.3807 5.04495L75.0026 4.98039C74.7136 4.93121 74.4493 4.85436 74.2095 4.74984C73.9697 4.64533 73.7791 4.50392 73.6377 4.32563C73.4963 4.14734 73.4256 3.92294 73.4256 3.65243C73.4256 3.24666 73.5824 2.93004 73.896 2.70257C74.2095 2.47509 74.6245 2.36136 75.1409 2.36136C75.6512 2.36136 76.0631 2.47817 76.3767 2.71179C76.6964 2.93927 76.9023 3.26203 76.9945 3.6801L76.3121 3.85531C76.2568 3.52947 76.1246 3.302 75.9156 3.17289C75.7065 3.03763 75.4483 2.97001 75.1409 2.97001C74.8335 2.97001 74.5907 3.02841 74.4124 3.14522C74.2341 3.25589 74.1449 3.42188 74.1449 3.64321C74.1449 3.85839 74.2279 4.01823 74.3939 4.12275C74.5661 4.22112 74.7936 4.29489 75.0764 4.34408L75.4545 4.40863C75.7742 4.46396 76.06 4.54081 76.3121 4.63918C76.5703 4.7314 76.7732 4.86665 76.9208 5.04495C77.0745 5.22324 77.1513 5.45686 77.1513 5.74581C77.1513 6.18847 76.9853 6.52968 76.6533 6.76945C76.3275 7.00922 75.8879 7.12911 75.3346 7.12911ZM80.7495 7V2.49046H81.4596V3.04378H81.5887C81.6687 2.84705 81.7916 2.70257 81.9576 2.61035C82.1236 2.51813 82.3419 2.47202 82.6124 2.47202H83.1472V3.136H82.5663C82.2404 3.136 81.9761 3.22822 81.7732 3.41266C81.5764 3.59095 81.4781 3.87068 81.4781 4.25186V7H80.7495ZM86.1294 7.12911C85.6744 7.12911 85.2748 7.03381 84.9305 6.84323C84.5862 6.64649 84.3188 6.37291 84.1282 6.02247C83.9376 5.67204 83.8423 5.26627 83.8423 4.80517V4.69451C83.8423 4.22727 83.9376 3.81843 84.1282 3.46799C84.3188 3.11756 84.5832 2.84705 84.9213 2.65646C85.2595 2.45972 85.6468 2.36136 86.0833 2.36136C86.5075 2.36136 86.8825 2.45358 87.2084 2.63801C87.5342 2.81631 87.7893 3.07452 87.9738 3.41266C88.1582 3.7508 88.2504 4.14734 88.2504 4.60229V4.93428H84.5709C84.5893 5.41997 84.7461 5.80115 85.0412 6.0778C85.3363 6.34832 85.7052 6.48357 86.1478 6.48357C86.5352 6.48357 86.8333 6.39442 87.0424 6.21613C87.2514 6.03784 87.4112 5.82574 87.5219 5.57982L88.149 5.88414C88.0568 6.07473 87.9277 6.26532 87.7617 6.4559C87.6018 6.64649 87.3897 6.80634 87.1254 6.93545C86.8671 7.06455 86.5352 7.12911 86.1294 7.12911ZM84.5801 4.33485H87.5127C87.4881 3.91679 87.3436 3.59095 87.0793 3.35733C86.821 3.1237 86.489 3.00689 86.0833 3.00689C85.6714 3.00689 85.3332 3.1237 85.0689 3.35733C84.8045 3.59095 84.6416 3.91679 84.5801 4.33485ZM91.3379 7.12911C90.7785 7.12911 90.3051 7 89.9177 6.74179C89.5366 6.48357 89.306 6.07473 89.2261 5.51527L89.9177 5.35849C89.9669 5.65359 90.0591 5.88722 90.1944 6.05936C90.3296 6.22536 90.4956 6.34524 90.6924 6.41902C90.8953 6.48664 91.1104 6.52046 91.3379 6.52046C91.6761 6.52046 91.9435 6.45283 92.1402 6.31758C92.337 6.18232 92.4353 6.00095 92.4353 5.77348C92.4353 5.53986 92.34 5.37694 92.1494 5.28472C91.965 5.18635 91.7099 5.10643 91.384 5.04495L91.0059 4.98039C90.717 4.93121 90.4526 4.85436 90.2128 4.74984C89.9731 4.64533 89.7825 4.50392 89.6411 4.32563C89.4997 4.14734 89.429 3.92294 89.429 3.65243C89.429 3.24666 89.5857 2.93004 89.8993 2.70257C90.2128 2.47509 90.6278 2.36136 91.1443 2.36136C91.6545 2.36136 92.0664 2.47817 92.38 2.71179C92.6997 2.93927 92.9056 3.26203 92.9979 3.6801L92.3154 3.85531C92.2601 3.52947 92.1279 3.302 91.9189 3.17289C91.7099 3.03763 91.4517 2.97001 91.1443 2.97001C90.8369 2.97001 90.594 3.02841 90.4157 3.14522C90.2374 3.25589 90.1483 3.42188 90.1483 3.64321C90.1483 3.85839 90.2313 4.01823 90.3973 4.12275C90.5694 4.22112 90.7969 4.29489 91.0797 4.34408L91.4578 4.40863C91.7775 4.46396 92.0634 4.54081 92.3154 4.63918C92.5737 4.7314 92.7765 4.86665 92.9241 5.04495C93.0778 5.22324 93.1546 5.45686 93.1546 5.74581C93.1546 6.18847 92.9886 6.52968 92.6567 6.76945C92.3308 7.00922 91.8912 7.12911 91.3379 7.12911ZM96.4501 7.12911C95.9951 7.12911 95.5955 7.03381 95.2512 6.84323C94.9069 6.64649 94.6395 6.37291 94.4489 6.02247C94.2583 5.67204 94.163 5.26627 94.163 4.80517V4.69451C94.163 4.22727 94.2583 3.81843 94.4489 3.46799C94.6395 3.11756 94.9038 2.84705 95.242 2.65646C95.5801 2.45972 95.9674 2.36136 96.4039 2.36136C96.8282 2.36136 97.2032 2.45358 97.529 2.63801C97.8549 2.81631 98.11 3.07452 98.2944 3.41266C98.4789 3.7508 98.5711 4.14734 98.5711 4.60229V4.93428H94.8915C94.91 5.41997 95.0668 5.80115 95.3619 6.0778C95.657 6.34832 96.0258 6.48357 96.4685 6.48357C96.8558 6.48357 97.154 6.39442 97.363 6.21613C97.5721 6.03784 97.7319 5.82574 97.8426 5.57982L98.4697 5.88414C98.3774 6.07473 98.2483 6.26532 98.0823 6.4559C97.9225 6.64649 97.7104 6.80634 97.446 6.93545C97.1878 7.06455 96.8558 7.12911 96.4501 7.12911ZM94.9008 4.33485H97.8333C97.8088 3.91679 97.6643 3.59095 97.3999 3.35733C97.1417 3.1237 96.8097 3.00689 96.4039 3.00689C95.992 3.00689 95.6539 3.1237 95.3895 3.35733C95.1252 3.59095 94.9622 3.91679 94.9008 4.33485ZM99.8419 7V2.49046H100.552V3.04378H100.681C100.761 2.84705 100.884 2.70257 101.05 2.61035C101.216 2.51813 101.434 2.47202 101.705 2.47202H102.24V3.136H101.659C101.333 3.136 101.068 3.22822 100.865 3.41266C100.669 3.59095 100.57 3.87068 100.57 4.25186V7H99.8419ZM104.462 7L102.848 2.49046H103.622L104.978 6.4559H105.107L106.463 2.49046H107.237L105.624 7H104.462ZM110.166 7.12911C109.711 7.12911 109.311 7.03381 108.967 6.84323C108.623 6.64649 108.355 6.37291 108.165 6.02247C107.974 5.67204 107.879 5.26627 107.879 4.80517V4.69451C107.879 4.22727 107.974 3.81843 108.165 3.46799C108.355 3.11756 108.62 2.84705 108.958 2.65646C109.296 2.45972 109.683 2.36136 110.12 2.36136C110.544 2.36136 110.919 2.45358 111.245 2.63801C111.571 2.81631 111.826 3.07452 112.01 3.41266C112.195 3.7508 112.287 4.14734 112.287 4.60229V4.93428H108.607C108.626 5.41997 108.783 5.80115 109.078 6.0778C109.373 6.34832 109.742 6.48357 110.184 6.48357C110.572 6.48357 110.87 6.39442 111.079 6.21613C111.288 6.03784 111.448 5.82574 111.558 5.57982L112.186 5.88414C112.093 6.07473 111.964 6.26532 111.798 6.4559C111.638 6.64649 111.426 6.80634 111.162 6.93545C110.904 7.06455 110.572 7.12911 110.166 7.12911ZM108.617 4.33485H111.549C111.525 3.91679 111.38 3.59095 111.116 3.35733C110.858 3.1237 110.526 3.00689 110.12 3.00689C109.708 3.00689 109.37 3.1237 109.105 3.35733C108.841 3.59095 108.678 3.91679 108.617 4.33485ZM115.467 7.12911C115.079 7.12911 114.723 7.03689 114.397 6.85245C114.071 6.66801 113.813 6.40057 113.622 6.05014C113.432 5.6997 113.336 5.28472 113.336 4.80517V4.68529C113.336 4.20575 113.432 3.79383 113.622 3.44955C113.813 3.09911 114.068 2.83168 114.388 2.64724C114.714 2.45665 115.073 2.36136 115.467 2.36136C115.78 2.36136 116.045 2.40439 116.26 2.49046C116.481 2.57039 116.659 2.6749 116.795 2.80401C116.93 2.92697 117.034 3.05915 117.108 3.20055H117.237V0.544631H117.966V7H117.256V6.25302H117.127C117.004 6.4805 116.813 6.68338 116.555 6.86167C116.297 7.03996 115.934 7.12911 115.467 7.12911ZM115.66 6.48357C116.128 6.48357 116.506 6.33602 116.795 6.04092C117.09 5.73967 117.237 5.3216 117.237 4.78673V4.70373C117.237 4.16886 117.09 3.75387 116.795 3.45877C116.506 3.15752 116.128 3.00689 115.66 3.00689C115.199 3.00689 114.818 3.15752 114.517 3.45877C114.222 3.75387 114.074 4.16886 114.074 4.70373V4.78673C114.074 5.3216 114.222 5.73967 114.517 6.04092C114.818 6.33602 115.199 6.48357 115.66 6.48357ZM119.889 7.12911C119.711 7.12911 119.56 7.0707 119.437 6.95389C119.32 6.83708 119.262 6.68645 119.262 6.50201C119.262 6.31758 119.32 6.16695 119.437 6.05014C119.56 5.93333 119.711 5.87492 119.889 5.87492C120.074 5.87492 120.224 5.93333 120.341 6.05014C120.458 6.16695 120.516 6.31758 120.516 6.50201C120.516 6.68645 120.458 6.83708 120.341 6.95389C120.224 7.0707 120.074 7.12911 119.889 7.12911Z" fill="#9FA0A0"/>
</svg>
