<svg width="current" height="current" viewBox="0 0 117 9" fill="none" xmlns="http://www.w3.org/2000/svg">
<path d="M3.28121 7.04611C1.47371 7.04611 0.0074189 5.57982 0.0074189 3.77232C0.0074189 1.96481 1.47371 0.498521 3.28121 0.498521C5.07949 0.498521 6.55501 1.96481 6.55501 3.77232C6.55501 5.57982 5.07949 7.04611 3.28121 7.04611ZM3.28121 6.36369C4.70139 6.36369 5.87258 5.20172 5.87258 3.77232C5.87258 2.34291 4.70139 1.18095 3.28121 1.18095C1.85181 1.18095 0.689844 2.34291 0.689844 3.77232C0.689844 5.20172 1.85181 6.36369 3.28121 6.36369ZM4.84895 4.27952C4.69217 5.0265 4.00053 5.52449 3.29044 5.52449C2.42357 5.52449 1.63048 4.78673 1.63048 3.77232C1.63048 2.7579 2.42357 2.02014 3.28121 2.02014C4.00053 2.02014 4.73828 2.5458 4.86739 3.31122H4.18496C4.01897 2.91467 3.65009 2.70257 3.28121 2.70257C2.70023 2.70257 2.31291 3.23744 2.31291 3.77232C2.31291 4.29797 2.68179 4.84206 3.30888 4.84206C3.6962 4.84206 4.03741 4.63918 4.16652 4.27952H4.84895ZM14.9087 7H13.8942L11.6072 4.07664H11.0631V7H10.2423V0.544631H11.0631V3.28355H11.6072L13.6268 0.544631H14.632L12.345 3.6801L14.9087 7ZM20.0009 7L19.4568 5.31238H16.8193L16.2752 7H15.3807L17.5571 0.544631H18.7191L20.8954 7H20.0009ZM18.0827 1.4115L17.0775 4.52852H19.1986L18.1934 1.4115H18.0827ZM26.5152 7H25.5838L23.8777 4.41785H22.7158V7H21.9319V0.544631H24.1636C25.2241 0.544631 26.2109 1.20861 26.2109 2.43513C26.2109 3.42188 25.5746 4.10431 24.7723 4.33485L26.5152 7ZM22.7158 1.30083V3.66165H24.0714C24.7169 3.66165 25.3994 3.29277 25.3994 2.43513C25.3994 1.57749 24.7077 1.30083 24.0714 1.30083H22.7158ZM31.2901 0.544631V1.34694H29.5471V7H28.6803V1.34694H26.9373V0.544631H31.2901ZM36.6596 5.3216C36.6596 6.42824 35.6544 7.04611 34.5201 7.04611C33.0907 7.04611 32.1132 6.0778 32.1132 5.05417H32.9431C32.9985 5.7827 33.7454 6.25302 34.5293 6.25302C35.0918 6.25302 35.8019 6.00403 35.8019 5.33083C35.8019 4.74062 35.2486 4.48241 34.3818 4.13197C33.4596 3.76309 32.2884 3.31122 32.2884 2.18614C32.2884 1.17172 33.2475 0.489299 34.3725 0.489299C35.6913 0.489299 36.4751 1.42994 36.4751 2.25069H35.6452C35.5898 1.75271 35.1472 1.28239 34.3449 1.28239C33.6256 1.28239 33.146 1.66049 33.146 2.13081C33.146 2.7579 34.0129 3.07145 34.5477 3.29277C35.5068 3.68932 36.6596 4.14119 36.6596 5.3216ZM44.1455 7L43.6014 5.31238H40.9639L40.4198 7H39.5253L41.7017 0.544631H42.8636L45.04 7H44.1455ZM42.2273 1.4115L41.2221 4.52852H43.3432L42.338 1.4115H42.2273ZM45.8874 0.452411H46.6897V7H45.8874V0.452411ZM47.9227 0.452411H48.725V7H47.9227V0.452411ZM54.7707 2.34291H55.0566V3.136C54.9644 3.11756 54.7984 3.09911 54.6785 3.09911C54.0883 3.09911 53.5073 3.4311 53.5073 4.27952V7H52.6958V2.38902H53.2306L53.3874 2.90545H53.5165C53.6917 2.70257 54.0698 2.34291 54.7707 2.34291ZM56.5283 1.58671C56.1963 1.58671 55.9288 1.31928 55.9288 0.996507C55.9288 0.664516 56.1963 0.406302 56.5283 0.406302C56.851 0.406302 57.1185 0.664516 57.1185 0.996507C57.1185 1.31928 56.851 1.58671 56.5283 1.58671ZM56.9248 2.38902V7H56.1133V2.38902H56.9248ZM60.5607 6.10547C61.5843 6.10547 62.0085 6.66801 62.0085 7.36888C62.0085 8.40174 61.0771 8.8905 60.0166 8.8905C58.6333 8.8905 57.8863 8.06052 58.0707 7.07378L58.7716 6.58501C58.4119 6.4559 58.1537 6.22536 58.1537 5.81037C58.1537 5.43227 58.3658 5.12794 58.7347 4.9435C58.4857 4.66685 58.3474 4.29797 58.3474 3.90142C58.3474 3.03456 59.0206 2.33369 60.0534 2.33369C60.4315 2.33369 60.7543 2.42591 61.0218 2.58268C61.4828 2.37058 61.7042 2.02014 61.7042 2.02014L62.1745 2.6749C62.1745 2.6749 61.9163 2.85934 61.4828 3.00689C61.6581 3.26511 61.7595 3.56943 61.7595 3.90142C61.7595 4.77751 61.0955 5.47838 60.0534 5.47838C59.7491 5.47838 59.4725 5.41382 59.2327 5.30316C59.0667 5.39538 58.9376 5.53371 58.9376 5.71815C58.9376 5.93948 59.122 6.10547 59.9059 6.10547H60.5607ZM60.0627 2.99767C59.4909 2.99767 59.1312 3.40344 59.1312 3.91064C59.1312 4.40863 59.4817 4.8144 60.0534 4.8144C60.6344 4.8144 60.9756 4.40863 60.9756 3.90142C60.9756 3.40344 60.6344 2.99767 60.0627 2.99767ZM60.0166 8.16197C60.616 8.16197 61.2246 7.88531 61.2246 7.35043C61.2246 6.80634 60.6068 6.77867 60.201 6.76945C59.952 6.76023 59.6846 6.75101 59.4264 6.72334L58.8085 7.30432C58.7347 7.8392 59.371 8.16197 60.0166 8.16197ZM65.3641 2.34291C66.5077 2.34291 67.0979 3.219 67.0979 4.50085V7H66.2863V4.77751C66.2863 3.95675 66.148 3.04378 65.235 3.04378C64.5434 3.04378 63.9901 3.56021 63.9901 4.37174V7H63.1785V0.452411H63.9901V2.87779H64.0823C64.2852 2.64724 64.6909 2.34291 65.3641 2.34291ZM70.4387 6.18847L70.7892 6.75101C70.6508 6.87089 70.4018 7.04611 69.9776 7.04611C69.1753 7.04611 68.6866 6.44668 68.6866 5.60748V3.07145H67.8842V2.47202H68.1701C68.5298 2.47202 68.788 2.2138 68.788 1.83571V1.00573H69.4704V2.38902H70.5863V3.06222H69.4796V5.53371C69.4796 6.12391 69.7563 6.31758 70.0699 6.31758C70.2543 6.31758 70.3557 6.25302 70.4387 6.18847ZM74.7192 5.68126C74.7192 6.5389 74.0276 7.04611 73.1238 7.04611C72.0633 7.04611 71.3717 6.35446 71.3717 5.51527H72.1186C72.1186 6.08703 72.6074 6.38213 73.1146 6.38213C73.548 6.38213 73.9538 6.17002 73.9538 5.71815C73.9538 5.24783 73.5019 5.10028 72.9947 4.96195C72.3676 4.79595 71.51 4.54696 71.51 3.62476C71.51 2.80401 72.1832 2.34291 73.0316 2.34291C74.0645 2.34291 74.627 3.01612 74.627 3.65243H73.88C73.88 3.31122 73.5204 2.99767 73.0316 2.99767C72.6074 2.99767 72.2754 3.23744 72.2754 3.61554C72.2754 4.03975 72.7088 4.1873 73.1607 4.30719C73.8616 4.49163 74.7192 4.7314 74.7192 5.68126ZM80.6714 2.34291H80.9573V3.136C80.8651 3.11756 80.6991 3.09911 80.5792 3.09911C79.989 3.09911 79.408 3.4311 79.408 4.27952V7H78.5965V2.38902H79.1314L79.2881 2.90545H79.4172C79.5925 2.70257 79.9706 2.34291 80.6714 2.34291ZM83.6957 2.34291C84.8023 2.34291 85.8813 3.16367 85.789 4.90662H82.3031C82.3769 5.76426 82.9118 6.29913 83.7049 6.29913C84.2305 6.29913 84.6179 6.06858 84.8392 5.70893H85.6876C85.3372 6.54812 84.5441 7.04611 83.7049 7.04611C82.5429 7.04611 81.5101 6.09625 81.5101 4.65762C81.5101 3.22822 82.5429 2.34291 83.6957 2.34291ZM83.6864 3.02534C83.004 3.02534 82.4876 3.49566 82.34 4.23341H84.9498C84.8392 3.52332 84.3781 3.02534 83.6864 3.02534ZM90.0471 5.68126C90.0471 6.5389 89.3555 7.04611 88.4517 7.04611C87.3912 7.04611 86.6996 6.35446 86.6996 5.51527H87.4465C87.4465 6.08703 87.9353 6.38213 88.4425 6.38213C88.8759 6.38213 89.2817 6.17002 89.2817 5.71815C89.2817 5.24783 88.8298 5.10028 88.3226 4.96195C87.6955 4.79595 86.8379 4.54696 86.8379 3.62476C86.8379 2.80401 87.5111 2.34291 88.3595 2.34291C89.3924 2.34291 89.9549 3.01612 89.9549 3.65243H89.2079C89.2079 3.31122 88.8483 2.99767 88.3595 2.99767C87.9353 2.99767 87.6033 3.23744 87.6033 3.61554C87.6033 4.03975 88.0367 4.1873 88.4886 4.30719C89.1895 4.49163 90.0471 4.7314 90.0471 5.68126ZM93.1698 2.34291C94.2764 2.34291 95.3554 3.16367 95.2632 4.90662H91.7773C91.851 5.76426 92.3859 6.29913 93.179 6.29913C93.7046 6.29913 94.092 6.06858 94.3133 5.70893H95.1617C94.8113 6.54812 94.0182 7.04611 93.179 7.04611C92.017 7.04611 90.9842 6.09625 90.9842 4.65762C90.9842 3.22822 92.017 2.34291 93.1698 2.34291ZM93.1606 3.02534C92.4781 3.02534 91.9617 3.49566 91.8141 4.23341H94.424C94.3133 3.52332 93.8522 3.02534 93.1606 3.02534ZM98.4039 2.34291H98.6898V3.136C98.5975 3.11756 98.4315 3.09911 98.3117 3.09911C97.7215 3.09911 97.1405 3.4311 97.1405 4.27952V7H96.3289V2.38902H96.8638L97.0206 2.90545H97.1497C97.3249 2.70257 97.703 2.34291 98.4039 2.34291ZM102.914 2.38902H103.763L102.269 7H101.052L99.5577 2.38902H100.406L101.605 6.33602H101.716L102.914 2.38902ZM106.471 2.34291C107.578 2.34291 108.657 3.16367 108.565 4.90662H105.079C105.153 5.76426 105.687 6.29913 106.481 6.29913C107.006 6.29913 107.394 6.06858 107.615 5.70893H108.463C108.113 6.54812 107.32 7.04611 106.481 7.04611C105.319 7.04611 104.286 6.09625 104.286 4.65762C104.286 3.22822 105.319 2.34291 106.471 2.34291ZM106.462 3.02534C105.78 3.02534 105.263 3.49566 105.116 4.23341H107.726C107.615 3.52332 107.154 3.02534 106.462 3.02534ZM113.005 0.452411H113.789V7H113.254L113.079 6.40979H112.931C112.645 6.7879 112.212 7.04611 111.612 7.04611C110.441 7.04611 109.482 6.05936 109.482 4.69451C109.482 3.32966 110.441 2.34291 111.612 2.34291C112.258 2.34291 112.71 2.64724 113.005 3.08067V0.452411ZM110.294 4.69451C110.294 5.69048 110.985 6.28991 111.677 6.28991C112.286 6.28991 113.005 5.82881 113.005 4.69451C113.005 3.56021 112.286 3.09911 111.677 3.09911C110.985 3.09911 110.294 3.69854 110.294 4.69451ZM115.718 7.04611C115.414 7.04611 115.165 6.79712 115.165 6.49279C115.165 6.17925 115.414 5.93948 115.718 5.93948C116.022 5.93948 116.271 6.17925 116.271 6.49279C116.271 6.79712 116.022 7.04611 115.718 7.04611Z" fill="#9FA0A0"/>
</svg>
