<svg width="59" height="12" viewBox="0 0 59 12" fill="none" xmlns="http://www.w3.org/2000/svg">
<path d="M4.28058 4.60475H4.31727L7.31366 0.204468H12.2547L8.04748 5.44864L12.6461 11.4041H7.43597L4.31727 6.65419H4.28058V11.4041H0V0.204468H4.28058V4.60475Z" fill="#9FA0A0"/>
<path d="M38.0843 7.60717C38.0843 7.60717 39.9677 11.3203 40.0044 11.4047H41.9001C41.5454 10.7416 39.5641 7.08878 39.5641 7.08878C39.1727 6.41367 38.9159 6.17256 38.3656 5.99173L38.3166 5.96761L38.0598 5.89528V5.835L38.3166 5.81089H38.3778C39.9066 5.56978 40.9217 4.50889 40.9217 3.24306C40.9217 0.60289 38.598 0.192993 36.0785 0.192993H33.0454V11.4047H34.7087V6.44983H35.8706C36.8368 6.44983 37.485 6.44983 38.0598 7.59511L38.0843 7.60717ZM34.7209 1.48294H36.5432C38.2066 1.48294 39.1605 2.17011 39.1605 3.27922C39.1605 4.38834 38.0843 5.184 36.3353 5.184H34.7087V1.48294H34.7209Z" fill="#9FA0A0"/>
<path d="M51.2564 0.192993H41.7168V1.47089H45.6549V11.4047H47.3182V1.47089H51.2564V0.192993Z" fill="#9FA0A0"/>
<path d="M58.8653 8.29435C58.8653 6.22079 57.153 5.4854 55.6365 4.82235C54.4379 4.30396 53.4106 3.86995 53.4106 2.86934C53.4106 1.86873 54.2667 1.27801 55.7099 1.27801C56.6271 1.27801 57.1408 1.41062 58.0214 1.72407C58.0458 1.5794 58.2293 0.4944 58.2537 0.3859C57.4588 0.144788 56.5171 0.00012207 55.6365 0.00012207C53.2149 0.00012207 51.6494 1.18157 51.6494 3.01401C51.6494 4.84646 53.1782 5.52157 54.658 6.14846C55.9055 6.6789 57.0919 7.17318 57.0919 8.39079C57.0919 9.80129 55.5631 10.3197 54.5235 10.3197C53.484 10.3197 52.3955 9.94596 51.9552 9.80129C51.9429 9.95801 51.8084 11.043 51.7962 11.1515C52.5911 11.3806 53.435 11.5976 54.3034 11.5976C57.202 11.5976 58.853 10.392 58.853 8.2823L58.8653 8.29435Z" fill="#9FA0A0"/>
<path d="M16.6446 0.204346H13.0244V3.77279H16.6446V0.204346Z" fill="#9FA0A0"/>
<path d="M26.6596 0.192627H24.8495C24.8128 0.277016 19.615 11.1873 19.5049 11.4043H21.2416L22.6848 8.18547H28.6898L30.133 11.4043H31.9431C31.8452 11.1873 26.6963 0.289071 26.6596 0.192627ZM23.2106 6.99196L25.6078 1.61518L25.6812 1.45846L28.1517 6.99196H23.1984H23.2106Z" fill="#9FA0A0"/>
</svg>
