<svg width="392" height="16" viewBox="0 0 392 16" fill="none" xmlns="http://www.w3.org/2000/svg">
<path d="M6.64 12.08C3.504 12.08 0.96 9.536 0.96 6.4C0.96 3.264 3.504 0.719999 6.64 0.719999C9.76 0.719999 12.32 3.264 12.32 6.4C12.32 9.536 9.76 12.08 6.64 12.08ZM6.64 10.896C9.104 10.896 11.136 8.88 11.136 6.4C11.136 3.92 9.104 1.904 6.64 1.904C4.16 1.904 2.144 3.92 2.144 6.4C2.144 8.88 4.16 10.896 6.64 10.896ZM9.36 7.28C9.088 8.576 7.888 9.44 6.656 9.44C5.152 9.44 3.776 8.16 3.776 6.4C3.776 4.64 5.152 3.36 6.64 3.36C7.888 3.36 9.168 4.272 9.392 5.6H8.208C7.92 4.912 7.28 4.544 6.64 4.544C5.632 4.544 4.96 5.472 4.96 6.4C4.96 7.312 5.6 8.256 6.688 8.256C7.36 8.256 7.952 7.904 8.176 7.28H9.36ZM26.8135 12H25.0535L21.0855 6.928H20.1415V12H18.7175V0.799999H20.1415V5.552H21.0855L24.5895 0.799999H26.3335L22.3655 6.24L26.8135 12ZM31.1438 12.08C29.1438 12.08 27.3038 10.368 27.3038 8C27.3038 5.632 29.1438 3.92 31.1438 3.92C33.1438 3.92 34.9838 5.632 34.9838 8C34.9838 10.368 33.1598 12.08 31.1438 12.08ZM31.1438 10.768C32.5998 10.768 33.5758 9.568 33.5758 8C33.5758 6.432 32.5838 5.232 31.1438 5.232C29.7038 5.232 28.7118 6.432 28.7118 8C28.7118 9.568 29.7038 10.768 31.1438 10.768ZM40.4113 3.92H40.9073V5.296C40.7473 5.264 40.4593 5.232 40.2513 5.232C39.2273 5.232 38.2193 5.808 38.2193 7.28V12H36.8113V4H37.7393L38.0113 4.896H38.2353C38.5393 4.544 39.1953 3.92 40.4113 3.92ZM45.6583 3.92C47.5783 3.92 49.4503 5.344 49.2903 8.368H43.2423C43.3703 9.856 44.2983 10.784 45.6743 10.784C46.5863 10.784 47.2583 10.384 47.6423 9.76H49.1143C48.5063 11.216 47.1303 12.08 45.6743 12.08C43.6583 12.08 41.8663 10.432 41.8663 7.936C41.8663 5.456 43.6583 3.92 45.6583 3.92ZM45.6423 5.104C44.4583 5.104 43.5623 5.92 43.3063 7.2H47.8343C47.6423 5.968 46.8423 5.104 45.6423 5.104ZM57.9874 10.432L58.8194 10.864C58.8194 10.864 58.5314 12.08 57.2674 12.08C56.5634 12.08 56.0994 11.712 55.8594 11.04C55.3634 11.696 54.5474 12.08 53.5234 12.08C51.9234 12.08 50.8194 11.136 50.8194 9.744C50.8194 7.392 53.8754 7.184 55.7154 6.96C55.6674 5.968 55.2834 5.184 54.0194 5.184C52.6114 5.184 52.4034 6.176 52.4034 6.176H51.0274C51.1714 5.072 52.2114 3.92 54.0674 3.92C55.7474 3.92 56.9794 4.864 56.9794 7.184V9.952C56.9794 10.704 57.1714 10.944 57.4754 10.944C57.8914 10.944 57.9874 10.432 57.9874 10.432ZM52.1474 9.792C52.1474 11.504 55.6354 11.168 55.6994 9.008V8.176C53.8114 8.368 52.1474 8.624 52.1474 9.792ZM71.3603 0.799999H72.7683V12H70.7683L65.5043 3.088H65.3283V12H63.9363V0.799999H65.7283L71.1683 9.92H71.3603V0.799999ZM80.8544 9.952C80.8544 10.72 81.1104 10.944 81.7184 10.944V12H81.1584C80.4224 12 79.9584 11.712 79.7344 11.04C79.2384 11.696 78.4224 12.08 77.3984 12.08C75.7984 12.08 74.6944 11.136 74.6944 9.744C74.6944 7.392 77.7504 7.184 79.5904 6.96C79.5424 5.968 79.1584 5.184 77.8944 5.184C76.4864 5.184 76.2784 6.176 76.2784 6.176H74.9024C75.0464 5.072 76.0864 3.92 77.9424 3.92C79.6224 3.92 80.8544 4.864 80.8544 7.184V9.952ZM76.0224 9.792C76.0224 11.504 79.5104 11.168 79.5744 9.008V8.176C77.6864 8.368 76.0224 8.624 76.0224 9.792ZM86.642 10.592L87.25 11.568C87.01 11.776 86.578 12.08 85.842 12.08C84.45 12.08 83.602 11.04 83.602 9.584V5.184H82.21V4.144H82.706C83.33 4.144 83.778 3.696 83.778 3.04V1.6H84.962V4H86.898V5.168H84.978V9.456C84.978 10.48 85.458 10.816 86.002 10.816C86.322 10.816 86.498 10.704 86.642 10.592ZM89.6169 2.608C89.0409 2.608 88.5769 2.144 88.5769 1.584C88.5769 1.008 89.0409 0.559999 89.6169 0.559999C90.1769 0.559999 90.6409 1.008 90.6409 1.584C90.6409 2.144 90.1769 2.608 89.6169 2.608ZM90.3049 4V12H88.8969V4H90.3049ZM96.1281 12.08C94.1281 12.08 92.2881 10.368 92.2881 8C92.2881 5.632 94.1281 3.92 96.1281 3.92C98.1281 3.92 99.9681 5.632 99.9681 8C99.9681 10.368 98.1441 12.08 96.1281 12.08ZM96.1281 10.768C97.5841 10.768 98.5601 9.568 98.5601 8C98.5601 6.432 97.5681 5.232 96.1281 5.232C94.6881 5.232 93.6961 6.432 93.6961 8C93.6961 9.568 94.6881 10.768 96.1281 10.768ZM105.556 3.92C107.588 3.92 108.596 5.44 108.596 7.664V12H107.188V8.144C107.188 6.72 106.948 5.136 105.364 5.136C104.164 5.136 103.204 6.032 103.204 7.44V12H101.796V4H102.724L103.012 4.912H103.204C103.508 4.56 104.228 3.92 105.556 3.92ZM116.604 9.952C116.604 10.72 116.86 10.944 117.468 10.944V12H116.908C116.172 12 115.708 11.712 115.484 11.04C114.988 11.696 114.172 12.08 113.148 12.08C111.548 12.08 110.444 11.136 110.444 9.744C110.444 7.392 113.5 7.184 115.34 6.96C115.292 5.968 114.908 5.184 113.644 5.184C112.236 5.184 112.028 6.176 112.028 6.176H110.652C110.796 5.072 111.836 3.92 113.692 3.92C115.372 3.92 116.604 4.864 116.604 7.184V9.952ZM111.772 9.792C111.772 11.504 115.26 11.168 115.324 9.008V8.176C113.436 8.368 111.772 8.624 111.772 9.792ZM119.124 0.639999H120.516V12H119.124V0.639999ZM136.253 0.799999V7.2C136.253 10.64 134.221 12.08 131.757 12.08C129.293 12.08 127.229 10.64 127.229 7.2V0.799999H128.733V7.04C128.733 9.664 130.061 10.672 131.757 10.672C133.453 10.672 134.749 9.664 134.749 7.04V0.799999H136.253ZM142.134 3.92C144.166 3.92 145.174 5.44 145.174 7.664V12H143.766V8.144C143.766 6.72 143.526 5.136 141.942 5.136C140.742 5.136 139.782 6.032 139.782 7.44V12H138.374V4H139.302L139.59 4.912H139.782C140.086 4.56 140.806 3.92 142.134 3.92ZM148.164 2.608C147.588 2.608 147.124 2.144 147.124 1.584C147.124 1.008 147.588 0.559999 148.164 0.559999C148.724 0.559999 149.188 1.008 149.188 1.584C149.188 2.144 148.724 2.608 148.164 2.608ZM148.852 4V12H147.444V4H148.852ZM156.315 4H157.787L155.195 12H153.083L150.491 4H151.963L154.043 10.848H154.235L156.315 4ZM162.486 3.92C164.406 3.92 166.278 5.344 166.118 8.368H160.07C160.198 9.856 161.126 10.784 162.502 10.784C163.414 10.784 164.086 10.384 164.47 9.76H165.942C165.334 11.216 163.958 12.08 162.502 12.08C160.486 12.08 158.694 10.432 158.694 7.936C158.694 5.456 160.486 3.92 162.486 3.92ZM162.47 5.104C161.286 5.104 160.39 5.92 160.134 7.2H164.662C164.47 5.968 163.67 5.104 162.47 5.104ZM171.568 3.92H172.064V5.296C171.904 5.264 171.616 5.232 171.408 5.232C170.384 5.232 169.376 5.808 169.376 7.28V12H167.968V4H168.896L169.168 4.896H169.392C169.696 4.544 170.352 3.92 171.568 3.92ZM179.147 9.712C179.147 11.2 177.947 12.08 176.379 12.08C174.539 12.08 173.339 10.88 173.339 9.424H174.635C174.635 10.416 175.483 10.928 176.363 10.928C177.115 10.928 177.819 10.56 177.819 9.776C177.819 8.96 177.035 8.704 176.155 8.464C175.067 8.176 173.579 7.744 173.579 6.144C173.579 4.72 174.747 3.92 176.219 3.92C178.011 3.92 178.987 5.088 178.987 6.192H177.691C177.691 5.6 177.067 5.056 176.219 5.056C175.483 5.056 174.907 5.472 174.907 6.128C174.907 6.864 175.659 7.12 176.443 7.328C177.659 7.648 179.147 8.064 179.147 9.712ZM181.804 2.608C181.228 2.608 180.764 2.144 180.764 1.584C180.764 1.008 181.228 0.559999 181.804 0.559999C182.364 0.559999 182.828 1.008 182.828 1.584C182.828 2.144 182.364 2.608 181.804 2.608ZM182.492 4V12H181.084V4H182.492ZM188.548 10.592L189.156 11.568C188.916 11.776 188.484 12.08 187.748 12.08C186.356 12.08 185.508 11.04 185.508 9.584V5.184H184.116V4.144H184.612C185.236 4.144 185.684 3.696 185.684 3.04V1.6H186.868V4H188.804V5.168H186.884V9.456C186.884 10.48 187.364 10.816 187.908 10.816C188.228 10.816 188.404 10.704 188.548 10.592ZM196.45 4H197.89L194.946 12.304C194.546 13.488 194.05 15.28 192.098 15.28C191.346 15.28 190.674 15.008 190.45 14.736L191.074 13.76C191.186 13.84 191.538 14.064 192.034 14.064C192.882 14.064 193.106 13.392 193.378 12.656L193.618 12H192.962L190.05 4H191.506L193.922 10.624H194.098L196.45 4ZM206.8 12.08C204.8 12.08 202.96 10.368 202.96 8C202.96 5.632 204.8 3.92 206.8 3.92C208.8 3.92 210.64 5.632 210.64 8C210.64 10.368 208.816 12.08 206.8 12.08ZM206.8 10.768C208.256 10.768 209.232 9.568 209.232 8C209.232 6.432 208.24 5.232 206.8 5.232C205.36 5.232 204.368 6.432 204.368 8C204.368 9.568 205.36 10.768 206.8 10.768ZM215.897 2.224C215.737 2.096 215.561 2 215.257 2C214.729 2 214.297 2.288 214.297 3.344V4H216.217V5.12H214.297V12H212.953V5.12H211.769V4H212.953V3.216C212.953 1.76 213.705 0.719999 215.097 0.719999C215.833 0.719999 216.265 1.024 216.505 1.232L215.897 2.224ZM229.305 12L228.361 9.072H223.785L222.841 12H221.289L225.065 0.799999H227.081L230.857 12H229.305ZM225.977 2.304L224.233 7.712H227.913L226.169 2.304H225.977ZM236.114 3.92H236.61V5.296C236.45 5.264 236.162 5.232 235.954 5.232C234.93 5.232 233.922 5.808 233.922 7.28V12H232.514V4H233.442L233.714 4.896H233.938C234.242 4.544 234.898 3.92 236.114 3.92ZM242.392 10.592L243 11.568C242.76 11.776 242.328 12.08 241.592 12.08C240.2 12.08 239.352 11.04 239.352 9.584V5.184H237.96V4.144H238.456C239.08 4.144 239.528 3.696 239.528 3.04V1.6H240.712V4H242.648V5.168H240.728V9.456C240.728 10.48 241.208 10.816 241.752 10.816C242.072 10.816 242.248 10.704 242.392 10.592ZM249.819 9.712C249.819 11.2 248.619 12.08 247.051 12.08C245.211 12.08 244.011 10.88 244.011 9.424H245.307C245.307 10.416 246.155 10.928 247.035 10.928C247.787 10.928 248.491 10.56 248.491 9.776C248.491 8.96 247.707 8.704 246.827 8.464C245.739 8.176 244.251 7.744 244.251 6.144C244.251 4.72 245.419 3.92 246.891 3.92C248.683 3.92 249.659 5.088 249.659 6.192H248.363C248.363 5.6 247.739 5.056 246.891 5.056C246.155 5.056 245.579 5.472 245.579 6.128C245.579 6.864 246.331 7.12 247.115 7.328C248.331 7.648 249.819 8.064 249.819 9.712ZM252.404 12.08C251.876 12.08 251.444 11.648 251.444 11.12C251.444 10.576 251.876 10.16 252.404 10.16C252.932 10.16 253.364 10.576 253.364 11.12C253.364 11.648 252.932 12.08 252.404 12.08ZM266.508 12L265.564 9.072H260.988L260.044 12H258.492L262.268 0.799999H264.284L268.06 12H266.508ZM263.18 2.304L261.436 7.712H265.116L263.372 2.304H263.18ZM269.53 0.639999H270.922V12H269.53V0.639999ZM273.061 0.639999H274.453V12H273.061V0.639999ZM284.943 3.92H285.439V5.296C285.279 5.264 284.991 5.232 284.783 5.232C283.759 5.232 282.751 5.808 282.751 7.28V12H281.343V4H282.271L282.543 4.896H282.767C283.071 4.544 283.727 3.92 284.943 3.92ZM287.992 2.608C287.416 2.608 286.952 2.144 286.952 1.584C286.952 1.008 287.416 0.559999 287.992 0.559999C288.552 0.559999 289.016 1.008 289.016 1.584C289.016 2.144 288.552 2.608 287.992 2.608ZM288.68 4V12H287.272V4H288.68ZM294.988 10.448C296.764 10.448 297.5 11.424 297.5 12.64C297.5 14.432 295.884 15.28 294.044 15.28C291.644 15.28 290.348 13.84 290.668 12.128L291.884 11.28C291.26 11.056 290.812 10.656 290.812 9.936C290.812 9.28 291.18 8.752 291.82 8.432C291.388 7.952 291.148 7.312 291.148 6.624C291.148 5.12 292.316 3.904 294.108 3.904C294.764 3.904 295.324 4.064 295.788 4.336C296.588 3.968 296.972 3.36 296.972 3.36L297.788 4.496C297.788 4.496 297.34 4.816 296.588 5.072C296.892 5.52 297.068 6.048 297.068 6.624C297.068 8.144 295.916 9.36 294.108 9.36C293.58 9.36 293.1 9.248 292.684 9.056C292.396 9.216 292.172 9.456 292.172 9.776C292.172 10.16 292.492 10.448 293.852 10.448H294.988ZM294.124 5.056C293.132 5.056 292.508 5.76 292.508 6.64C292.508 7.504 293.116 8.208 294.108 8.208C295.116 8.208 295.708 7.504 295.708 6.624C295.708 5.76 295.116 5.056 294.124 5.056ZM294.044 14.016C295.084 14.016 296.14 13.536 296.14 12.608C296.14 11.664 295.068 11.616 294.364 11.6C293.932 11.584 293.468 11.568 293.02 11.52L291.948 12.528C291.82 13.456 292.924 14.016 294.044 14.016ZM303.322 3.92C305.306 3.92 306.33 5.44 306.33 7.664V12H304.922V8.144C304.922 6.72 304.682 5.136 303.098 5.136C301.898 5.136 300.938 6.032 300.938 7.44V12H299.53V0.639999H300.938V4.848H301.098C301.45 4.448 302.154 3.92 303.322 3.92ZM312.126 10.592L312.734 11.568C312.494 11.776 312.062 12.08 311.326 12.08C309.934 12.08 309.086 11.04 309.086 9.584V5.184H307.694V4.144H308.19C308.814 4.144 309.262 3.696 309.262 3.04V1.6H310.446V4H312.382V5.168H310.462V9.456C310.462 10.48 310.942 10.816 311.486 10.816C311.806 10.816 311.982 10.704 312.126 10.592ZM319.553 9.712C319.553 11.2 318.353 12.08 316.785 12.08C314.945 12.08 313.745 10.88 313.745 9.424H315.041C315.041 10.416 315.889 10.928 316.769 10.928C317.521 10.928 318.225 10.56 318.225 9.776C318.225 8.96 317.441 8.704 316.561 8.464C315.473 8.176 313.985 7.744 313.985 6.144C313.985 4.72 315.153 3.92 316.625 3.92C318.417 3.92 319.393 5.088 319.393 6.192H318.097C318.097 5.6 317.473 5.056 316.625 5.056C315.889 5.056 315.313 5.472 315.313 6.128C315.313 6.864 316.065 7.12 316.849 7.328C318.065 7.648 319.553 8.064 319.553 9.712ZM329.88 3.92H330.376V5.296C330.216 5.264 329.928 5.232 329.72 5.232C328.696 5.232 327.688 5.808 327.688 7.28V12H326.28V4H327.208L327.48 4.896H327.704C328.008 4.544 328.664 3.92 329.88 3.92ZM335.127 3.92C337.047 3.92 338.919 5.344 338.759 8.368H332.711C332.839 9.856 333.767 10.784 335.143 10.784C336.055 10.784 336.727 10.384 337.111 9.76H338.583C337.975 11.216 336.599 12.08 335.143 12.08C333.127 12.08 331.335 10.432 331.335 7.936C331.335 5.456 333.127 3.92 335.127 3.92ZM335.111 5.104C333.927 5.104 333.031 5.92 332.775 7.2H337.303C337.111 5.968 336.311 5.104 335.111 5.104ZM346.147 9.712C346.147 11.2 344.947 12.08 343.379 12.08C341.539 12.08 340.339 10.88 340.339 9.424H341.635C341.635 10.416 342.483 10.928 343.363 10.928C344.115 10.928 344.819 10.56 344.819 9.776C344.819 8.96 344.035 8.704 343.155 8.464C342.067 8.176 340.579 7.744 340.579 6.144C340.579 4.72 341.747 3.92 343.219 3.92C345.011 3.92 345.987 5.088 345.987 6.192H344.691C344.691 5.6 344.067 5.056 343.219 5.056C342.483 5.056 341.907 5.472 341.907 6.128C341.907 6.864 342.659 7.12 343.443 7.328C344.659 7.648 346.147 8.064 346.147 9.712ZM351.565 3.92C353.485 3.92 355.357 5.344 355.197 8.368H349.149C349.277 9.856 350.205 10.784 351.581 10.784C352.493 10.784 353.165 10.384 353.549 9.76H355.021C354.413 11.216 353.037 12.08 351.581 12.08C349.565 12.08 347.773 10.432 347.773 7.936C347.773 5.456 349.565 3.92 351.565 3.92ZM351.549 5.104C350.365 5.104 349.469 5.92 349.213 7.2H353.741C353.549 5.968 352.749 5.104 351.549 5.104ZM360.646 3.92H361.142V5.296C360.982 5.264 360.694 5.232 360.486 5.232C359.462 5.232 358.454 5.808 358.454 7.28V12H357.046V4H357.974L358.246 4.896H358.47C358.774 4.544 359.43 3.92 360.646 3.92ZM368.472 4H369.944L367.352 12H365.24L362.648 4H364.12L366.2 10.848H366.391L368.472 4ZM374.643 3.92C376.563 3.92 378.435 5.344 378.275 8.368H372.227C372.355 9.856 373.283 10.784 374.659 10.784C375.571 10.784 376.243 10.384 376.627 9.76H378.099C377.491 11.216 376.115 12.08 374.659 12.08C372.643 12.08 370.851 10.432 370.851 7.936C370.851 5.456 372.643 3.92 374.643 3.92ZM374.627 5.104C373.443 5.104 372.547 5.92 372.291 7.2H376.819C376.627 5.968 375.827 5.104 374.627 5.104ZM385.978 0.639999H387.338V12H386.41L386.106 10.976H385.85C385.354 11.632 384.602 12.08 383.562 12.08C381.53 12.08 379.866 10.368 379.866 8C379.866 5.632 381.53 3.92 383.562 3.92C384.682 3.92 385.466 4.448 385.978 5.2V0.639999ZM381.274 8C381.274 9.728 382.474 10.768 383.674 10.768C384.73 10.768 385.978 9.968 385.978 8C385.978 6.032 384.73 5.232 383.674 5.232C382.474 5.232 381.274 6.272 381.274 8ZM390.686 12.08C390.158 12.08 389.726 11.648 389.726 11.12C389.726 10.576 390.158 10.16 390.686 10.16C391.214 10.16 391.646 10.576 391.646 11.12C391.646 11.648 391.214 12.08 390.686 12.08Z" fill="#9FA0A0"/>
</svg>
