<svg xmlns="http://www.w3.org/2000/svg" width="current" height="current" viewBox="0 0 135 27" fill="none">
  <path d="M9.81704 10.5603H9.90118L16.7731 0.46875H28.1047L18.456 12.4957L29.0023 26.1538H17.0536L9.90118 15.2605H9.81704V26.1538H0V0.46875H9.81704V10.5603Z" fill="#9FA0A0" fill-opacity="0.5"/>
  <path d="M87.3422 17.445C87.3422 17.445 91.6617 25.9606 91.7458 26.1541H96.0934C95.2799 24.6335 90.736 16.2561 90.736 16.2561C89.8385 14.7078 89.2495 14.1549 87.9873 13.7401L87.8751 13.6848L87.2861 13.519V13.3807L87.8751 13.3254H88.0153C91.5214 12.7725 93.8495 10.3394 93.8495 7.43639C93.8495 1.38146 88.5203 0.441406 82.7422 0.441406H75.7861V26.1541H79.6007V14.7908H82.2654C84.4812 14.7908 85.9678 14.7908 87.2861 17.4173L87.3422 17.445ZM79.6288 3.39975H83.808C87.6226 3.39975 89.8105 4.97571 89.8105 7.51933C89.8105 10.063 87.3422 11.8877 83.3312 11.8877H79.6007V3.39975H79.6288Z" fill="#9FA0A0" fill-opacity="0.5"/>
  <path d="M117.551 0.441406H95.6729V3.37212H104.705V26.1541H108.519V3.37212H117.551V0.441406Z" fill="#9FA0A0" fill-opacity="0.5"/>
  <path d="M135 19.0219C135 14.2664 131.073 12.5799 127.595 11.0592C124.846 9.87036 122.49 8.87502 122.49 6.58023C122.49 4.28544 124.454 2.93069 127.763 2.93069C129.867 2.93069 131.045 3.23483 133.065 3.95368C133.121 3.6219 133.541 1.13357 133.597 0.884738C131.774 0.331776 129.615 0 127.595 0C122.041 0 118.451 2.70951 118.451 6.91202C118.451 11.1145 121.957 12.6628 125.351 14.1005C128.212 15.317 130.933 16.4506 130.933 19.2431C130.933 22.4779 127.427 23.6668 125.043 23.6668C122.658 23.6668 120.162 22.8097 119.152 22.4779C119.124 22.8373 118.816 25.3256 118.788 25.5744C120.611 26.0998 122.546 26.5975 124.538 26.5975C131.185 26.5975 134.972 23.8326 134.972 18.9942L135 19.0219Z" fill="#9FA0A0" fill-opacity="0.5"/>
  <path d="M38.1725 0.46875H29.8701V8.65258H38.1725V0.46875Z" fill="#9FA0A0" fill-opacity="0.5"/>
  <path d="M61.1409 0.441406H56.9897C56.9055 0.634943 44.9849 25.6565 44.7324 26.1541H48.7154L52.0251 18.7721H65.797L69.1067 26.1541H73.258C73.0336 25.6565 61.2251 0.662591 61.1409 0.441406ZM53.2312 16.0349L58.7287 3.70388L58.8971 3.34446L64.5629 16.0349H53.2031H53.2312Z" fill="#9FA0A0" fill-opacity="0.5"/>
</svg>