<svg width="12" height="12" viewBox="0 0 12 12" fill="none" xmlns="http://www.w3.org/2000/svg">
<path d="M6 0C7.59146 0 9.11728 0.631726 10.2424 1.75759C11.3683 2.88273 12 4.4085 12 6C12 7.5915 11.3683 9.11729 10.2424 10.2424C9.11727 11.3683 7.5915 12 6 12C4.4085 12 2.88271 11.3683 1.75758 10.2424C0.631726 9.11727 0 7.5915 0 6C0.00142612 4.40927 0.634592 2.88417 1.75901 1.75905C2.88416 0.63461 4.40941 0.00142375 6 0ZM2.95138 8.74726C2.95566 8.77079 2.97634 8.78862 3.00058 8.78933C3.02482 8.79289 3.04835 8.77935 3.05762 8.75653C3.35993 8.09058 3.84337 7.5223 4.45156 7.11659C5.06047 6.71087 5.77065 6.48415 6.50213 6.46133H6.50926C6.56202 6.46133 6.61265 6.48201 6.65115 6.51837C6.69037 6.55616 6.71247 6.60893 6.71247 6.66383V7.75046C6.71176 7.77256 6.7253 7.79253 6.74527 7.8018C6.76523 7.81107 6.78876 7.80822 6.80516 7.79396L9.71637 5.32265C9.72849 5.31196 9.73562 5.29627 9.73562 5.27916C9.73562 5.26276 9.72849 5.24778 9.71637 5.23709L6.80151 2.76085C6.78511 2.74659 6.76158 2.74303 6.74162 2.75301C6.72094 2.76157 6.70811 2.78153 6.70882 2.80435V3.85818C6.70882 3.96727 6.62326 4.05639 6.51417 4.05997C5.37334 4.09776 4.31027 4.64606 3.61866 5.55445C2.92703 6.46284 2.68104 7.63368 2.94842 8.74384L2.95138 8.74726Z" fill="black"/>
</svg>
