<svg width="current" height="current" viewBox="0 0 115 9" fill="none" xmlns="http://www.w3.org/2000/svg">
<path d="M6.492 0.431054H7.656L4.968 8.83105H3.168L0.48 0.431054H1.656L3.984 7.78705H4.152L6.492 0.431054ZM10.2323 0.431054V8.83105H9.11625V0.431054H10.2323ZM13.4783 7.77505H17.7743V8.83105H12.3623V0.431054H17.6543V1.47505H13.4783V4.05505H17.2943V5.09905H13.4783V7.77505ZM28.119 0.431054H29.259L27.195 8.83105H25.563L24.159 2.50705H24.015L22.611 8.83105H20.979L18.915 0.431054H20.055L21.747 7.59505H21.891L23.343 1.03105H24.831L26.283 7.59505H26.427L28.119 0.431054ZM38.5723 8.83105L37.8643 6.63505H34.4323L33.7243 8.83105H32.5603L35.3923 0.431054H36.9043L39.7363 8.83105H38.5723ZM36.0763 1.55905L34.7683 5.61505H37.5283L36.2203 1.55905H36.0763ZM42.189 7.77505H46.497V8.83105H41.085V0.431054H42.189V7.77505ZM49.2788 7.77505H53.5868V8.83105H48.1748V0.431054H49.2788V7.77505ZM66.3221 0.431054H67.4621L65.3981 8.83105H63.7661L62.3621 2.50705H62.2181L60.8141 8.83105H59.1821L57.1181 0.431054H58.2581L59.9501 7.59505H60.0941L61.5461 1.03105H63.0341L64.4861 7.59505H64.6301L66.3221 0.431054ZM72.254 8.89105C70.046 8.89105 68.138 7.09105 68.138 4.63105C68.138 2.17105 70.046 0.371054 72.242 0.371054C74.438 0.371054 76.346 2.17105 76.346 4.63105C76.346 7.09105 74.45 8.89105 72.254 8.89105ZM72.254 7.83505C74.006 7.83505 75.218 6.47905 75.218 4.63105C75.218 2.78305 73.994 1.42705 72.242 1.42705C70.502 1.42705 69.278 2.78305 69.278 4.63105C69.278 6.47905 70.502 7.83505 72.254 7.83505ZM84.0099 8.83105H82.7979L80.5779 5.47105H79.0659V8.83105H78.0459V0.431054H80.9499C82.3299 0.431054 83.6139 1.29505 83.6139 2.89105C83.6139 4.17505 82.7859 5.06305 81.7419 5.36305L84.0099 8.83105ZM79.0659 1.41505V4.48705H80.8299C81.6699 4.48705 82.5579 4.00705 82.5579 2.89105C82.5579 1.77505 81.6579 1.41505 80.8299 1.41505H79.0659ZM91.6179 8.83105H90.2979L87.3219 5.02705H86.6139V8.83105H85.5459V0.431054H86.6139V3.99505H87.3219L89.9499 0.431054H91.2579L88.2819 4.51105L91.6179 8.83105ZM98.7337 6.64705C98.7337 8.08705 97.4257 8.89105 95.9497 8.89105C94.0897 8.89105 92.8177 7.63105 92.8177 6.29905H93.8977C93.9697 7.24705 94.9417 7.85905 95.9617 7.85905C96.6937 7.85905 97.6177 7.53505 97.6177 6.65905C97.6177 5.89105 96.8977 5.55505 95.7697 5.09905C94.5697 4.61905 93.0457 4.03105 93.0457 2.56705C93.0457 1.24705 94.2937 0.359054 95.7577 0.359054C97.4737 0.359054 98.4937 1.58305 98.4937 2.65105H97.4137C97.3417 2.00305 96.7657 1.39105 95.7217 1.39105C94.7857 1.39105 94.1617 1.88305 94.1617 2.49505C94.1617 3.31105 95.2897 3.71905 95.9857 4.00705C97.2337 4.52305 98.7337 5.11105 98.7337 6.64705Z" fill="black" fill-opacity="0.7"/>
<path d="M107.421 7.5003C107.238 7.81997 107.35 8.22721 107.669 8.40988C107.989 8.59256 108.396 8.48149 108.579 8.16181L107.421 7.5003ZM112.643 0.655643C112.546 0.300427 112.18 0.0910016 111.825 0.187879L106.036 1.76658C105.681 1.86346 105.471 2.22995 105.568 2.58517C105.665 2.94039 106.032 3.14981 106.387 3.05294L111.532 1.64964L112.936 6.79505C113.032 7.15027 113.399 7.35969 113.754 7.26281C114.109 7.16594 114.319 6.79944 114.222 6.44423L112.643 0.655643ZM108.579 8.16181L112.579 1.16181L111.421 0.500295L107.421 7.5003L108.579 8.16181Z" fill="black" fill-opacity="0.7"/>
</svg>
