<svg width="36" height="31" viewBox="0 0 36 31" fill="none" xmlns="http://www.w3.org/2000/svg">
<path d="M35.1389 7.33145C34.9847 10.724 32.6716 15.2732 28.1224 21.1331C23.4191 27.2243 19.4868 30.3084 16.1713 30.3084C14.1666 30.3084 12.4704 28.4579 11.0825 24.7569C8.38384 14.7334 7.22729 8.95063 4.99127 8.95063C4.68286 8.95063 3.83471 9.49036 2.29264 10.5698L0.673454 8.48801C4.60575 4.94123 8.38384 1.08604 10.7741 0.854724C13.4727 0.623412 15.169 2.47391 15.7858 6.4062C17.9447 20.362 18.9471 22.5209 22.9565 16.1213C24.4215 13.8853 25.1925 12.1119 25.3467 10.9553C25.6551 7.40856 22.571 7.63987 20.4121 8.56511C22.1083 3.01363 25.3467 0.314996 30.1271 0.469204C33.6739 0.546308 35.3702 2.85943 35.1389 7.33145Z" fill="black"/>
</svg>
